<svg width="64" height="64" viewBox="0 0 64 64" fill="none" xmlns="http://www.w3.org/2000/svg">
<path fill-rule="evenodd" clip-rule="evenodd" d="M43.7623 7.38363L43.765 9.38263C51.1107 9.95834 55.9631 14.9638 55.971 22.64L55.9999 45.1087C56.0105 53.4779 50.7526 58.6273 42.3248 58.6406L21.7384 58.6673C13.3632 58.6779 8.03951 53.4059 8.02898 45.0128L8.00002 22.8079C7.98949 15.0811 12.6707 10.0889 20.0165 9.41461L20.0138 7.41561C20.0112 6.24287 20.88 5.36064 22.0385 5.36064C23.197 5.35798 24.0658 6.23754 24.0684 7.41028L24.0711 9.27602L39.7104 9.25469L39.7077 7.38896C39.7051 6.21622 40.5739 5.33666 41.7324 5.33399C42.8645 5.33133 43.7597 6.21088 43.7623 7.38363ZM12.0573 23.6315L51.919 23.5782V22.6453C51.8058 16.9149 48.9307 13.9084 43.7703 13.4606L43.7729 15.5129C43.7729 16.659 42.8803 17.5679 41.7482 17.5679C40.5897 17.5705 39.7183 16.6643 39.7183 15.5182L39.7156 13.3593L24.0764 13.3806L24.079 15.5369C24.079 16.6856 23.2128 17.5919 22.0543 17.5919C20.8958 17.5945 20.0244 16.691 20.0244 15.5422L20.0217 13.4899C14.8876 14.0043 12.0468 17.0215 12.0547 22.8026L12.0573 23.6315ZM40.6398 35.7454V35.7748C40.6661 37.0008 41.6666 37.931 42.8803 37.9043C44.0651 37.875 45.0103 36.8595 44.984 35.6335C44.9287 34.4607 43.9783 33.5039 42.7961 33.5066C41.585 33.5332 40.6371 34.5194 40.6398 35.7454ZM42.8145 47.7128C41.6034 47.6861 40.6266 46.6759 40.624 45.4499C40.5976 44.2238 41.5692 43.2084 42.7803 43.179H42.8066C44.0441 43.179 45.0472 44.1892 45.0472 45.4419C45.0498 46.6946 44.0493 47.7101 42.8145 47.7128ZM29.7923 35.7881C29.845 37.0141 30.8481 37.971 32.0592 37.9177C33.244 37.8617 34.1892 36.8489 34.1366 35.6228C34.1076 34.4234 33.1334 33.4906 31.9487 33.4932C30.7375 33.5465 29.7897 34.562 29.7923 35.7881ZM32.0698 47.5928C30.8586 47.6461 29.8582 46.6893 29.8029 45.4632C29.8029 44.2372 30.7481 43.2243 31.9592 43.1684C33.144 43.1657 34.1208 44.0986 34.1471 45.2953C34.2024 46.524 33.2546 47.5369 32.0698 47.5928ZM18.9449 35.8814C18.9975 37.1074 20.0007 38.0669 21.2118 38.011C22.3966 37.9577 23.3418 36.9422 23.2865 35.7161C23.2602 34.5167 22.286 33.5838 21.0986 33.5865C19.8875 33.6398 18.9423 34.6553 18.9449 35.8814ZM21.2223 47.6062C20.0112 47.6621 19.0107 46.7026 18.9554 45.4766C18.9528 44.2505 19.9006 43.235 21.1117 43.1817C22.2965 43.179 23.2733 44.1119 23.2997 45.3113C23.355 46.5374 22.4097 47.5528 21.2223 47.6062Z" fill="#1EAAAC"/>
</svg>
