<svg width="50" height="63" viewBox="0 0 50 63" fill="none" xmlns="http://www.w3.org/2000/svg">
<g clip-path="url(#clip0_2881_2805)">
<path d="M49.7903 39.3691C49.7503 38.3591 49.5703 37.3691 49.3303 36.3891C48.8203 34.3291 48.0603 32.3591 47.2203 30.4191C47.1603 30.2791 47.0803 30.2291 46.9503 30.2591C46.8903 30.2691 46.8203 30.3191 46.7803 30.3691C45.6803 31.7891 44.7103 33.3091 43.7803 34.8491C43.7203 34.9591 43.7203 35.0291 43.7803 35.1391C44.5703 36.6891 45.3003 38.2691 45.8803 39.9191C46.2103 40.8591 46.4703 41.8191 46.6303 42.8091C46.6603 42.9691 46.6203 43.0691 46.4803 43.1691C45.9103 43.5791 45.2903 43.8791 44.6103 44.0591C43.3403 44.3891 42.0603 44.3991 40.7803 44.1291C40.0103 43.9691 39.2803 43.7091 38.6303 43.2591C37.3103 42.3491 36.4303 41.1191 35.9203 39.6091C35.4703 38.2891 35.2603 36.9291 35.1903 35.5491C35.1203 34.2491 35.1003 32.9591 35.0803 31.6591C35.0303 29.2691 35.0003 26.8891 34.9503 24.4991C34.9503 24.4191 34.9603 24.3591 35.0403 24.3091C36.3203 23.5891 37.6303 22.9591 39.0503 22.5691C40.4203 22.1891 41.8003 22.0891 43.2003 22.4091C44.7203 22.7591 45.8103 23.6191 46.3603 25.0991C46.5203 25.5191 46.5803 25.9791 46.6903 26.4191C46.7103 26.4891 46.7203 26.5891 46.7703 26.6091C46.9603 26.6891 47.1503 26.7391 47.3503 26.8091C47.3703 26.7591 47.3903 26.7191 47.4003 26.6891C47.8503 25.2891 48.2203 23.8691 48.3903 22.4091C48.5003 21.5291 48.5703 20.6391 48.4303 19.7491C48.1303 17.9091 47.0703 16.7191 45.3303 16.1191C44.1503 15.7091 42.9303 15.6891 41.7103 15.8691C40.5203 16.0491 39.4003 16.4491 38.3103 16.9491C37.2003 17.4591 36.1603 18.0891 35.1503 18.7591C35.0803 18.8091 34.9903 18.8291 34.8803 18.8691C34.8803 18.7591 34.8803 18.6991 34.8803 18.6291C34.8803 14.8391 34.8203 11.0491 34.5803 7.25914C34.4303 4.91914 34.2103 2.57914 33.8403 0.269141C33.8103 0.0791406 33.7403 0.00914062 33.5603 0.00914062C33.4603 0.00914062 33.3803 -0.0508594 33.2903 0.0691406C32.3203 1.40914 31.4103 2.79914 30.5403 4.20914C30.5103 4.24914 30.4903 4.30914 30.5003 4.36914C30.5403 4.84914 30.5803 5.33914 30.6103 5.81914C30.7503 7.58914 30.8903 9.35914 31.0303 11.1191C31.1403 12.5691 31.2503 14.0191 31.3503 15.4791C31.4703 17.3491 31.5903 19.2191 31.7003 21.0991C31.7003 21.1591 31.6603 21.2491 31.6203 21.2891C31.3303 21.5491 31.0403 21.7891 30.7503 22.0391C29.2303 23.3791 27.7803 24.7891 26.3403 26.2191C26.2903 26.2591 26.2203 26.2791 26.1603 26.3091C26.1403 26.2491 26.1003 26.1991 26.1003 26.1391C26.0103 24.3791 25.9203 22.6291 25.8403 20.8691C25.7403 18.9391 25.6503 16.9991 25.5503 15.0691C25.5503 14.9091 25.5703 14.7991 25.6903 14.6791C26.4703 13.9291 27.2403 13.1791 28.0103 12.4191C28.2303 12.1991 28.4403 11.9591 28.6703 11.7191C28.5503 11.5491 28.4103 11.3591 28.2703 11.1691C27.2403 9.74914 26.3203 8.26914 25.6203 6.65914C24.9103 5.00914 24.6203 3.29914 24.9503 1.50914C24.9503 1.46914 24.9303 1.40914 24.9003 1.38914C24.7403 1.27914 24.5703 1.17914 24.4003 1.06914C24.3403 1.13914 24.2903 1.18914 24.2303 1.25914C23.0203 2.70914 22.0503 4.29914 21.2803 6.02914C20.7703 7.19914 20.5803 8.37914 20.9103 9.62914C21.1603 10.5791 21.4003 11.5391 21.6403 12.4991C21.7303 12.8391 21.8403 13.1791 21.8903 13.5291C21.9603 13.9891 21.9903 14.4591 22.0303 14.9291C22.2203 17.3291 22.4203 19.7291 22.6003 22.1291C22.7103 23.5891 22.8003 25.0491 22.9003 26.4991C22.9603 27.4091 23.0303 28.3191 23.0903 29.2391C23.0903 29.3191 23.0803 29.4291 23.0303 29.4891C21.7403 30.9191 20.4203 32.3191 18.9603 33.5891C18.1103 34.3291 17.2203 35.0191 16.2403 35.5691C15.4103 36.0391 14.5303 36.4091 13.5703 36.4891C12.4403 36.5791 11.4203 36.2991 10.5803 35.5291C9.92029 34.9291 9.48029 34.1691 9.22029 33.3191C8.75029 31.7391 8.72029 30.1291 9.01029 28.5091C9.28029 26.9891 9.82029 25.5491 10.4603 24.1391C11.2403 22.4391 12.1703 20.8291 13.1903 19.2591C13.2403 19.1791 13.2903 19.0991 13.3503 18.9991C12.9203 18.7091 12.5003 18.4291 12.0703 18.1491C12.0403 18.1891 12.0103 18.2191 11.9903 18.2491C10.6903 20.1091 9.52029 22.0491 8.57029 24.1191C7.20029 27.0791 6.33029 30.1691 6.19029 33.4391C6.14029 34.5691 6.21029 35.6991 6.45029 36.8091C6.79029 38.3391 7.41029 39.7391 8.47029 40.9191C9.21029 41.7491 10.0903 42.3591 11.1603 42.6691C12.6303 43.0991 14.0603 42.8891 15.4403 42.2991C16.7103 41.7491 17.7703 40.8991 18.7503 39.9591C20.2103 38.5591 21.5503 37.0591 22.8103 35.4691C22.9703 35.2691 23.1503 35.0691 23.3303 34.8791C23.3603 34.8491 23.4303 34.8091 23.4703 34.8291C23.5103 34.8491 23.5403 34.9091 23.5603 34.9591C23.5703 34.9891 23.5703 35.0291 23.5703 35.0691C23.6503 36.2991 23.7603 37.5391 23.8103 38.7691C23.8903 40.9991 23.9303 43.2291 23.9803 45.4691C23.9803 45.6491 23.9503 45.8391 23.9003 46.0091C23.6103 46.8891 23.0703 47.6091 22.4603 48.2791C21.2803 49.5591 19.9403 50.6591 18.4703 51.5791C16.0003 53.1191 13.3203 53.8391 10.4103 53.5991C8.79029 53.4691 7.34029 52.8291 6.11029 51.7691C4.28029 50.1991 3.32029 48.1491 2.96029 45.7991C2.72029 44.2291 2.83029 42.6591 3.13029 41.0991C3.47029 39.2991 4.06029 37.5891 4.80029 35.9191C4.88029 35.7391 4.83363 35.5991 4.66029 35.4991C4.32029 35.3091 3.98029 35.1191 3.64029 34.9291C3.61029 34.9791 3.59029 35.0091 3.57029 35.0491C2.98029 36.1291 2.43029 37.2291 1.96029 38.3691C0.870293 40.8891 0.170293 43.4991 0.0302929 46.2491C-0.0697071 48.1691 0.0802928 50.0591 0.570293 51.9191C1.02029 53.6391 1.74029 55.2291 2.84029 56.6291C4.15029 58.2891 5.82029 59.4191 7.84029 60.0391C9.59029 60.5691 11.3703 60.6391 13.1703 60.3891C15.0303 60.1291 16.7703 59.5291 18.4103 58.6191C21.0903 57.1391 23.2403 55.0791 24.9003 52.5191C24.9503 52.4491 24.9803 52.3691 25.0103 52.2791C25.5103 50.5791 25.9003 48.8591 26.1803 47.1091C26.5003 45.0691 26.6903 43.0091 26.6803 40.9391C26.6703 37.8591 26.6003 34.7791 26.5603 31.6991C26.5603 31.6091 26.5903 31.4991 26.6403 31.4391C28.2203 29.6391 29.9203 27.9591 31.7403 26.3991C31.7803 26.3691 31.8203 26.3391 31.8503 26.3091C31.9703 26.3791 32.0103 26.4691 32.0103 26.5991C32.0103 26.8391 32.0303 27.0791 32.0303 27.3191C32.1203 29.6391 32.2203 31.9691 32.2903 34.2891C32.3403 35.8791 32.3403 37.4791 32.3903 39.0691C32.4403 40.6291 32.6403 42.1791 33.0603 43.6891C33.4903 45.2191 34.1103 46.6491 35.1303 47.8891C35.9303 48.8691 36.9103 49.6091 38.0903 50.0791C39.4003 50.5991 40.7603 50.7191 42.1603 50.5491C43.7603 50.3491 45.1503 49.6891 46.3103 48.5591C47.1903 47.6991 47.8203 46.6691 48.3503 45.5791C49.0603 44.0991 49.5503 42.5491 49.7203 40.9091C49.7503 40.5791 49.7703 40.2491 49.8003 39.9191V39.5191C49.8003 39.5191 49.7803 39.4191 49.7803 39.3691H49.7903Z" fill="#1EAAAC"/>
<path d="M36.5204 54.4006C36.3804 54.3106 36.2304 54.2306 36.0904 54.1406C35.0104 55.6006 33.9404 57.0506 32.8604 58.5106C34.8104 59.7906 36.6604 61.1606 38.3804 62.7406C38.4204 62.7106 38.4404 62.6906 38.4604 62.6606C39.6403 61.4006 40.6804 60.0406 41.5204 58.5406C41.5904 58.4106 41.5904 58.3406 41.4804 58.2306C39.9704 56.7606 38.3104 55.4906 36.5204 54.4006Z" fill="#1EAAAC"/>
<path d="M46.1105 54.4598C45.5905 54.0898 45.0505 53.7298 44.5005 53.3398C43.4805 54.8198 42.4805 56.2698 41.4805 57.7298C43.3605 59.0998 45.1805 60.4998 46.8605 62.0998C47.0005 61.9398 47.1205 61.7898 47.2405 61.6498C48.2005 60.4898 49.0805 59.2698 49.7305 57.9098C49.7905 57.7798 49.7805 57.6998 49.6805 57.5898C48.5905 56.4298 47.4105 55.3798 46.1205 54.4598H46.1105Z" fill="#1EAAAC"/>
</g>
<defs>
<clipPath id="clip0_2881_2805">
<rect width="49.81" height="62.74" fill="white"/>
</clipPath>
</defs>
</svg>
