<svg width="64" height="64" viewBox="0 0 64 64" fill="none" xmlns="http://www.w3.org/2000/svg">
<path d="M29.9466 19.4407V8.75003C29.9466 7.61329 30.8533 6.66602 31.9999 6.66602C33.0266 6.66602 33.8964 7.46199 34.0343 8.47023L34.0533 8.75003V19.4407L46.7997 19.4416C53.1463 19.4416 58.3606 24.6388 58.6534 31.1204L58.6663 31.6956V45.1337C58.6663 51.6608 53.6334 57.0185 47.3811 57.3194L46.8263 57.3327H17.173C10.8263 57.3327 5.63725 52.1614 5.34591 45.656L5.33301 45.0786L5.33301 31.668C5.33301 25.141 10.3408 19.7573 16.5917 19.4549L17.1463 19.4416H29.9463V36.5146L25.6797 32.1086C24.8797 31.2825 23.573 31.2825 22.773 32.1086C22.373 32.5217 22.1863 33.0724 22.1863 33.6232C22.1863 34.0418 22.3058 34.4779 22.5584 34.8472L22.773 35.1102L30.533 43.151C30.9063 43.5641 31.4397 43.7844 31.9997 43.7844C32.4441 43.7844 32.8886 43.6314 33.2404 43.3414L33.4397 43.151L41.1997 35.1102C41.9997 34.2841 41.9997 32.9348 41.1997 32.1086C40.4724 31.3576 39.3264 31.2894 38.523 31.9038L38.293 32.1086L34.053 36.5146V19.4416L29.9466 19.4407Z" fill="#1EAAAC"/>
</svg>
