<svg width="24" height="25" viewBox="0 0 24 25" fill="none" xmlns="http://www.w3.org/2000/svg">
<g clip-path="url(#clip0_221_4535)">
<path d="M12 2.59575C15.2063 2.59575 15.5859 2.60981 16.8469 2.66606C18.0188 2.71763 18.6516 2.9145 19.0734 3.07856C19.6313 3.29419 20.0344 3.55669 20.4516 3.97388C20.8734 4.39575 21.1313 4.79419 21.3469 5.352C21.5109 5.77388 21.7078 6.41138 21.7594 7.57856C21.8156 8.84419 21.8297 9.22388 21.8297 12.4254C21.8297 15.6317 21.8156 16.0114 21.7594 17.2723C21.7078 18.4442 21.5109 19.077 21.3469 19.4989C21.1313 20.0567 20.8687 20.4598 20.4516 20.877C20.0297 21.2989 19.6313 21.5567 19.0734 21.7723C18.6516 21.9364 18.0141 22.1333 16.8469 22.1848C15.5813 22.2411 15.2016 22.2551 12 22.2551C8.79375 22.2551 8.41406 22.2411 7.15313 22.1848C5.98125 22.1333 5.34844 21.9364 4.92656 21.7723C4.36875 21.5567 3.96563 21.2942 3.54844 20.877C3.12656 20.4551 2.86875 20.0567 2.65313 19.4989C2.48906 19.077 2.29219 18.4395 2.24063 17.2723C2.18438 16.0067 2.17031 15.627 2.17031 12.4254C2.17031 9.21919 2.18438 8.8395 2.24063 7.57856C2.29219 6.40669 2.48906 5.77388 2.65313 5.352C2.86875 4.79419 3.13125 4.39106 3.54844 3.97388C3.97031 3.552 4.36875 3.29419 4.92656 3.07856C5.34844 2.9145 5.98594 2.71763 7.15313 2.66606C8.41406 2.60981 8.79375 2.59575 12 2.59575ZM12 0.434814C8.74219 0.434814 8.33438 0.448877 7.05469 0.505127C5.77969 0.561377 4.90313 0.767627 4.14375 1.06294C3.35156 1.37231 2.68125 1.78013 2.01563 2.45044C1.34531 3.11606 0.9375 3.78638 0.628125 4.57388C0.332812 5.33794 0.126563 6.20981 0.0703125 7.48481C0.0140625 8.76919 0 9.177 0 12.4348C0 15.6926 0.0140625 16.1004 0.0703125 17.3801C0.126563 18.6551 0.332812 19.5317 0.628125 20.2911C0.9375 21.0833 1.34531 21.7536 2.01563 22.4192C2.68125 23.0848 3.35156 23.4973 4.13906 23.802C4.90313 24.0973 5.775 24.3036 7.05 24.3598C8.32969 24.4161 8.7375 24.4301 11.9953 24.4301C15.2531 24.4301 15.6609 24.4161 16.9406 24.3598C18.2156 24.3036 19.0922 24.0973 19.8516 23.802C20.6391 23.4973 21.3094 23.0848 21.975 22.4192C22.6406 21.7536 23.0531 21.0833 23.3578 20.2958C23.6531 19.5317 23.8594 18.6598 23.9156 17.3848C23.9719 16.1051 23.9859 15.6973 23.9859 12.4395C23.9859 9.18169 23.9719 8.77388 23.9156 7.49419C23.8594 6.21919 23.6531 5.34263 23.3578 4.58325C23.0625 3.78638 22.6547 3.11606 21.9844 2.45044C21.3188 1.78481 20.6484 1.37231 19.8609 1.06763C19.0969 0.772314 18.225 0.566064 16.95 0.509814C15.6656 0.448877 15.2578 0.434814 12 0.434814Z" fill="#ffffff"/>
<path d="M12 6.27075C8.59688 6.27075 5.83594 9.03169 5.83594 12.4348C5.83594 15.8379 8.59688 18.5989 12 18.5989C15.4031 18.5989 18.1641 15.8379 18.1641 12.4348C18.1641 9.03169 15.4031 6.27075 12 6.27075ZM12 16.4333C9.79219 16.4333 8.00156 14.6426 8.00156 12.4348C8.00156 10.227 9.79219 8.43638 12 8.43638C14.2078 8.43638 15.9984 10.227 15.9984 12.4348C15.9984 14.6426 14.2078 16.4333 12 16.4333Z" fill="#ffffff"/>
<path d="M19.8469 6.02696C19.8469 6.82383 19.2 7.46602 18.4078 7.46602C17.6109 7.46602 16.9688 6.81914 16.9688 6.02696C16.9688 5.23008 17.6156 4.58789 18.4078 4.58789C19.2 4.58789 19.8469 5.23477 19.8469 6.02696Z" fill="#1E999D"/>
</g>
<defs>
<clipPath id="clip0_221_4535">
<rect width="24" height="24" fill="white" transform="translate(0 0.434814)"/>
</clipPath>
</defs>
</svg>
