<svg width="64" height="64" viewBox="0 0 64 64" fill="none" xmlns="http://www.w3.org/2000/svg">
<path fill-rule="evenodd" clip-rule="evenodd" d="M45.1713 8C48.7473 8 52.1873 9.41333 54.718 11.9493C57.2513 14.48 58.6673 17.8933 58.6673 21.4667V42.5333C58.6673 49.9733 52.614 56 45.1713 56H18.8273C11.3847 56 5.33398 49.9733 5.33398 42.5333V21.4667C5.33398 14.0267 11.358 8 18.8273 8H45.1713ZM49.414 25.44L49.6273 25.2267C50.2647 24.4533 50.2647 23.3333 49.598 22.56C49.2273 22.1627 48.718 21.92 48.1873 21.8667C47.6273 21.8373 47.094 22.0267 46.6913 22.4L34.6673 32C33.1207 33.2827 30.9047 33.2827 29.334 32L17.334 22.4C16.5047 21.7867 15.358 21.8667 14.6673 22.5867C13.9473 23.3067 13.8673 24.4533 14.478 25.2533L14.8273 25.6L26.9607 35.0667C28.454 36.24 30.2647 36.88 32.1607 36.88C34.0513 36.88 35.894 36.24 37.3847 35.0667L49.414 25.44Z" fill="#1EAAAC"/>
</svg>
