<svg width="53" height="53" viewBox="0 0 53 53" fill="none" xmlns="http://www.w3.org/2000/svg">
<g clip-path="url(#clip0_2881_2795)">
<path d="M52.77 11.08C52.71 9.2 52.65 7.31 52.63 5.43C52.58 1.82 51.03 0.26 47.43 0.22C45.55 0.2 43.64 0.14 41.79 0.08C40.95 0.05 40.11 0.03 39.25 0H32.95L32.89 0.02C31.21 0.53 29.73 1.05 28.48 2.3C24.69 6.11 20.89 9.91 17.08 13.71C12.07 18.72 7.06 23.73 2.06 28.76C1.49 29.34 1.06 30.03 0.65 30.71C0.47 31.01 0.28 31.31 0.08 31.6L0 31.71V33.14L0.08 33.25C0.29 33.55 0.48 33.86 0.67 34.16C1.1 34.85 1.55 35.56 2.14 36.16C6.92 41.02 11.81 45.91 16.67 50.7C17.26 51.29 17.98 51.73 18.67 52.17C18.98 52.36 19.29 52.56 19.59 52.77L19.7 52.85H21.13L21.24 52.77C21.53 52.57 21.83 52.39 22.13 52.2C22.81 51.79 23.5 51.36 24.08 50.79C27.84 47.05 31.59 43.29 35.33 39.54C39.8 35.06 44.27 30.58 48.76 26.12C50.55 24.35 52.28 22.31 52.84 19.37V13.58C52.82 12.74 52.79 11.9 52.76 11.06L52.77 11.08ZM13.3 36.27C13.21 36.33 13.13 36.38 13.07 36.43L12.93 36.53H12.76C11.84 36.49 11.12 36.11 10.76 35.47C10.45 34.9 10.47 34.22 10.83 33.61C11.01 33.3 11.26 33.05 11.49 32.83L11.6 32.73C16.87 27.46 22.14 22.19 27.41 16.93C27.47 16.87 27.52 16.81 27.58 16.75C27.86 16.45 28.17 16.11 28.61 16.07C28.75 16.06 28.89 16.05 29.04 16.05C29.78 16.05 30.31 16.21 30.62 16.54C31.08 17.02 31.08 17.91 31 18.56C30.94 18.99 30.61 19.28 30.32 19.54C30.25 19.6 30.18 19.66 30.12 19.72L29.04 20.8C24.13 25.71 19.23 30.62 14.31 35.52C13.98 35.85 13.59 36.1 13.31 36.28L13.3 36.27ZM32.55 29.39C32.35 29.74 32.06 30.03 31.8 30.29C27.99 34.11 24.17 37.92 20.35 41.73C19.73 42.35 19.07 42.68 18.47 42.68C17.96 42.68 17.49 42.45 17.14 42.01C15.95 40.56 17.17 39.35 17.57 38.95C19.31 37.22 21.05 35.48 22.79 33.74C24.9 31.63 27 29.53 29.12 27.43C29.44 27.11 29.82 26.89 30.09 26.72C30.17 26.67 30.25 26.63 30.3 26.59L30.43 26.5H30.59C31.5 26.52 32.23 26.9 32.59 27.54C32.91 28.1 32.89 28.78 32.55 29.38V29.39ZM41.12 16.38H41.07C39.77 16.37 38.57 15.86 37.68 14.94C36.8 14.03 36.33 12.82 36.35 11.54C36.4 8.96 38.54 6.87 41.12 6.87C43.77 6.89 45.88 9.03 45.86 11.64C45.84 14.34 43.8 16.38 41.12 16.38Z" fill="#1EAAAC"/>
</g>
<defs>
<clipPath id="clip0_2881_2795">
<rect width="52.85" height="52.85" fill="white"/>
</clipPath>
</defs>
</svg>
