<svg width="54" height="52" viewBox="0 0 54 52" fill="none" xmlns="http://www.w3.org/2000/svg">
<g clip-path="url(#clip0_2881_2797)">
<path d="M45.8702 37.0498C45.0302 37.0498 44.2002 37.0498 43.3602 37.0498C40.8902 37.0298 38.9202 35.3898 38.4602 32.9698C38.2002 31.5998 38.5702 30.1698 39.4702 29.0298C40.3402 27.9398 41.6002 27.2898 42.9202 27.2398C43.9002 27.1998 44.9902 27.1898 46.3302 27.1898C47.0002 27.1898 53.7302 27.2098 53.7302 27.2098V17.7398C53.6602 17.4898 53.6102 17.2498 53.5702 16.9998C53.4602 16.4598 53.3502 15.9098 53.1902 15.3598C51.7602 10.4398 47.3602 6.83977 42.2502 6.39977C42.2202 6.38977 42.1502 6.33977 42.1302 6.30977C41.9302 5.95977 41.7502 5.58977 41.5702 5.22977C41.4402 4.96977 41.3102 4.70977 41.1802 4.45977C39.7302 1.71977 36.9502 0.00976562 33.9202 0.00976562C32.5602 0.00976562 31.2002 0.359766 29.9602 1.00977C28.4102 1.82977 26.8702 2.65977 25.3302 3.49977C23.7102 4.36977 22.0902 5.24977 20.4702 6.10977C20.2002 6.24977 19.8402 6.33977 19.5102 6.34977C18.9102 6.34977 18.3102 6.35977 17.7002 6.35977H15.3002C14.2402 6.35977 12.9902 6.35977 11.7402 6.40977C6.21023 6.62977 1.15023 11.1298 0.210234 16.6498C0.170234 16.8998 0.120234 17.1498 0.0702344 17.3998L-0.00976562 17.7998V44.0298L0.0802344 44.4198C0.140234 44.6798 0.200234 44.9398 0.270234 45.1998C1.25023 48.8498 4.51023 51.3098 8.37023 51.3098H22.8602H45.3602C45.8802 51.3098 46.3402 51.2798 46.7702 51.2098C50.3202 50.6598 53.0802 47.8898 53.6602 44.2498L53.7302 44.0498V37.0498H45.8602H45.8702ZM48.7202 13.5798C48.1002 13.3098 47.4902 13.1398 46.8602 13.0498C46.6202 13.0198 46.3802 12.9998 46.1302 12.9798C45.9502 12.9698 45.7702 12.9598 45.5702 12.9598C45.5302 12.9598 45.5002 12.9598 45.4602 12.9598C44.9702 12.0198 44.5002 11.0598 44.0202 10.0998C45.7502 10.6198 47.5902 11.9898 48.7202 13.5698V13.5798ZM8.02024 12.8198C7.96024 12.8498 7.80023 12.9398 7.72023 12.9498C6.79023 13.0098 5.90023 13.2198 5.03023 13.5898C6.81024 11.0598 9.27024 9.76976 12.5202 9.65977C12.9302 9.64977 13.3302 9.63977 13.7402 9.63977C13.8002 9.63977 13.8702 9.63977 13.9302 9.63977C11.9602 10.6998 9.99024 11.7598 8.02024 12.8198ZM22.8302 12.9198C21.1502 12.9298 19.4702 12.9398 17.7902 12.9398H14.7502L21.5102 9.29977C24.7902 7.52977 28.0702 5.76977 31.3502 4.00977C32.1802 3.55977 33.0902 3.32977 33.9602 3.32977C35.4302 3.32977 36.7602 3.96977 37.7102 5.13977C37.7102 5.14977 37.7302 5.15977 37.7402 5.16977L32.6002 7.94977C29.6502 9.53977 26.7002 11.1298 23.7402 12.7098C23.4802 12.8498 23.1402 12.9298 22.8302 12.9398V12.9198ZM39.3102 8.05977L41.7302 12.8898H30.3402L39.3102 8.05977Z" fill="#1EAAAC"/>
<path d="M43.2805 34.7807C41.8105 34.7607 40.6405 33.5507 40.6505 32.0807C40.6705 30.6407 41.8605 29.4707 43.3105 29.4707C44.0305 29.4707 44.6905 29.7507 45.1905 30.2507C45.6905 30.7607 45.9605 31.4307 45.9605 32.1407C45.9605 33.6007 44.7605 34.7807 43.3005 34.7807H43.2705H43.2805Z" fill="#1EAAAC"/>
</g>
<defs>
<clipPath id="clip0_2881_2797">
<rect width="53.74" height="51.31" fill="white"/>
</clipPath>
</defs>
</svg>
