<svg width="52" height="51" viewBox="0 0 52 51" fill="none" xmlns="http://www.w3.org/2000/svg">
<g clip-path="url(#clip0_2881_2804)">
<path d="M21.3999 50.0803H20.8099C20.2799 49.9003 19.7499 49.7503 19.2299 49.5503C14.0399 47.5703 8.84988 45.5903 3.65988 43.6103C1.48988 42.7803 0.0198828 40.7503 0.0198828 38.4303C-0.000117187 31.3503 -0.000117187 24.2803 0.0198828 17.2003C0.0198828 14.8503 1.74988 13.7003 3.94988 14.5303C9.35988 16.5603 14.7599 18.5903 20.1599 20.6403C22.7899 21.6403 24.1799 23.6703 24.1799 26.4803C24.1799 33.0403 24.1799 39.6103 24.1799 46.1703C24.1799 48.5803 23.6399 49.3503 21.4099 50.0803H21.3999Z" fill="#1EAAAC"/>
<path d="M51.2699 16.8405V38.8005C51.2299 38.8905 51.1699 38.9705 51.1499 39.0605C50.6599 41.2805 49.3699 42.8105 47.2399 43.6105C46.5999 43.8505 45.9599 44.0805 45.3199 44.3105C40.5899 46.0405 35.8799 47.8605 31.0999 49.4605C28.6799 50.2705 27.1399 49.1605 27.1299 47.0905C27.0999 39.9905 27.0999 32.8905 27.1299 25.7905C27.1399 23.4005 28.6099 21.4705 30.8699 20.6205C32.4599 20.0205 34.0499 19.4005 35.6399 18.7905C39.3499 17.3705 43.0499 15.9505 46.7599 14.5305C48.9999 13.6805 50.8899 14.8305 51.1699 16.7205C51.1699 16.7605 51.2299 16.7905 51.2599 16.8305L51.2699 16.8405Z" fill="#1EAAAC"/>
<path d="M26.37 0C32.74 2.26 39.11 4.53 45.48 6.8C46.19 7.05 46.9 7.32 47.6 7.6C48.38 7.91 49.06 8.35 49.08 9.3C49.1 10.25 48.43 10.76 47.67 11.07C46.05 11.73 44.4 12.32 42.75 12.93C38.25 14.6 33.75 16.26 29.25 17.92C26.59 18.9 23.93 18.91 21.25 17.92C15.22 15.69 9.18004 13.5 3.14004 11.29C3.09004 11.27 3.04004 11.27 3.00004 11.25C2.12004 10.9 1.20004 10.51 1.21004 9.38C1.21004 8.28 2.10004 7.81 2.99004 7.48C9.32004 5.13 15.65 2.79 21.98 0.46C22.59 0.24 23.25 0.15 23.89 0C24.72 0 25.55 0 26.38 0H26.37Z" fill="#1EAAAC"/>
</g>
<defs>
<clipPath id="clip0_2881_2804">
<rect width="51.27" height="50.08" fill="white"/>
</clipPath>
</defs>
</svg>
