<svg width="64" height="64" viewBox="0 0 64 64" fill="none" xmlns="http://www.w3.org/2000/svg">
<path fill-rule="evenodd" clip-rule="evenodd" d="M31.9997 58.6673C17.2797 58.6673 5.33301 46.7473 5.33301 32.0006C5.33301 17.2807 17.2797 5.33398 31.9997 5.33398C46.7463 5.33398 58.6663 17.2807 58.6663 32.0006C58.6663 46.7473 46.7463 58.6673 31.9997 58.6673ZM40.5063 41.894C40.8263 42.0807 41.173 42.1873 41.5463 42.1873C42.213 42.1873 42.8797 41.8407 43.253 41.2007C43.813 40.2673 43.5197 39.0407 42.5597 38.454L33.0663 32.8007V20.4807C33.0663 19.3607 32.1597 18.4807 31.0663 18.4807C29.973 18.4807 29.0663 19.3607 29.0663 20.4807V33.9473C29.0663 34.6407 29.4397 35.2807 30.053 35.654L40.5063 41.894Z" fill="#1EAAAC"/>
</svg>
