<svg xmlns="http://www.w3.org/2000/svg" width="35.779" height="25.089" viewBox="0 0 35.779 25.089">
  <g id="Group_43831" data-name="Group 43831" transform="translate(-284.898 -347)">
    <path id="Path_45625" data-name="Path 45625" d="M396.093,372.138h-2.814a1.445,1.445,0,1,0,0,2.889h2.814a1.445,1.445,0,1,0,0-2.889Z" transform="translate(-81.992 -19.274)" fill="#f5f5f5"/>
    <path id="Path_45626" data-name="Path 45626" d="M398.892,397.5h-5.614a1.445,1.445,0,1,0,0,2.889h5.614a1.445,1.445,0,1,0,0-2.889Z" transform="translate(-81.992 -38.724)" fill="#f5f5f5"/>
    <path id="Path_45627" data-name="Path 45627" d="M401.224,423.5h-7.946a1.445,1.445,0,1,0,0,2.889h7.946a1.445,1.445,0,1,0,0-2.889Z" transform="translate(-81.992 -58.659)" fill="#f5f5f5"/>
    <path id="Path_45628" data-name="Path 45628" d="M318.523,378.067a5.3,5.3,0,1,0,5.3,5.3,5.3,5.3,0,0,0-5.3-5.3Zm0,8.428a3.13,3.13,0,1,1,3.131-3.131A3.134,3.134,0,0,1,318.523,386.495Z" transform="translate(-21.72 -23.82)" fill="#f5f5f5"/>
    <path id="Path_45629" data-name="Path 45629" d="M308.368,354.487l-1.4-2.428a2.52,2.52,0,0,0-3.229-1.041l-1.306.589a9.7,9.7,0,0,0-1.567-.9l-.143-1.425A2.52,2.52,0,0,0,298.206,347h-2.8a2.521,2.521,0,0,0-2.516,2.277l-.142,1.425a9.706,9.706,0,0,0-1.567.9l-1.306-.589a2.521,2.521,0,0,0-3.229,1.041l-1.4,2.429a2.52,2.52,0,0,0,.714,3.317l1.164.836c-.028.3-.042.6-.042.9s.014.6.042.9l-1.164.836a2.521,2.521,0,0,0-.714,3.318l1.4,2.428a2.522,2.522,0,0,0,3.23,1.041l1.305-.589a9.707,9.707,0,0,0,1.567.905l.143,1.425a2.521,2.521,0,0,0,2.516,2.277h2.8a2.521,2.521,0,0,0,2.516-2.277l.143-1.425a9.7,9.7,0,0,0,1.567-.905l1.306.589a2.521,2.521,0,0,0,3.229-1.041l1.4-2.429a2.52,2.52,0,0,0-.714-3.317l-1.164-.836c.028-.3.042-.6.042-.9s-.014-.6-.042-.9l1.164-.836a2.521,2.521,0,0,0,.714-3.318Zm-1.979,1.558-1.513,1.087a1.438,1.438,0,0,0-.584,1.369,7.486,7.486,0,0,1,0,2.086,1.438,1.438,0,0,0,.585,1.371l1.512,1.086h0a.359.359,0,0,1,.1.474l-1.4,2.429a.36.36,0,0,1-.461.148l-1.7-.766a1.44,1.44,0,0,0-1.48.18,7.547,7.547,0,0,1-1.807,1.044,1.441,1.441,0,0,0-.894,1.191l-.185,1.851a.36.36,0,0,1-.36.325h-2.8a.36.36,0,0,1-.359-.325l-.185-1.852a1.441,1.441,0,0,0-.9-1.191,7.545,7.545,0,0,1-1.806-1.044,1.436,1.436,0,0,0-1.48-.18l-1.7.766a.36.36,0,0,1-.461-.149l-1.4-2.429a.361.361,0,0,1,.1-.474l1.513-1.087a1.438,1.438,0,0,0,.584-1.369,7.628,7.628,0,0,1-.073-1.044,7.538,7.538,0,0,1,.073-1.043,1.44,1.44,0,0,0-.585-1.371l-1.512-1.087a.359.359,0,0,1-.1-.474l1.4-2.429a.36.36,0,0,1,.461-.148l1.694.764a1.437,1.437,0,0,0,1.482-.178,7.545,7.545,0,0,1,1.807-1.044,1.441,1.441,0,0,0,.894-1.191l.185-1.851a.36.36,0,0,1,.36-.325h2.8a.36.36,0,0,1,.359.325l.185,1.852a1.441,1.441,0,0,0,.9,1.191,7.537,7.537,0,0,1,1.806,1.044,1.439,1.439,0,0,0,1.48.179l1.7-.766a.36.36,0,0,1,.462.149l1.4,2.429a.362.362,0,0,1-.1.475Z" fill="#f5f5f5"/>
  </g>
</svg>
