<svg xmlns="http://www.w3.org/2000/svg" width="26.179" height="27" viewBox="0 0 26.179 27">
  <g id="Group_40657" data-name="Group 40657" transform="translate(-1839.575 -319)">
    <path id="Stroke_1" data-name="Stroke 1" d="M17.591,9.381a1.293,1.293,0,0,1,1.336,1.437A9.523,9.523,0,0,1,0,9.319,9.906,9.906,0,0,1,7,.039,1.275,1.275,0,0,1,8.608,1.223c0,5.553.187,6.99,1.241,7.771S12.144,9.381,17.591,9.381Z" transform="translate(1840.575 326.161)" fill="none" stroke="#fff" stroke-linecap="round" stroke-linejoin="round" stroke-width="2"/>
    <path id="Stroke_3" data-name="Stroke 3" d="M10.475,9.221C10.538,5.653,6.155-.1.814,0A.8.8,0,0,0,.048.769C-.087,3.7.095,7.5.2,9.227a1.046,1.046,0,0,0,.988.989,47.736,47.736,0,0,0,8.6-.2A.816.816,0,0,0,10.475,9.221Z" transform="translate(1854.279 320)" fill="none" stroke="#fff" stroke-linecap="round" stroke-linejoin="round" stroke-width="2"/>
  </g>
</svg>
