<svg xmlns="http://www.w3.org/2000/svg" width="19.532" height="22.91" viewBox="0 0 19.532 22.91">
  <g id="Group_40963" data-name="Group 40963" transform="translate(0.879 0.75)">
    <g id="Setting">
      <path id="Path_33946" data-name="Path 33946" d="M993.266,643.1a1.9,1.9,0,0,0-.682-2.6h0l-.017-.01h0a1.9,1.9,0,0,1-.711-2.592h0l.01-.017a1.866,1.866,0,0,1,.7-.7h0a1.915,1.915,0,0,0,.7-2.6h0l0-.007-.622-1.08a1.912,1.912,0,0,0-2.609-.7h0a1.9,1.9,0,0,1-2.6-.667l-.006-.01a1.821,1.821,0,0,1-.256-.915h0a1.914,1.914,0,0,0-1.851-1.974H984a1.9,1.9,0,0,0-1.9,1.9h0v.014h0a1.914,1.914,0,0,1-1.917,1.887,1.842,1.842,0,0,1-.915-.256h0a1.912,1.912,0,0,0-2.609.7l-.668,1.1a1.912,1.912,0,0,0,.7,2.609h0a1.913,1.913,0,0,1,0,3.314h0a1.9,1.9,0,0,0-.7,2.593v.007h0" transform="translate(-975.738 -629.224)" fill="none" stroke="#fff" stroke-linecap="round" stroke-linejoin="round" stroke-width="1.5"/>
      <circle id="Ellipse_737" data-name="Ellipse 737" cx="3.498" cy="3.498" r="3.498" transform="translate(5.394 6.115)" fill="none" stroke="#fff" stroke-linecap="round" stroke-linejoin="round" stroke-width="1.5"/>
    </g>
    <path id="Stroke_5" data-name="Stroke 5" d="M984.632,645.757c-3.214,0-5.959.487-5.959,2.432s2.728,2.445,5.959,2.445c3.214,0,5.958-.482,5.958-2.428S987.863,645.757,984.632,645.757Z" transform="translate(-975.738 -629.224)" fill="none" stroke="#fff" stroke-linecap="round" stroke-linejoin="round" stroke-width="1.5"/>
  </g>
</svg>
