<svg xmlns="http://www.w3.org/2000/svg" width="28.234" height="28.199" viewBox="0 0 28.234 28.199">
  <g id="Group_40614" data-name="Group 40614" transform="translate(-1840 -439)">
    <path id="Path_112" data-name="Path 112" d="M277.27,282.54a5.27,5.27,0,1,1,5.27-5.27A5.276,5.276,0,0,1,277.27,282.54Z" transform="translate(1584.659 183.658)" fill="none" stroke="#fff" stroke-width="2"/>
    <path id="Path_45608" data-name="Path 45608" d="M279.667,10.575h-4.759A2.911,2.911,0,0,1,272,7.667V2.908A2.911,2.911,0,0,1,274.908,0h4.759a2.911,2.911,0,0,1,2.908,2.908V7.667A2.911,2.911,0,0,1,279.667,10.575Z" transform="translate(1569 455.624)" fill="none" stroke="#fff" stroke-width="2"/>
    <path id="Path_45609" data-name="Path 45609" d="M279.667,10.575h-4.759A2.911,2.911,0,0,1,272,7.667V2.908A2.911,2.911,0,0,1,274.908,0h4.759a2.911,2.911,0,0,1,2.908,2.908V7.667A2.911,2.911,0,0,1,279.667,10.575Z" transform="translate(1569 440)" fill="none" stroke="#fff" stroke-width="2"/>
    <path id="Path_45610" data-name="Path 45610" d="M279.667,10.575h-4.759A2.911,2.911,0,0,1,272,7.667V2.908A2.911,2.911,0,0,1,274.908,0h4.759a2.911,2.911,0,0,1,2.908,2.908V7.667A2.911,2.911,0,0,1,279.667,10.575Z" transform="translate(1584.659 440)" fill="none" stroke="#fff" stroke-width="2"/>
  </g>
</svg>
