<svg xmlns="http://www.w3.org/2000/svg" width="21.862" height="20.845" viewBox="0 0 21.862 20.845">
  <g id="_2_User" data-name="2 User" transform="translate(-1.999 -2.5)">
    <path id="Stroke_1" data-name="Stroke 1" d="M7.539,0c4.065,0,7.539.616,7.539,3.076S11.626,6.17,7.539,6.17C3.473,6.17,0,5.56,0,3.1S3.45,0,7.539,0Z" transform="translate(2.75 16.424)" fill="none" stroke="#fff" stroke-linecap="round" stroke-linejoin="round" stroke-width="1.5"/>
    <path id="Stroke_3" data-name="Stroke 3" d="M4.833,9.663a4.814,4.814,0,1,1,.034,0Z" transform="translate(5.456 3.25)" fill="none" stroke="#fff" stroke-linecap="round" stroke-linejoin="round" stroke-width="1.5"/>
    <path id="Stroke_5" data-name="Stroke 5" d="M0,7.182A3.637,3.637,0,0,0,3.126,3.588,3.637,3.637,0,0,0,.083,0" transform="translate(17.881 4.477)" fill="none" stroke="#fff" stroke-linecap="round" stroke-linejoin="round" stroke-width="1.5"/>
    <path id="Stroke_7" data-name="Stroke 7" d="M0,0C1.709.255,2.9.854,2.9,2.088c0,.85-.562,1.4-1.47,1.745" transform="translate(20.209 15.901)" fill="none" stroke="#fff" stroke-linecap="round" stroke-linejoin="round" stroke-width="1.5"/>
  </g>
</svg>
