<svg xmlns="http://www.w3.org/2000/svg" width="26.999" height="27" viewBox="0 0 26.999 27">
  <g id="Group_40626" data-name="Group 40626" transform="translate(-105 -34.988)">
    <path id="Path_45611" data-name="Path 45611" d="M403.716,229.932h2.432a1.216,1.216,0,0,0,0-2.432h-2.432a1.216,1.216,0,1,0,0,2.432Z" transform="translate(-281.821 -182.118)" fill="#f5f5f5" fill-rule="evenodd"/>
    <path id="Path_45612" data-name="Path 45612" d="M403.716,159.932h2.432a1.216,1.216,0,0,0,0-2.432h-2.432a1.216,1.216,0,1,0,0,2.432Z" transform="translate(-281.821 -115.897)" fill="#f5f5f5" fill-rule="evenodd"/>
    <path id="Path_45613" data-name="Path 45613" d="M403.716,299.932h2.432a1.216,1.216,0,0,0,0-2.432h-2.432a1.216,1.216,0,1,0,0,2.432Z" transform="translate(-281.821 -248.338)" fill="#f5f5f5" fill-rule="evenodd"/>
    <path id="Path_45614" data-name="Path 45614" d="M228.716,299.932h2.432a1.216,1.216,0,1,0,0-2.432h-2.432a1.216,1.216,0,1,0,0,2.432Z" transform="translate(-116.044 -248.338)" fill="#f5f5f5" fill-rule="evenodd"/>
    <path id="Path_45615" data-name="Path 45615" d="M403.716,369.932h2.432a1.216,1.216,0,0,0,0-2.432h-2.432a1.216,1.216,0,1,0,0,2.432Z" transform="translate(-281.821 -314.559)" fill="#f5f5f5" fill-rule="evenodd"/>
    <path id="Path_45616" data-name="Path 45616" d="M228.716,369.932h2.432a1.216,1.216,0,1,0,0-2.432h-2.432a1.216,1.216,0,1,0,0,2.432Z" transform="translate(-116.044 -314.559)" fill="#f5f5f5" fill-rule="evenodd"/>
    <path id="Path_45617" data-name="Path 45617" d="M131.035,60.059h-1.928V40.085a.963.963,0,0,0-.584-.886l-9.643-4.133a.964.964,0,0,0-1.344.886V41.1l-9.058,3.882a.963.963,0,0,0-.584.886V60.059h-1.929a.964.964,0,1,0,0,1.928h25.071a.964.964,0,1,0,0-1.928ZM119.464,37.416l7.714,3.305V60.059h-2.893V59.1a.964.964,0,0,0-1.929,0v.964h-2.893V41.738h0Zm-9.643,9.091,7.714-3.305V60.059h-2.893V59.1a.964.964,0,0,0-1.929,0v.964h-2.893Z" transform="translate(0)" fill="#f5f5f5" fill-rule="evenodd"/>
    <path id="Path_45618" data-name="Path 45618" d="M367.5,157.491h0Z" transform="translate(-248.036 -115.753)" fill="#f5f5f5" fill-rule="evenodd"/>
  </g>
</svg>
