<svg id="svgexport-5_19_" data-name="svgexport-5(19)" xmlns="http://www.w3.org/2000/svg" width="22.234" height="22.202" viewBox="0 0 22.234 22.202">
  <g id="Group_50" data-name="Group 50">
    <path id="Path_112" data-name="Path 112" d="M276.835,281.67a4.835,4.835,0,1,1,4.835-4.835A4.841,4.841,0,0,1,276.835,281.67Z" transform="translate(-259.469 -259.469)" fill="#fff"/>
    <path id="Path_45608" data-name="Path 45608" d="M279.034,9.7h-4.366A2.671,2.671,0,0,1,272,7.034V2.668A2.671,2.671,0,0,1,274.668,0h4.366A2.671,2.671,0,0,1,281.7,2.668V7.034A2.671,2.671,0,0,1,279.034,9.7Z" transform="translate(-272 12.5)" fill="#fff"/>
    <path id="Path_45609" data-name="Path 45609" d="M279.034,9.7h-4.366A2.671,2.671,0,0,1,272,7.034V2.668A2.671,2.671,0,0,1,274.668,0h4.366A2.671,2.671,0,0,1,281.7,2.668V7.034A2.671,2.671,0,0,1,279.034,9.7Z" transform="translate(-272)" fill="#fff"/>
    <path id="Path_45610" data-name="Path 45610" d="M279.034,9.7h-4.366A2.671,2.671,0,0,1,272,7.034V2.668A2.671,2.671,0,0,1,274.668,0h4.366A2.671,2.671,0,0,1,281.7,2.668V7.034A2.671,2.671,0,0,1,279.034,9.7Z" transform="translate(-259.469)" fill="#fff"/>
  </g>
</svg>
