<svg xmlns="http://www.w3.org/2000/svg" width="23.379" height="27.506" viewBox="0 0 23.379 27.506">
  <g id="Group_41102" data-name="Group 41102" transform="translate(-1182.821 -761.539)">
    <g id="Document" transform="translate(1182.821 768.531)">
      <path id="Document-2" d="M1196.347,793.924h-8.589c-3.133,0-4.929-1.808-4.929-4.961V778.377a5.034,5.034,0,0,1,1.3-3.648,4.984,4.984,0,0,1,3.633-1.3h8.589c3.132,0,4.928,1.8,4.928,4.95v10.586a5.012,5.012,0,0,1-1.276,3.671A4.943,4.943,0,0,1,1196.347,793.924Zm-8.394-6.42a.8.8,0,0,0-.687.384.818.818,0,0,0,0,.86.806.806,0,0,0,.669.375.759.759,0,0,0,.1-.006h8.034a.81.81,0,0,0,0-1.609h-8.037A.745.745,0,0,0,1187.952,787.5Zm.082-4.67a.8.8,0,0,0,0,1.6h8.035a.8.8,0,0,0,0-1.6Zm0-4.642v.011h0a.8.8,0,0,0,0,1.6h3.064a.8.8,0,0,0,0-1.609Z" transform="translate(-1182.821 -773.42)" fill="#fff"/>
    </g>
    <path id="Path_45396" data-name="Path 45396" d="M1209.038,774.215a2.369,2.369,0,0,0-.849-.809,1.608,1.608,0,0,1-.65-.656,1.814,1.814,0,0,1-.205-1.395,1.876,1.876,0,0,1,.875-1.167l.079-.047a2.077,2.077,0,0,0,.7-2.854l-.7-1.209a2.164,2.164,0,0,0-2.943-.779,1.969,1.969,0,0,1-.922.23,2.01,2.01,0,0,1-1.713-.936,1.565,1.565,0,0,1-.241-.9,1.82,1.82,0,0,0-.283-1.086,2.207,2.207,0,0,0-1.865-1.066h-1.476a2.26,2.26,0,0,0-1.854,1.066,1.843,1.843,0,0,0-.293,1.086,1.573,1.573,0,0,1-.241.9,2.009,2.009,0,0,1-1.706.937,1.937,1.937,0,0,1-.922-.23,2.177,2.177,0,0,0-2.954.779l-.4.672a.5.5,0,0,0,.433.763h8.562c3.672,0,5.953,2.29,5.953,5.975v3.934a1.164,1.164,0,0,0,1.3,1.165,2.138,2.138,0,0,0,1.568-1.041l.733-1.23A2.049,2.049,0,0,0,1209.038,774.215Z" transform="translate(-3.117)" fill="#fff"/>
  </g>
</svg>
