<svg xmlns="http://www.w3.org/2000/svg" width="23.867" height="19.801" viewBox="0 0 23.867 19.801">
  <path id="Path_67400" data-name="Path 67400" d="M-124,227.295h-.523v-10.94h0a.625.625,0,0,0-.628-.626h-1.485v-1.686a.628.628,0,0,0-.628-.628h-1.546v-4.037a.628.628,0,0,0-.628-.628h-11.738a.625.625,0,0,0-.626.628v4.037h-1.546a.628.628,0,0,0-.628.628v1.686h-1.486a.627.627,0,0,0-.628.627v10.94h-.522a.628.628,0,0,0-.628.627.628.628,0,0,0,.628.628H-124a.628.628,0,0,0,.627-.628A.627.627,0,0,0-124,227.295Zm-8.584-16.213h.952a.626.626,0,0,1,.625.628.627.627,0,0,1-.625.626h-.949a.628.628,0,0,1-.629-.626A.627.627,0,0,1-132.581,211.082Zm-3.2,0h.952a.626.626,0,0,1,.625.628.627.627,0,0,1-.625.626h-.95a.628.628,0,0,1-.628-.626A.627.627,0,0,1-135.781,211.082Zm-3.2,0h.95a.626.626,0,0,1,.625.628.627.627,0,0,1-.625.626h-.95a.627.627,0,0,1-.626-.628A.626.626,0,0,1-138.978,211.082Zm-3.74,3.579h14.836v1.063l-14.836,0Zm8.471,4.372a.628.628,0,0,1-.628.628h-.849a.628.628,0,0,1-.627-.628.627.627,0,0,1,.627-.627h.849A.628.628,0,0,1-134.247,219.033Zm-2.713,0a.628.628,0,0,1-.627.628h-.849a.628.628,0,0,1-.628-.628.628.628,0,0,1,.628-.627h.849A.627.627,0,0,1-136.96,219.033Zm-4.351,8.26h-3.525V216.98h3.53Zm3.724-5.3h-.849a.628.628,0,0,1-.628-.628.628.628,0,0,1,.628-.627h.849a.627.627,0,0,1,.627.627A.628.628,0,0,1-137.587,221.993Zm1.66,5.3h-1.147v-2.367h1.147Zm.2-5.3a.628.628,0,0,1-.627-.628.627.627,0,0,1,.627-.627h.849a.628.628,0,0,1,.628.627.628.628,0,0,1-.628.628Zm2.2,5.3h-1.147v-2.367h1.147Zm1.364-5.3h-.849a.628.628,0,0,1-.628-.628.628.628,0,0,1,.628-.627h.849a.627.627,0,0,1,.627.627A.628.628,0,0,1-132.161,221.993Zm0-2.332h-.849a.628.628,0,0,1-.628-.628.628.628,0,0,1,.628-.627h.849a.627.627,0,0,1,.627.627A.628.628,0,0,1-132.161,219.661Zm6.393,7.633h-3.524V216.98h3.524Z" transform="translate(147.237 -208.749)" fill="#fff"/>
</svg>
