<svg xmlns="http://www.w3.org/2000/svg" width="25.924" height="26.926" viewBox="0 0 25.924 26.926">
  <g id="Group_40960" data-name="Group 40960" transform="translate(-1803.034 -726.074)">
    <path id="Path_45607" data-name="Path 45607" d="M-353.661,321.539c-.05,0-.1,0-.153,0a2.023,2.023,0,0,1-1.846-1.34,2.089,2.089,0,0,1,1.115-2.7.23.23,0,0,0,.052-.037c.009-.443.008-.889.007-1.322q0-.1,0-.2l-.479-.05c-.483-.049-.939-.1-1.4-.179a12.979,12.979,0,0,1-2.847-.8,7.468,7.468,0,0,1-2.48-1.68.547.547,0,0,0-.135-.046l-.028-.007h-.008l-.038,0-.064,0a.482.482,0,0,1-.063,0,1.442,1.442,0,0,0-.187-.014c-.232,0-.415.068-.612.408a1.851,1.851,0,0,1-1.669.938,2.527,2.527,0,0,1-.507-.053,2.076,2.076,0,0,1-1.624-1.763,2.074,2.074,0,0,1,1.578-2.354,1.867,1.867,0,0,1,.512-.071,2.132,2.132,0,0,1,1.917,1.266c.032.073.035.073.1.073h.01c.209,0,.414-.006.611-.006.228,0,.454,0,.67.008a.54.54,0,0,1,.41.191,5.554,5.554,0,0,0,2.916,1.921,12.692,12.692,0,0,0,4.091.654c.113,0,.227,0,.341,0a11.447,11.447,0,0,0,5.449-1.3,4.31,4.31,0,0,0,1.445-1.252.579.579,0,0,1,.42-.211c.2-.006.409-.009.654-.009.219,0,.439,0,.651,0h.005a.192.192,0,0,0,.042,0,.2.2,0,0,0,.025-.045,2.065,2.065,0,0,1,1.941-1.28,2.466,2.466,0,0,1,.247.013,2.119,2.119,0,0,1,1.78,1.507,2.083,2.083,0,0,1-.281,1.776,2.063,2.063,0,0,1-1.533.906c-.075.006-.151.01-.224.01a2.024,2.024,0,0,1-1.914-1.245c-.026-.057-.03-.065-.113-.074s-.139-.011-.2-.011a1.409,1.409,0,0,0-1.062.469,7.417,7.417,0,0,1-3,1.628,14.191,14.191,0,0,1-3.761.664q0,.1,0,.2c0,.443,0,.9.007,1.35a.293.293,0,0,0,.047.029,2.162,2.162,0,0,1,1.186,1.337,2.1,2.1,0,0,1-.246,1.722A1.973,1.973,0,0,1-353.661,321.539Zm-.052-2.654a.547.547,0,0,0-.531.556.549.549,0,0,0,.549.53h.008a.547.547,0,0,0,.54-.547.547.547,0,0,0-.549-.539Zm10.878-7.062a.552.552,0,0,0-.551.542.55.55,0,0,0,.156.394.524.524,0,0,0,.371.158h.007a.528.528,0,0,0,.554-.543.551.551,0,0,0-.162-.389.525.525,0,0,0-.373-.162v0Zm-21.719,0a.579.579,0,0,0-.548.562.5.5,0,0,0,.151.361.564.564,0,0,0,.4.173h0a.533.533,0,0,0,.55-.533.565.565,0,0,0-.164-.4.528.528,0,0,0-.376-.163Z" transform="translate(2169.684 431.461)" fill="#fff"/>
    <path id="Stroke_5" data-name="Stroke 5" d="M984.632,645.757c-3.214,0-5.959.487-5.959,2.432s2.728,2.445,5.959,2.445c3.214,0,5.958-.482,5.958-2.428S987.863,645.757,984.632,645.757Z" transform="translate(831.364 91.486)" fill="none" stroke="#fff" stroke-linecap="round" stroke-linejoin="round" stroke-width="1.5"/>
    <circle id="Ellipse_737" data-name="Ellipse 737" cx="3.498" cy="3.498" r="3.498" transform="translate(1812.495 726.824)" fill="none" stroke="#fff" stroke-linecap="round" stroke-linejoin="round" stroke-width="1.5"/>
  </g>
</svg>
