<svg xmlns="http://www.w3.org/2000/svg" width="21.226" height="21.228" viewBox="0 0 21.226 21.228">
  <g id="Group_41225" data-name="Group 41225" transform="translate(-472.123 -221.175)">
    <path id="Path_45613" data-name="Path 45613" d="M480.639,222.393h-7.6a5.691,5.691,0,0,0-5.691,5.691v7.782a5.692,5.692,0,0,0,5.691,5.692h.591a4.36,4.36,0,0,0,3.051-1.245s1.038-1.027,1.04-1.79a5.718,5.718,0,0,1,5.711-5.711l.155,0a1.666,1.666,0,0,0,1.227-.468l.474-.464a3.4,3.4,0,0,0,1.019-2.373l.023-1.425A5.691,5.691,0,0,0,480.639,222.393ZM478.1,233.188h-7a.936.936,0,0,1,0-1.871h7a.936.936,0,0,1,0,1.871Zm3.486-4.19H471.066a.936.936,0,1,1,0-1.871h10.525a.936.936,0,0,1,0,1.871Z" transform="translate(4.775 -1.217)" fill="#fff"/>
    <path id="Path_45614" data-name="Path 45614" d="M496.789,247.25a4.683,4.683,0,1,0,4.684,4.683A4.683,4.683,0,0,0,496.789,247.25Zm.4,6.707a.48.48,0,0,1-.961,0v-2.24a.48.48,0,0,1,.961,0Zm-.5-3.331a.67.67,0,1,1,.67-.67A.671.671,0,0,1,496.688,250.625Z" transform="translate(-8.124 -14.213)" fill="#fff"/>
  </g>
</svg>
