<svg xmlns="http://www.w3.org/2000/svg" width="20" height="20" viewBox="0 0 20 20">
  <g id="Work" transform="translate(-2 -2)">
    <path id="Work-2" data-name="Work" d="M5.972,22a3.829,3.829,0,0,1-3.8-3.848L2.1,12.987a.212.212,0,0,1,.09-.172.129.129,0,0,1,.072-.02.207.207,0,0,1,.119.04,17.058,17.058,0,0,0,7,2.633.722.722,0,0,0,.1.007.752.752,0,0,0,.722-.554,1.824,1.824,0,0,1,1.781-1.378h.03A1.825,1.825,0,0,1,13.8,14.922a.752.752,0,0,0,.722.554.72.72,0,0,0,.1-.007,17.072,17.072,0,0,0,7-2.633l.04-.021a.183.183,0,0,1,.08-.019.132.132,0,0,1,.07.019.212.212,0,0,1,.09.172l-.08,5.165A3.829,3.829,0,0,1,18.018,22Zm5.272-6.248v1.307a.755.755,0,0,0,.751.759.746.746,0,0,0,.751-.759V15.752a.756.756,0,0,0-.751-.76A.766.766,0,0,0,11.245,15.752Zm3.6-2.078A3.3,3.3,0,0,0,12,12.025a3.358,3.358,0,0,0-2.873,1.642.327.327,0,0,1-.276.166.286.286,0,0,1-.056-.005,15.54,15.54,0,0,1-5.62-2.268l-.96-.669a.283.283,0,0,1-.131-.243C2.051,10.14,2,8.487,2,8.471A3.84,3.84,0,0,1,5.812,4.613H7.783A2.976,2.976,0,0,1,10.7,2h2.581a2.976,2.976,0,0,1,2.921,2.613h1.981A3.839,3.839,0,0,1,22,8.471c0,.009-.059.913-.079,2.154a.33.33,0,0,1-.13.256c-.484.357-.922.65-.961.67a15.351,15.351,0,0,1-5.647,2.287.312.312,0,0,1-.058.005A.323.323,0,0,1,14.848,13.674ZM9.3,4.613h5.383a1.448,1.448,0,0,0-1.4-1.094H10.7A1.449,1.449,0,0,0,9.3,4.613Z" fill="#fff"/>
  </g>
</svg>
