<svg xmlns="http://www.w3.org/2000/svg" width="24.74" height="27.239" viewBox="0 0 24.74 27.239">
  <g id="Group_40625" data-name="Group 40625" transform="translate(-118.33 -24.849)">
    <path id="Path_45607" data-name="Path 45607" d="M400.259,296.144a1.924,1.924,0,0,1-1.924-1.924V292.2A3.945,3.945,0,0,1,400,288.989a4.617,4.617,0,1,1,7.253,0,3.944,3.944,0,0,1,1.664,3.211v2.021a1.924,1.924,0,0,1-1.924,1.924Zm6.156-2.5V292.2a1.442,1.442,0,0,0-1.443-1.443h-2.693a1.442,1.442,0,0,0-1.443,1.443v1.443Zm-2.789-9.618a2.116,2.116,0,1,0,1.5.62A2.1,2.1,0,0,0,403.625,284.025Z" transform="translate(-265.845 -244.056)" fill="#fff"/>
    <path id="Path_45608" data-name="Path 45608" d="M120.254,39.477a1.911,1.911,0,0,1-1.36-.563,1.937,1.937,0,0,1-.564-1.36v-2.02a3.946,3.946,0,0,1,1.664-3.212,4.617,4.617,0,1,1,7.253,0,3.946,3.946,0,0,1,1.664,3.211v2.021a1.924,1.924,0,0,1-1.924,1.924Zm6.156-2.5V35.534a1.442,1.442,0,0,0-1.443-1.443h-2.693a1.442,1.442,0,0,0-1.443,1.443v1.443Zm-2.789-9.618a2.116,2.116,0,1,0,1.5.62A2.1,2.1,0,0,0,123.62,27.358Z" fill="#fff"/>
    <path id="Path_45609" data-name="Path 45609" d="M335.357,79.636a.936.936,0,0,1-.667-.276l-2.033-2.033a.946.946,0,0,1,.011-1.32.941.941,0,0,1,1.32-.012l.426.426V74.639a1.086,1.086,0,0,0-1.086-1.086h-4.055a.941.941,0,1,1,0-1.883h4.055a2.972,2.972,0,0,1,2.969,2.969v1.784l.427-.427a.941.941,0,0,1,1.32.011.919.919,0,0,1,.3.685.956.956,0,0,1-.3.645l-2.022,2.022A.935.935,0,0,1,335.357,79.636Z" transform="translate(-197.24 -44.812)" fill="#fff"/>
    <path id="Path_78491" data-name="Path 78491" d="M335.357,79.636a.936.936,0,0,1-.667-.276l-2.033-2.033a.946.946,0,0,1,.011-1.32.941.941,0,0,1,1.32-.012l.426.426V74.639a1.086,1.086,0,0,0-1.086-1.086h-4.055a.941.941,0,1,1,0-1.883h4.055a2.972,2.972,0,0,1,2.969,2.969v1.784l.427-.427a.941.941,0,0,1,1.32.011.919.919,0,0,1,.3.685.956.956,0,0,1-.3.645l-2.022,2.022A.935.935,0,0,1,335.357,79.636Z" transform="translate(458.434 121.494) rotate(180)" fill="#fff"/>
  </g>
</svg>
