<svg id="Instagram" xmlns="http://www.w3.org/2000/svg" xmlns:xlink="http://www.w3.org/1999/xlink" width="28.344" height="28.344" viewBox="0 0 28.344 28.344">
  <defs>
    <linearGradient id="linear-gradient" x1="0.503" x2="0.5" y2="1" gradientUnits="objectBoundingBox">
      <stop offset="0" stop-color="#7024c4"/>
      <stop offset="0.415" stop-color="#c21975"/>
      <stop offset="0.702" stop-color="#c74c4d"/>
      <stop offset="1" stop-color="#e09b3d"/>
    </linearGradient>
  </defs>
  <circle id="Oval" cx="14.172" cy="14.172" r="14.172" fill="url(#linear-gradient)"/>
  <path id="Instagram-2" data-name="Instagram" d="M8.675,12.355H3.681A3.685,3.685,0,0,1,0,8.675V3.681A3.685,3.685,0,0,1,3.681,0H8.675a3.685,3.685,0,0,1,3.681,3.681V8.675A3.685,3.685,0,0,1,8.675,12.355ZM3.681,1.243A2.441,2.441,0,0,0,1.243,3.681V8.675a2.44,2.44,0,0,0,2.438,2.438H8.675a2.44,2.44,0,0,0,2.438-2.438V3.681A2.44,2.44,0,0,0,8.675,1.243Zm2.5,8.13a3.2,3.2,0,1,1,3.2-3.2A3.2,3.2,0,0,1,6.178,9.373Zm0-5.148A1.952,1.952,0,1,0,8.13,6.178,1.955,1.955,0,0,0,6.178,4.225Zm3.2-.453a.766.766,0,1,1,.766-.766A.766.766,0,0,1,9.379,3.772Z" transform="translate(7.995 7.995)" fill="#fff"/>
</svg>
