<svg xmlns="http://www.w3.org/2000/svg" xmlns:xlink="http://www.w3.org/1999/xlink" width="960" height="400" viewBox="0 0 960 400">
  <defs>
    <clipPath id="clip-path">
      <rect id="Rectangle_17470" data-name="Rectangle 17470" width="960" height="400" transform="translate(980 1)" fill="none"/>
    </clipPath>
  </defs>
  <g id="Group_21569" data-name="Group 21569" transform="translate(-980 -1)" clip-path="url(#clip-path)">
    <g id="Mask_Group_8" data-name="Mask Group 8" transform="translate(1181.559 207.139)">
      <path id="Path_151149" data-name="Path 151149" d="M-389.49,613.367c15.594.068,31.387.283,46.705.493q7.988.11,15.973.215c16.795.21,33.566.218,49.847.018l-.107-1.258c-6.092-.535-12.574-1.1-18.949-1.591-36.808-2.829-72.8-5.512-108.28-7.268l1.871-6.525q6.1.368,12.193.721c18.04,1.032,36.421,2.646,54.2,4.206,25.538,2.243,51.947,4.562,77.822,5.2l4.837.122c43.941,1.086,75.688,1.868,113.145-2.85,2.446-.311,5.075-.665,8.039-1.086l-.308-1.255c-11.972.11-24.182.056-35.99,0-8.142-.036-16.561-.072-24.833-.058a1062.282,1062.282,0,0,1-125.047-7.268c-29.493-3.451-55.621-7.531-79.83-12.464l2.006-7c19.308,4.037,39.088,7.408,58.808,10.023a1094.419,1094.419,0,0,0,125.457,9.638c41.979.673,81.631,1.312,122.607-1.711,22.543-1.662,37.448-2.923,56.355-5.2,10.479-1.259,20.236-2.934,29.673-4.553,4.279-.735,8.318-1.428,12.4-2.08l.055-.011c5.7-1.312,10.912-2.532,15.933-3.736,48.39-11.6,94.363-24.956,136.642-39.709l.387-.136.007-.218c41.79-15.9,78.731-51.014,108.422-79.243,14.861-14.129,30.714-27.949,46.047-41.313q4.691-4.091,9.374-8.182c17.228-15.074,37.8-32.735,59.748-49.449,4.77-3.631,10.024-7.477,16.063-11.76l-1-1.034c-32.093,18.132-64.2,37.158-95.253,55.558q-10.431,6.182-20.868,12.355c-73.075,43.2-139.684,81.36-214.9,110.873a863.9,863.9,0,0,1-110.869,35.34,714.616,714.616,0,0,1-118.436,18.686,677.619,677.619,0,0,1-116.21-2.128,814.212,814.212,0,0,1-115.107-20.594l2.865-9.992c10.006,2.552,19.17,4.712,27.994,6.606,21.092,4.53,40.494,8.063,59.319,10.8l.231-1.211c-28.468-8.727-55.345-20.716-82.643-33.287l2.955-10.305c11.552,5.281,21.117,9.535,30.039,13.364,16.555,7.107,37.16,15.949,57.728,21.846q1.373.394,2.752.774a363,363,0,0,0,62.065,11.227,518.164,518.164,0,0,0,101.381-.795A744.414,744.414,0,0,0,7.79,536.734c50.451-16.012,102.336-37.915,158.622-66.963l-.8-1.137q-.969.324-1.933.653c-1.244.42-2.528.857-3.8,1.262-4.763,1.514-9.874,3.027-16.08,4.759-2.11.617-4.271,1.214-6.438,1.779l-.924.241q-1.4.359-2.8.7c-48.687,12.455-103.3,18.645-166.959,18.92-37.42.162-92.339,1.548-137.049,11.7-3.236.735-6.412,1.343-9.706,1.858a418.438,418.438,0,0,1-52.62,6.582,119.575,119.575,0,0,1-18.87.686l-.062,0c-28.462.42-58.666-1.832-92.331-6.883-10.271-1.54-21.068-3.35-32.108-5.377l2.127-7.42c7.311,1.185,14.9,2.359,23.98,3.742,41.639,6.359,75.975,8.423,108.064,6.5a458.744,458.744,0,0,0,93.251-15C-85.1,475.956-27.821,446.314,19.82,419.61c8.629-4.838,17.326-9.866,25.737-14.727,7.681-4.44,15.622-9.034,23.5-13.471l-.815-1.129C45.579,397.6,22.2,404.051-1.248,409.449c-74.993,17.26-156.289,25.622-241.639,24.851-36.448-.329-73.783-2.423-110.979-6.224l2.69-9.384c17.357,1.783,32.707,3.052,46.911,3.887a1196.97,1196.97,0,0,0,125.851.937c60.4-2.849,118.1-10.294,171.5-22.13l-.447-1.237a448.576,448.576,0,0,1-48.672,2.015,785.016,785.016,0,0,1-127.685-11.6c-29.5-5.272-59.244-12.18-88-18.855-12.958-3.01-26.361-6.121-39.568-9.044-8.086-1.789-15.434-3.366-22.433-4.817l2.263-7.892c9.936,2.041,20.515,4.34,34.177,7.432,10.317,2.335,20.8,4.791,30.941,7.164,32.4,7.588,65.9,15.435,99.239,20.585,46.855,7.236,86.986,10.012,122.69,8.483,41.3-1.769,97.971-8.05,133.158-20.377,4.277-1.5,8.333-2.8,12.057-3.881l.058-.019c25.237-9.6,49.982-20.309,73.9-30.669q8.355-3.615,16.7-7.24l-.715-1.169c-13.541,3.672-27.6,7-41.777,9.886C87.818,352.6,17.331,356.292-66.511,351.429c-37.372-2.166-75.4-5.943-112.181-9.6-38.188-3.795-77.676-7.715-116.49-9.841-10.136-.556-20.481-.989-30.761-1.289l2.194-7.652c3.5.081,6.618.167,9.52.263,44.959,1.441,90.776,5.824,135.086,10.06,25.152,2.4,51.161,4.891,76.736,6.814,80.065,6.02,157.313,3.28,229.594-8.147,30.792-4.868,55.848-11.742,82.377-19.019,6.1-1.675,12.4-3.4,18.739-5.093,10.644-2.839,25-8.366,34.878-12.277l-.634-1.194A722.621,722.621,0,0,1,190.6,304.3c-78.093,6.8-158.147,4.038-227.051.919-9.915-.448-20.006-.929-29.763-1.385-64.876-3.068-131.958-6.24-197.093-3.481-17.846.754-36.386,2.162-55.127,4.175l5.727-19.973c17.267-.714,34.871-1.146,51.893-1.568,17.3-.425,35.2-.867,52.746-1.6,41.5-1.737,83.686-5.082,125.387-9.94,108.764-12.673,223.476-35.3,350.692-69.178l-.535-1.222c-26.864,4.587-54.793,8.218-83.016,10.793-79.823,7.276-160.393,7.366-235.567,6.377-17.843-.235-36-.541-53.557-.839-61.078-1.032-124.237-2.1-185.929-.3q-1.2.035-2.4.075l-.392.01,2.624-9.152c16.133-.459,32.233-.69,47.353-.891,47.492-.629,95.952,0,142.816.617,31.582.412,64.239.837,96.314.874,70.38.082,153.476-1.351,236.173-12.606,34.536-4.7,71.017-11.252,118.286-21.245,40.216-8.5,82.714-20.742,120.22-31.546l.088-.018.036-.011C514.4,129.722,572,111.712,628.478,91.814c6.129-2.16,12.351-4.379,18.368-6.527l5.459-1.947-.636-1.194q-12.709,2.842-25.427,5.668-13.989,3.115-27.971,6.24c-9.964,2.231-20.034,4.582-29.772,6.856-27.219,6.356-55.369,12.928-83.968,17.536-67.689,10.906-140.454,16.148-222.449,16.025-86.54-.128-158.565-1.8-226.671-5.265q-8.878-.452-17.77-.92c-67.835-3.546-137.979-7.214-204.359,2.655A796.322,796.322,0,0,0-273.78,148.78l2.788-9.722a740.4,740.4,0,0,1,109.03-18.532c2.083-.2,4.284-.4,6.722-.611l-.182-1.254c-7.8-.59-14.469-1.019-21-1.361-33.287-1.731-58.982-1.714-88.351.075l2.325-8.108c47.125-2.928,94.91-.192,135.466,2.878,34.189,2.587,70.7,4.646,106,2.228,37.8-2.59,74.292-9.469,114.661-17.523,12-2.393,24.164-4.875,35.933-7.277C194.14,76.4,260.871,62.782,329.716,57.957c35.365-2.479,73.524-3.606,123.734-3.656,9.23-.01,18.63-.051,27.722-.092,31.6-.148,64.266-.3,96.393.959,35.553,1.391,77.643,2.546,120.236.567,1.741-.081,3.48-.178,5.218-.275L702.8,54.2c-21-.1-42.462-.716-63.217-1.316-15.757-.454-32.049-.925-47.987-1.164-61.547-.913-125.32-2.2-189.553-3.809-10.192-.255-20.581-.541-30.626-.815-52.829-1.449-107.458-2.945-160.446-1.042C86.654,50.521-35.041,62.879-150.741,82.791c-40.128,6.9-76.276,14.149-110.459,22.134l3.375-11.769c63.772-14.734,133.792-26.694,220.3-37.632C85.658,39.951,208.6,33.18,327.892,35.4c45.881.853,92.621,2.476,137.821,4.045,52.3,1.816,106.386,3.694,159.45,4.39l-.1-1.258q-7.4-.484-14.806-.974l-11.345-.747h-.028c-2.542-.008-4.805-.045-6.919-.109-10.288-.326-20.889-1.089-32.411-2.335l-2.35-.137c-1.287-.075-2.57-.151-3.854-.219-41.166-2.271-83.174-5.015-124.872-8.16C343.611,23.5,258.262,18.561,174.8,15.233,99.862,12.242,11.287,9.7-77.531,13.482c-61.86,2.633-115.252,9.168-163.174,19.968l2.615-9.12a786.283,786.283,0,0,1,84.8-13.241C-86.354,4.226-11.457,2.3,82.41,5.034c65.061,1.9,131.277,6.54,195.314,11.035,18.934,1.328,38.512,2.7,57.777,3.983,23.714,1.58,49.137,3.158,80.016,4.965l.034-1.248c-5.887-1.018-11.9-2.132-17.875-3.3C373.694,15.747,349.494,9.916,326.09,4.275c-10.47-2.524-21.3-5.132-31.963-7.608-75.039-17.412-141.5-28.633-203.187-34.3C12.028-44.875-62.312-40.652-130.013-25.076-163.375-17.4-197.237-6.485-233.491,8.275l5-17.45c21.043-6.935,40.8-12.584,60.373-17.274,11.14-2.67,19.655-4.653,27.62-6.441,6.786-1.518,27.772-5.33,40.763-7.3a689.407,689.407,0,0,1,146.45-9.518C93.631-47.8,143.407-41.9,203.37-31.136l.26-1.207c-11.865-3.592-23.824-7.52-35.39-11.315-5.824-1.913-11.844-3.888-17.8-5.806-9.238-2.971-18.549-5.806-27.675-8.423C57.812-76.512-5.2-86.271-64.507-86.895A537.772,537.772,0,0,0-211.494-68.424l2.175-7.586c14.416-3.89,29.077-7.162,43.586-9.724l-.386-1.25c-13.524.939-27.339,2.152-41.087,3.6l2.11-7.359c32.284-3.289,65.8-5.4,99.629-6.281,75.383-1.959,152.648.932,227.367,3.728,14.174.532,28.83,1.079,43.241,1.587,43,1.514,86.835,5.3,129.222,8.968,43.489,3.762,88.458,7.651,132.594,9.087,78.861,2.563,146.84-4.867,207.817-22.72,32.845-9.616,59.228-22.361,78.412-37.88,16.783-13.579,26.14-23.727,38.51-41.766l.03-.047a333.221,333.221,0,0,1,18.633-30.3l10.763,3.086a189.67,189.67,0,0,0-14.353,15.194l-.032.044c-1.044,1.539-2.127,3.156-3.311,4.949l1.261.8c6.51-5.92,14.357-12.661,23.207-17.76.342-.2.682-.392,1.03-.584.161-.089.324-.181.485-.273l10.471,3c-5.111,2.769-10.274,5.7-15.732,8.93l.9,1.093a205.77,205.77,0,0,1,21.617-8.078l13.747,3.943c-5.062,1.264-9.914,2.606-14.448,4-23.7,7.267-41.011,16.044-52.92,26.833l-.036.032-.028.039c-2.544,3.279-5.476,6.43-8.258,9.376-24.762,26.212-44.892,38.3-57.88,45.114C664.46-94.877,637.615-88.787,611.657-82.9q-3.506.795-7,1.591C542.078-66.991,471.147-63,381.438-68.753c-5.478-.351-11.465-.765-18.3-1.262l-.1,1.236c24.464,5.645,48.89,12.358,69.558,18.184q6.245,1.761,12.5,3.534c31.312,8.869,63.69,18.041,96.041,24.57a461.484,461.484,0,0,0,53.5,7.927c14.143,1.166,41.368,1.524,64.807-9.157l.045-.023c24.9-13.6,51.508-37.766,74.977-59.093,9.261-8.412,18.007-16.36,26.2-23.276,18.574-15.686,40.95-29.005,66.507-39.588a331.839,331.839,0,0,1,79.514-21.573l20.293,5.819a326.941,326.941,0,0,0-78.13,15.831c-32.909,11.23-61.083,25.957-81.479,42.589-9.538,7.781-18.793,16.047-27.745,24.041-11.542,10.309-23.474,20.969-36.129,30.685-3.674,2.822-7.257,5.779-11.049,8.907C680.5-29.55,668.163-19.365,653-13.775l.507,1.211c33.456-1.9,66.291-8.769,98.044-15.412q4.537-.95,9.05-1.891Q775.2-32.9,789.8-35.959c30.124-6.3,61.272-12.815,92.066-18.834,24.179-4.723,48.955-9.068,72.913-13.271,15.15-2.656,30.816-5.406,46.179-8.221,34.372-6.3,74.41-13.2,114.62-15.318,16.228-.85,33.505-.91,54.353-.182l29.492,8.457c-4.182-.159-8.4-.337-12.492-.51-15.7-.662-31.941-1.35-47.8-1.086a579.685,579.685,0,0,0-59.6,4.207c-35.876,4.338-71.405,11.288-105.765,18.006l-7.987,1.56c-17.313,3.379-34.988,6.627-52.084,9.767-9.224,1.7-18.766,3.448-28.135,5.2-9.718,2.069-19.9,4.1-30.267,6.037-37.293,6.975-53.948,15.506-73.231,25.383-5.577,2.855-11.345,5.809-17.865,8.843-40.812,19-78.022,35.324-120.151,42.793l.275,1.248c17.933,1.048,41.54,2.358,65.1,3.222,20.436.747,38.551,1.089,55.385,1.041,7.257-.26,14.6-.55,21.864-.867l.034,0,.034-.005C820.365,37.4,856.619,20.142,895,1.872c24.995-11.9,50.841-24.2,76.334-32.835a912.47,912.47,0,0,1,101.2-27.869A613.664,613.664,0,0,1,1151.9-70.259c11.037-.88,22.466-1.518,33.973-1.894,11.106-.358,22.792-.57,35.692-.637l-2.069,7.215c-25.642.151-46.87.94-66.773,2.479-6.508.5-12.944,1.1-19.129,1.765-33.449,3.608-68.082,10.6-108.988,22.007a878.34,878.34,0,0,0-97.717,33.4,858.2,858.2,0,0,0-81.619,38.658l.662,1.165c10.673-1.4,21.646-2.642,32.616-3.674,23.113-2.177,45.668-4.244,67.489-5.6,20.1-2.155,35.222-5.936,52.727-10.313q2.486-.623,5.032-1.255c22.93-5.7,45.969-12.1,68.251-18.294,41.831-11.623,85.086-23.642,129.416-31.518,3.106-.55,6.478-1.116,10.269-1.732l-2.336,8.147C1164.714-22.936,1121.053-11.124,1078.82.3q-9.014,2.441-18.023,4.864c-6.034,1.618-12.116,3.311-17.995,4.951-14.588,4.062-29.671,8.263-45.006,11.59l.355,1.244c8.427.019,16.44.178,24.495.482,48.836,1.843,97.82,7.4,143.479,13.121,7.89.989,15.812,2,23.239,2.957l-2.661,9.281c-16.536-2.124-30.464-3.887-44.484-5.57-7.961-.954-15.31-1.81-22.464-2.608-28.117-3.143-51.513-5.266-73.63-6.683l-.037,1.247c3.594.605,6.591,1.131,9.433,1.647,34.585,6.3,69.089,15.718,102.455,24.823,7.61,2.077,15.473,4.223,23.229,6.306l-2.209,7.7c-8.1-2.211-16.309-4.51-24.259-6.736-20.971-5.873-42.656-11.944-64.243-16.966-46.7-10.871-88.99-16.661-125.705-17.21-24.278-.364-48.889,2.2-65.285,4.161l.246,1.255c23.473.814,46.75,2.723,69.181,5.676A602.406,602.406,0,0,1,1057.293,64.3c12.1,3.47,24.455,7.4,36.725,11.7,21.791,7.622,43.444,16.553,64.387,25.194q5.928,2.446,11.865,4.885l-2.157,7.525q-6.113-2.47-12.222-4.95c-34.477-13.98-70.125-28.433-106.573-38.885-11.692-3.353-22.719-6.1-33.708-8.393-55.744-11.634-115.757-16.2-178.372-13.554l-.065.005c-65.691,7.891-99.253,15.125-143.654,30.96q-3.008,1.074-6.016,2.142c-14.7,5.225-29.9,10.627-44.957,16.937-17.168,7.2-32.583,13.765-47.339,21.319-14.539,7.439-29.733,15.969-47.814,26.841l.921,1.081c13.165-6.284,27.986-12.637,46.641-19.99,72.8-28.69,145.228-46.461,215.284-52.822,37.319-3.387,76.394-2.957,119.458,1.321,36.314,3.607,75.577,10.012,120.029,19.576,24.132,5.195,48.456,11.375,71.979,17.35,14.271,3.624,29.022,7.373,43.6,10.868L1163,131.446c-13.612-3.325-27.4-6.9-40.746-10.36-19.031-4.934-38.708-10.035-58.2-14.493-48.131-11-90.519-18.572-129.584-23.141-42.378-4.952-80.511-6.088-116.577-3.468A694.409,694.409,0,0,0,706.329,97.467a825.492,825.492,0,0,0-107.207,33.641c-19.11,7.469-34.693,13.986-49.038,20.51-6.441,2.93-12.9,6.018-19.144,9-4.867,2.329-9.9,4.734-14.883,7.048l.773,1.15c45.9-15.386,90.9-26.145,133.738-31.984,75.05-10.231,154.326-2.4,230.989,5.169q6.665.659,13.314,1.314c44.714,4.38,82.082,7.911,121.883,10.111,16.095.891,29.324,1.475,41.638,1.836,24.822.179,51.245.826,83.169,2.034l13.867.525-5.119,17.854c-26.752,5.016-52.908,11.073-74.984,16.344-53.6,12.8-111.044,25.672-172.216,30.242-25.111,1.878-50.827,2.969-75.7,4.023-14.922.631-30.348,1.286-45.489,2.1-43.217,2.332-80.482,6.931-113.926,14.056A747.868,747.868,0,0,0,467.21,316.789c-61.018,33.424-127.46,87.752-165.818,124.116-7.452,7.063-17.384,17.7-27.9,28.963-12.507,13.392-25.436,27.241-34.67,35.525-13.072,11.729-43.515,33.079-60.4,41.279C141.558,564.565,31.034,589.21,12.363,592.379c-33.907,5.755-94.1,15.466-105.009,16.31l-.305-.72c-51.124,7.068-105.645,11.363-166.678,13.125-29.564.856-59.878.409-89.192-.022q-7.245-.108-14.491-.211ZM647.587,205.144c-58.769,7.538-121.09,16.581-178.662,31.568-88.08,22.932-170.911,57.649-241.633,88.39-11.413,4.959-22.966,10.1-34.139,15.073-18.534,8.246-37.7,16.774-56.812,24.743-12.547,5.877-24.3,12.027-34.01,17.805-23.6,14.039-50.346,29.952-77.351,45.2-40.5,22.864-84.694,46.363-133.323,63.343l.526,1.215c27.325-2.489,52.894-3.854,78.169-4.174,71.439-.9,131.124-9.113,182.462-25.112A346.9,346.9,0,0,0,253.937,403.3c6.683-5.77,13.405-11.7,19.908-17.426,13.915-12.269,28.306-24.951,43.156-36.845,24.027-19.244,51.931-37.6,82.941-54.546,61.743-33.746,129.526-59.977,201.476-77.967,13.978-3.5,29.229-6.811,46.617-10.138ZM745.8,194.115c-49.927,8.8-115.333,21.314-178.484,40.082-74.757,22.222-141.2,51.553-197.48,87.181-24.084,15.243-48.176,33.362-73.65,55.391q-5.765,4.985-11.5,10c-16.326,14.234-33.2,28.956-51.131,42.289-1.374,1.021-2.884,2.127-4.619,3.375l1,1.035c8.99-5.01,20.985-11.71,33.217-18.547,13.743-7.675,27.787-15.524,38.227-21.336l10.017-5.936c44.114-26.144,89.729-53.179,136.24-77.568,41.634-21.833,80.468-39.774,118.716-54.845,39.1-15.41,80.457-28.63,120.452-41.412l10.03-3.208c17.5-5.6,33.7-10.6,49.522-15.281Zm-348.086,54c-22.233,2.684-45.01,4.835-67.038,6.916q-4.865.458-9.726.921c-10.773,1.023-22.261,2.221-35.123,3.66l-.058.01C220.935,271.6,151.951,275.911,91.091,279.709c-43.969,2.743-87.472,4.915-129.3,6.452-19.429.715-40.022,1.424-64.807,2.231q-4.736.156-9.5.33c-7.324.258-14.9.53-22.371.677l.161,1.262c26.149.954,52.793,2.268,78.562,3.536,43.082,2.123,87.629,4.313,131.057,4.894,92.768,1.232,165.18-5.618,227.881-21.553,33.763-8.579,67.211-19.073,95.478-28.207ZM575.844,118.244c-33.3,10.965-67.46,21.6-100.492,31.89q-9,2.8-17.984,5.6c-63.914,19.94-148.417,45.682-235.3,67.914-87.46,22.387-167.163,38.721-243.66,49.94-16.77,2.459-33.747,4.729-50.458,6.747l.325,1.255c27.877-1.5,56.262-3.1,86.78-4.869,41.534-2.417,84.829-5.462,128.681-9.051l2.4-.2c38.262-3.129,77.828-6.365,115.821-12.292,76.2-11.887,142.344-33.715,196.6-64.875,17.7-10.17,35.186-21.047,52.09-31.569,21.322-13.27,43.371-26.993,66.009-39.372Zm380.361,38.233c-25.782-1.839-52.024-4.448-77.4-6.973-13.593-1.354-27.65-2.751-41.474-4.016-36.27-3.315-79.241-6.608-122.944-5.9a597.393,597.393,0,0,0-119.3,14.21c-35.9,7.962-66.738,20.72-99.381,34.226l-6.981,2.884c-12.678,5.234-22.529,9.621-32.055,13.865-17.552,7.818-32.71,14.57-60.07,24.236-17.283,6.642-35.677,12.646-54.688,17.857l.5,1.227,2.678-.332c17.864-2.212,36.332-4.5,54.248-7.157,26.5-3.931,48.726-7.934,76-13.118,6.011-1.144,13.512-2.645,22.294-4.467,14.084-3.173,27.219-5.884,40.174-8.291,47.681-8.853,101.369-16.573,174.079-25.029l.058-.009.053-.013c1.32-.342,3.761-.761,7.251-1.248,19.466-2.71,41.83-6.109,65.51-9.711,47.349-7.2,96.307-14.644,130.118-17.814,13.48-1.259,27.439-2.329,41.492-3.175ZM673.141,65.871c-2.277.1-4.157.159-5.924.182-24.223.343-50.05,0-78.958-1.039-19.193-.691-38.636-.873-57.441-1.048-7-.066-14.236-.134-21.36-.226-89.517-1.167-169.98-1.237-248.194,9.753-41.6,5.845-82.857,14.384-122.758,22.642-36.529,7.561-74.3,15.378-112.213,21.1l.274,1.251c11.146.4,22.639.87,35.135,1.422,72.9,3.236,149.216,4.253,226.824,3.024,84.547-1.342,157.638-8.092,223.455-20.644,22.024-4.2,44.017-9.345,65.283-14.322,16.929-3.961,34.434-8.057,51.847-11.652q11.2-2.308,22.39-4.638,11.012-2.287,22.028-4.565Zm476.516,100.4c-84.806-1.534-204.936-2.375-268.744,7.988-2.68.434-6.305.96-10.893,1.622-22.157,3.2-63.4,9.157-105.138,20.67-10.314,3.213-21.155,6.671-33.164,10.582l-1.79.581C695.276,219,659.445,230.67,624.764,243.03l.673,1.185c16.261-4.495,32.375-8.342,47.891-11.437,33.673-6.715,70.089-10.864,114.605-13.068,12.2-.6,24.634-1.119,36.656-1.618,27.755-1.152,56.454-2.349,84.426-4.683,36.469-3.048,74.468-9.02,116.17-18.257,13.994-3.1,28.129-6.457,41.8-9.7,21.361-5.073,43.448-10.322,65.514-14.7,5.758-1.145,11.635-2.231,17.464-3.229ZM126.437-63.569c2.5.716,5.024,1.454,7.507,2.19,10.663,3.171,21.356,6.778,31.7,10.267,7.41,2.5,15.077,5.083,22.674,7.491,6,1.9,13.8,4.54,22.063,7.338,14.681,4.969,31.319,10.6,44.775,14.46,4.384,1.257,8.239,2.269,11.455,3.007,0,0,2.236.459,2.721.56,19.353,4.031,38.916,8.733,57.839,13.28C345.718-.519,364.9,4.09,383.879,8.068c23.308,4.89,42.358,8.139,59.95,10.232,1.688.2,3.341.377,4.737.524l.142-1.231c-21.3-5.178-44.251-11.308-70.156-18.737-9.529-2.732-19.59-5.675-30.759-9-12.646-3.762-25.515-7.652-37.966-11.418C287.1-28.432,263.593-35.54,240.36-42.2,183.1-58.62,139-68.955,97.36-75.718c-12.163-1.974-24.814-3.767-37.6-5.327l-.119,1.236c6.93,1.384,13.9,2.872,20.723,4.424C96.015-71.828,111.515-67.848,126.437-63.569ZM791.865-27.548c-25.04,4.958-45.633,8.79-64.81,12.059q-4.1.7-8.264,1.426c-21.217,3.689-43.157,7.5-65.348,7.386C637-6.04,615.029-7.733,600.494-8.851c-2.438-.189-4.7-.363-6.744-.511A478.672,478.672,0,0,1,541.5-16.232C505.832-22.857,471.626-32.078,433.8-42.567q-6.15-1.7-12.3-3.423c-31.6-8.816-64.287-17.928-96.966-23.951-10.776-1.986-19.744-3.4-28.215-4.458-3.841-.476-7.743-1.1-11.517-1.715q-2.379-.385-4.758-.759l-.061-.007c-8.151-.7-18.887-1.608-29.651-2.467-42.449-3.386-85.409-4.982-126.954-6.522l-7.129-.266Q98.331-86.8,80.4-87.452l.019,1.255c8.723,1.181,17.308,2.5,25.515,3.929,39.928,6.936,81.84,16.942,135.888,32.44,23.626,6.775,47.564,14.014,70.713,21.016C325.988-24.744,339.9-20.536,353.6-16.47c12.311,3.657,22.573,6.663,32.293,9.45C421.521,3.2,450.761,10.719,477.911,16.652,515.186,24.8,558.377,33.489,599.217,33.52,660.585,33.57,712.3,10.195,762.3-12.411q5.2-2.353,10.391-4.686c5.544-2.493,10.541-4.864,15.375-7.158,1.508-.716,3-1.424,4.481-2.123Z" transform="translate(0 0)" fill="#01a7af" opacity="0.055" style="isolation: isolate"/>
    </g>
  </g>
</svg>
