<svg id="Twitter" xmlns="http://www.w3.org/2000/svg" width="28.344" height="28.344" viewBox="0 0 28.344 28.344">
  <circle id="Oval" cx="14.172" cy="14.172" r="14.172" transform="translate(0)" fill="#2aa3ef"/>
  <path id="Twitter-2" data-name="Twitter" d="M11.628,1.118a4.786,4.786,0,0,1-1.37.376A2.393,2.393,0,0,0,11.307.175,4.768,4.768,0,0,1,9.792.753,2.387,2.387,0,0,0,5.664,2.385a2.412,2.412,0,0,0,.062.544A6.772,6.772,0,0,1,.81.437a2.388,2.388,0,0,0,.738,3.184,2.366,2.366,0,0,1-1.08-.3v.03A2.386,2.386,0,0,0,2.381,5.692a2.382,2.382,0,0,1-.629.084A2.347,2.347,0,0,1,1.3,5.732,2.389,2.389,0,0,0,3.533,7.389,4.793,4.793,0,0,1,.569,8.409,4.809,4.809,0,0,1,0,8.376,6.751,6.751,0,0,0,3.657,9.448a6.741,6.741,0,0,0,6.788-6.786c0-.1,0-.206-.007-.308a4.849,4.849,0,0,0,1.19-1.234Z" transform="translate(8.358 9.448)" fill="#fff"/>
</svg>
