<svg xmlns="http://www.w3.org/2000/svg" width="252" height="252" viewBox="0 0 252 252">
  <g id="Group_44149" data-name="Group 44149" transform="translate(-664 -373)">
    <circle id="Ellipse_156" data-name="Ellipse 156" cx="126" cy="126" r="126" transform="translate(664 373)" fill="#fff"/>
    <g id="Group_44148" data-name="Group 44148" transform="translate(-107.51 16.652)">
      <path id="Path_78578" data-name="Path 78578" d="M1144.486,917.887c-.225-5.072-.4-10.15-.791-15.211a27.531,27.531,0,0,0-2.724-10.1c-2.423-4.916-6.462-7.985-11.42-10.008a70.454,70.454,0,0,0-14.788-3.826,1.11,1.11,0,0,0-.861.414,8.317,8.317,0,0,1-3.39,2.735,14.128,14.128,0,0,1-7.207.944c-2.859-.3-5.417-1.253-7.174-3.736a1.084,1.084,0,0,0-.887-.349,76.518,76.518,0,0,0-13.124,3.205,24.1,24.1,0,0,0-10.168,6.4c-3.118,3.5-4.53,7.74-5.291,12.253a112.189,112.189,0,0,0-1.078,17.043,4.734,4.734,0,0,0,1.063,3.147,19.9,19.9,0,0,0,5.223,4.434,43.5,43.5,0,0,0,13.759,5.155c5.158,1.112,15.307,3.029,34.634.741a49,49,0,0,0,15.925-4.756,21.8,21.8,0,0,0,7.34-5.691A4.143,4.143,0,0,0,1144.486,917.887Zm-6.83.14a19.855,19.855,0,0,1-7.174,4.3,53.071,53.071,0,0,1-13.165,2.95,113.875,113.875,0,0,1-21.548.29,56.291,56.291,0,0,1-16.884-3.525,19.7,19.7,0,0,1-6.24-3.794,2.226,2.226,0,0,1-.782-1.814,100.667,100.667,0,0,1,.979-14.88,20.433,20.433,0,0,1,2.363-7.073c1.783-3.042,4.575-4.827,7.73-6.136a53.173,53.173,0,0,1,10.108-2.822,1.15,1.15,0,0,1,.782.158c7.4,4.944,14.822,4.594,22.414.206.033.065,4.507-.763,14.082,4.054a13.989,13.989,0,0,1,6.328,8.894,46.951,46.951,0,0,1,1.322,9.635c.139,2.729.146,5.464.243,8.2A1.7,1.7,0,0,1,1137.656,918.027Z" transform="translate(-207.144 -382.277)" fill="#1e999d"/>
      <path id="Path_78579" data-name="Path 78579" d="M1503.957,426.461c1.473.23,2.966.37,4.414.7a14.584,14.584,0,0,1,11.42,10.6c1.943,6.609,2.245,13.322-.077,19.929a20.13,20.13,0,0,1-10.44,12.078c-6.782,3.233-14.518,1.553-19.872-4.249a23.241,23.241,0,0,1-6.126-14.616,35.4,35.4,0,0,1,1.193-12.717c2.037-6.74,6.671-10.428,13.566-11.41.787-.112,1.575-.215,2.362-.322Zm11.159,21.024c-.315-2.24-.507-4.507-.971-6.715a9.1,9.1,0,0,0-7.821-7.62,23.152,23.152,0,0,0-7.694-.088c-4.538.685-7.339,3.228-8.371,7.711a32.217,32.217,0,0,0-.636,10.527,16.583,16.583,0,0,0,4.367,9.945c2.836,3.02,6.281,4.48,10.45,3.584a11.9,11.9,0,0,0,7.36-5.274A20.46,20.46,0,0,0,1515.116,447.485Z" transform="translate(-560.095)" fill="#006165"/>
      <path id="Path_78580" data-name="Path 78580" d="M932.515,426.461c1.194.175,2.4.3,3.581.533,6.635,1.308,10.844,5.291,12.492,11.8a32.69,32.69,0,0,1-.017,17.8,20.742,20.742,0,0,1-9.911,12.724c-6.915,3.808-15.185,2.279-20.769-3.785a23.255,23.255,0,0,1-6.09-14.152,35.685,35.685,0,0,1,1.068-12.88c1.947-6.858,6.561-10.682,13.566-11.7.839-.122,1.68-.223,2.52-.334Zm-14.752,20.911.137.036c.07,1.337.061,2.683.223,4.009a16.729,16.729,0,0,0,5.258,10.727,10.462,10.462,0,0,0,11.768,1.92,13.5,13.5,0,0,0,6.62-7.174c2.469-5.806,2.1-11.742.393-17.636a8.306,8.306,0,0,0-6.344-5.856,21.41,21.41,0,0,0-8.9-.3c-4.18.673-7,2.958-8,7.126C918.365,442.565,918.139,444.986,917.763,447.372Z" transform="translate(-77.028)" fill="#006165"/>
      <path id="Path_78581" data-name="Path 78581" d="M1528.734,751.791c-1.042,3.062-3.573,4.682-6.146,6.2a38.5,38.5,0,0,1-13.2,4.413,82.521,82.521,0,0,1-16.264,1.033c-.1,0-.2-.021-.316-.033l-1.813-6.28c.3,0,.621-.009.938,0a79.64,79.64,0,0,0,19.774-1.456,26.628,26.628,0,0,0,8.674-3.367,3.847,3.847,0,0,0,2.073-3.888,111.135,111.135,0,0,0-.916-11.322,12.053,12.053,0,0,0-8.675-10.178c-2.371-.772-4.813-1.328-7.231-1.95a1.089,1.089,0,0,0-.762.185,16.605,16.605,0,0,1-18.573.016,1.3,1.3,0,0,0-.908-.172c-1.734.389-3.482.748-5.176,1.274-1.665.517-3.271,1.22-4.9,1.843l.1-.472c.433-2.065.891-4.126,1.281-6.2.087-.464.2-.75.68-.86,3.462-.8,6.92-1.615,10.385-2.4a.788.788,0,0,1,.683.28c1.922,3.666,8.73,3.926,11.794,2.2a11.461,11.461,0,0,0,2.335-2.081,1.016,1.016,0,0,1,1.042-.4,64.787,64.787,0,0,1,12.4,3.225,17.612,17.612,0,0,1,11.6,14.378c.554,3.424.684,6.917,1.006,10.379.04.431.085.862.128,1.294Z" transform="translate(-553.453 -246.551)" fill="#006165"/>
      <path id="Path_78582" data-name="Path 78582" d="M820.509,747.519c.1-1.745.2-3.491.308-5.235a41.024,41.024,0,0,1,1.475-9.218,17.353,17.353,0,0,1,10.522-11.415,58.3,58.3,0,0,1,13.058-3.414.81.81,0,0,1,.679.307c2.005,3.731,9,3.9,12.006,2.06a18.05,18.05,0,0,0,2.195-2.019,1.144,1.144,0,0,1,.814-.326c3.393.755,6.774,1.557,10.162,2.332.552.126.745.4.842.982.37,2.229.834,4.443,1.245,6.567-1.354-.528-2.818-1.2-4.344-1.669-1.844-.567-3.736-.98-5.617-1.418a1.291,1.291,0,0,0-.907.174,16.593,16.593,0,0,1-18.57-.024.981.981,0,0,0-.616-.219,35.5,35.5,0,0,0-10.327,3.338c-3.364,1.872-4.944,4.912-5.654,8.53a70.554,70.554,0,0,0-.934,13.329,1.472,1.472,0,0,0,.471.9,14.86,14.86,0,0,0,5.124,3.1,43.87,43.87,0,0,0,11.891,2.622,92.445,92.445,0,0,0,13.368.359c.178-.008.356,0,.556,0l-1.835,6.363c-.491,0-1.053,0-1.615,0a74.107,74.107,0,0,1-19.706-2.1,31.763,31.763,0,0,1-10.468-4.655c-.105-.075-.21-.149-.312-.229-1.62-1.278-3.193-2.594-3.809-4.688Z" transform="translate(0 -246.613)" fill="#006165"/>
      <path id="Path_78583" data-name="Path 78583" d="M1220.3,555.756a27.944,27.944,0,0,1-6.358,17.528,20.538,20.538,0,0,1-13.036,7.8,19.349,19.349,0,0,1-16.426-5.048,25.953,25.953,0,0,1-8.337-15.087,40.419,40.419,0,0,1,1.034-19.283c2.227-7.353,7.339-11.551,14.854-12.851a33.308,33.308,0,0,1,12.687.188c7.489,1.59,12.121,6.22,14.18,13.521C1219.951,546.249,1220.2,550.078,1220.3,555.756Zm-6.331-2.549a39.983,39.983,0,0,0-1.054-8.81c-1.349-5.231-4.642-8.357-9.968-9.331a28.785,28.785,0,0,0-9.393-.126c-5.8.845-9.43,4.068-10.761,9.806a38.876,38.876,0,0,0-.794,13.066,20.962,20.962,0,0,0,6,12.936c4.591,4.592,10.946,5.593,16.387,2.573a17.184,17.184,0,0,0,6.614-6.781A24.408,24.408,0,0,0,1213.969,553.207Z" transform="translate(-299.995 -86.071)" fill="#1e999d"/>
    </g>
  </g>
</svg>
