<svg id="Google_Plus" data-name="Google Plus" xmlns="http://www.w3.org/2000/svg" width="28.344" height="28.344" viewBox="0 0 28.344 28.344">
  <circle id="Oval" cx="14.172" cy="14.172" r="14.172" fill="#da483f"/>
  <path id="G_" data-name="G+" d="M4.5,8.721A4.538,4.538,0,0,1,1.317,7.444a4.269,4.269,0,0,1,0-6.167A4.6,4.6,0,0,1,7.53,1.143L6.2,2.4A2.7,2.7,0,0,0,4.5,1.794,2.611,2.611,0,0,0,1.849,4.361,2.611,2.611,0,0,0,4.5,6.927,2.66,2.66,0,0,0,6.971,5.271H4.44V3.45H8.894A4.27,4.27,0,0,1,7.676,7.444,4.538,4.538,0,0,1,4.5,8.721ZM12.607,6.21H11.469V4.692H9.9v-1.1h1.565V2.07h1.138V3.588h1.565v1.1H12.607V6.209Z" transform="translate(7.268 9.812)" fill="#fff"/>
</svg>
