<svg id="Linkedin" xmlns="http://www.w3.org/2000/svg" width="28.344" height="28.344" viewBox="0 0 28.344 28.344">
  <ellipse id="Oval" cx="14.172" cy="14.172" rx="14.172" ry="14.172" fill="#007ab7"/>
  <path id="Linkedin-2" data-name="Linkedin" d="M8.069,10.175v-3.3c0-.789-.012-1.8-1.095-1.8-1.1,0-1.263.86-1.263,1.744v3.363H3.6v-6.8H5.621V4.31h.027a2.215,2.215,0,0,1,2-1.1c2.134,0,2.53,1.406,2.53,3.237v3.724Zm-5.794,0H.165v-6.8h2.11v6.8h0ZM3.6,3.378h0ZM0,1.226A1.224,1.224,0,1,1,1.224,2.451,1.226,1.226,0,0,1,0,1.226Z" transform="translate(9.085 8.721)" fill="#fff"/>
</svg>
