<svg id="Snapchat" xmlns="http://www.w3.org/2000/svg" width="28.344" height="28.344" viewBox="0 0 28.344 28.344">
  <ellipse id="Oval" cx="14.172" cy="14.172" rx="14.172" ry="14.172" fill="#fffc00"/>
  <g id="Snapchat-2" data-name="Snapchat" transform="translate(7.631 8.007)">
    <path id="Shape" d="M12.586,9.354a3.641,3.641,0,0,1-2.444-2.177V7.154a.53.53,0,0,1-.064-.422c.086-.2.45-.333.686-.4a1.446,1.446,0,0,0,.172-.067c.45-.2.686-.444.686-.733A.6.6,0,0,0,11.192,5a.665.665,0,0,0-.3-.067A.814.814,0,0,0,10.613,5a1.574,1.574,0,0,1-.515.156.264.264,0,0,1-.129-.022.709.709,0,0,0,.021-.222V4.866A6.914,6.914,0,0,0,9.82,2.155,3.489,3.489,0,0,0,6.582,0H6.325A3.447,3.447,0,0,0,3.109,2.155a6.532,6.532,0,0,0-.172,2.711,1.12,1.12,0,0,1,.021.267c-.043,0-.107.022-.172.022A1.178,1.178,0,0,1,2.23,5a.743.743,0,0,0-.943.467c-.043.222.043.533.686.8a.974.974,0,0,0,.193.067c.214.067.579.2.665.4a.538.538,0,0,1-.064.422A3.762,3.762,0,0,1,.279,9.309.379.379,0,0,0,0,9.687a.329.329,0,0,0,.043.156c.129.355.686.578,1.694.755.021.067.043.2.064.267.021.089.043.2.064.311a.37.37,0,0,0,.386.289,1.626,1.626,0,0,0,.3-.044,2.552,2.552,0,0,1,.665-.089,1.882,1.882,0,0,1,.493.067,2.125,2.125,0,0,1,.879.467,2.482,2.482,0,0,0,1.694.578h.15a3.366,3.366,0,0,0,1.93-.578,2.422,2.422,0,0,1,.879-.467,3.388,3.388,0,0,1,.472-.044,2.934,2.934,0,0,1,.665.067,2.157,2.157,0,0,0,.322.044.37.37,0,0,0,.365-.289c.021-.111.043-.2.064-.311.021-.044.043-.178.064-.244,1.008-.156,1.5-.4,1.651-.733a.424.424,0,0,0,.043-.156A.379.379,0,0,0,12.586,9.354Z" transform="translate(0 0)"/>
    <path id="Path" d="M10.549,9.731c-.257.022-.3.289-.365.578-.021.067-.043.156-.064.244a.951.951,0,0,1-.214-.022,3.5,3.5,0,0,0-.75-.089,4.729,4.729,0,0,0-.536.044,2.549,2.549,0,0,0-1.051.555,2.623,2.623,0,0,1-1.651.511H5.811a2.193,2.193,0,0,1-1.458-.511A2.424,2.424,0,0,0,3.3,10.487a4.361,4.361,0,0,0-.536-.044,3.032,3.032,0,0,0-.75.089.915.915,0,0,1-.214.044l-.064-.267c-.064-.289-.107-.555-.365-.6A2.824,2.824,0,0,1,0,9.287a4.2,4.2,0,0,0,2.68-2.4,1.008,1.008,0,0,0,.064-.778A1.38,1.38,0,0,0,1.8,5.466a.3.3,0,0,1-.15-.044c-.365-.155-.429-.289-.429-.311,0-.067.15-.156.279-.156h.064a1.638,1.638,0,0,0,.729.2.735.735,0,0,0,.536-.2A.205.205,0,0,0,2.895,4.8c0-.133-.021-.267-.021-.4A6.293,6.293,0,0,1,3,1.889,3.026,3.026,0,0,1,5.832,0h.236A3.084,3.084,0,0,1,8.919,1.844a7.193,7.193,0,0,1,.129,2.511V4.4c0,.133-.021.244-.021.355a.258.258,0,0,0,.064.178.766.766,0,0,0,.515.2,2.324,2.324,0,0,0,.686-.2.305.305,0,0,1,.236.022c.107.044.15.111.15.133,0,.044-.086.178-.429.311a1.446,1.446,0,0,1-.172.067,1.388,1.388,0,0,0-.922.644.922.922,0,0,0,.064.778,4.091,4.091,0,0,0,2.659,2.422A2.942,2.942,0,0,1,10.549,9.731Z" transform="translate(0.515 0.444)" fill="#fff"/>
  </g>
</svg>
