<svg id="Youtube" xmlns="http://www.w3.org/2000/svg" width="28.344" height="28.344" viewBox="0 0 28.344 28.344">
  <circle id="Oval" cx="14.172" cy="14.172" r="14.172" fill="#f52929"/>
  <path id="Youtube-2" data-name="Youtube" d="M6.541,10.175h0c-.034,0-3.418-.025-4.443-.139-.055-.013-.122-.023-.2-.034a1.834,1.834,0,0,1-1.244-.59A3.479,3.479,0,0,1,.135,7.978,23.162,23.162,0,0,1,0,5.643V4.555C0,3.392.134,2.209.135,2.2A3.163,3.163,0,0,1,.654.763a1.782,1.782,0,0,1,1.269-.6h0l.037,0C3.768.025,6.513,0,6.541,0S9.314.025,11.12.162l.062.005a1.665,1.665,0,0,1,1.246.6A3.479,3.479,0,0,1,12.947,2.2c0,.012.135,1.194.135,2.359V5.643c0,1.141-.134,2.324-.135,2.335a3.48,3.48,0,0,1-.519,1.434,1.782,1.782,0,0,1-1.269.6h0l-.037,0C9.314,10.173,6.569,10.175,6.541,10.175ZM4.962,2.752V7.77L9.248,5.319Z" transform="translate(7.631 9.085)" fill="#fff"/>
</svg>
