<svg xmlns="http://www.w3.org/2000/svg" width="208" height="208" viewBox="0 0 208 208">
  <g id="Group_48663" data-name="Group 48663" transform="translate(-687 -461)">
    <circle id="Ellipse_52" data-name="Ellipse 52" cx="104" cy="104" r="104" transform="translate(687 461)" fill="#0d6c71"/>
    <g id="Group_48378" data-name="Group 48378" transform="translate(2302.85 29.916)">
      <path id="Path_86052" data-name="Path 86052" d="M-1491.616,627.15a4.582,4.582,0,0,1-4.6-3.663,25.8,25.8,0,0,0-8.365-13.249c-3.6-3.233-7.442-6.347-11.153-9.359-1.6-1.3-3.263-2.649-4.884-3.989q-.457-.378-.918-.752c-.613-.5-1.247-1.016-1.861-1.547a10.847,10.847,0,0,1-3.977-7.458,10.086,10.086,0,0,1,2.821-7.46,9.754,9.754,0,0,1,7.162-3.022,10.725,10.725,0,0,1,7.16,2.814c.347.307.7.6,1.072.891l-.377-1.761c-.658-3.078-1.34-6.26-1.988-9.4l-.99-4.78c-1.377-6.639-2.8-13.5-4.119-20.276a8.74,8.74,0,0,1,6.6-10.356,10.041,10.041,0,0,1,1.979-.2,8.787,8.787,0,0,1,8.724,7.342q.672,3.153,1.338,6.308.436,2.064.874,4.127a10.482,10.482,0,0,1,4.595-1.165,8.958,8.958,0,0,1,6.7,3.224,11.447,11.447,0,0,1,5.657-1.794c2.524,0,4.744,1.226,6.924,3.839a9.408,9.408,0,0,1,5.259-1.726,8.714,8.714,0,0,1,2.914.518c2.927,1.037,4.738,2.871,5.239,5.3q.323,1.568.65,3.137c2.11,10.146,4.293,20.638,4.332,31.3a30.18,30.18,0,0,1-.584,5.209c-.2,1.135-.4,2.31-.493,3.444-.262,3.073-.375,6.225-.484,9.273l-.041,1.123a7.636,7.636,0,0,0,.116,1.313c.056.389.113.791.134,1.214a4.831,4.831,0,0,1-4.012,5.249c-9.039,1.878-18.92,3.908-30.207,6.208A6.01,6.01,0,0,1-1491.616,627.15Zm-25.691-44.511a3.935,3.935,0,0,0-1.748.437,3.679,3.679,0,0,0-2.182,3.682c.04,1.872,1.346,2.934,2.859,4.164l.143.116c1.813,1.476,3.679,2.956,5.484,4.387,3.333,2.643,6.778,5.375,10.055,8.211,6.254,5.412,10.03,10.727,11.885,16.728.149.483.237.483.45.483a2.751,2.751,0,0,0,.546-.071c8.875-1.88,17.568-3.712,26.331-5.458,1.135-.226,1.234-.374,1.057-1.576a30.9,30.9,0,0,1,.546-12.594,47.812,47.812,0,0,0,.979-5.211c.08-.545.154-1.042.226-1.473-.65-12.253-2.883-23.411-4.926-32.912a2.388,2.388,0,0,0-2.348-1.776,2.331,2.331,0,0,0-.491.052,3.067,3.067,0,0,0-2.424,3.306c.123.777.267,1.572.407,2.339.157.864.32,1.758.456,2.648.03.2.086.431.146.678a3.643,3.643,0,0,1-.146,2.96,2.83,2.83,0,0,1-1.993,1.152,3.919,3.919,0,0,1-.66.059c-2.295,0-2.735-2.156-2.972-3.314-.034-.168-.068-.334-.105-.492-.385-1.63-.747-3.29-1.1-4.9-.306-1.4-.623-2.851-.952-4.269a2.6,2.6,0,0,0-2.641-2.251,3.941,3.941,0,0,0-.555.041,2.543,2.543,0,0,0-2.255,2.594,24.869,24.869,0,0,0,.474,3.111c.078.4.156.8.227,1.2.139.783.291,1.563.443,2.344.324,1.661.659,3.379.859,5.105a3.028,3.028,0,0,1-.71,2.4,2.643,2.643,0,0,1-1.968.892,2.79,2.79,0,0,1-1.657-.563,4.656,4.656,0,0,1-1.487-2.715c-.437-1.943-.854-3.921-1.257-5.834-.56-2.656-1.138-5.4-1.776-8.078a2.515,2.515,0,0,0-2.561-1.988,3.408,3.408,0,0,0-.854.112,2.808,2.808,0,0,0-1.927,3.211c.713,3.576,1.473,7.205,2.209,10.716l.62,2.965c.211,1.009.771,3.689-2.064,4.389a3.724,3.724,0,0,1-.892.115c-1.545,0-2.541-1.043-2.96-3.1q-1.159-5.685-2.345-11.365l-.978-4.712c-1.118-5.392-2.275-10.968-3.436-16.446-.354-1.67-1.242-2.481-2.714-2.481-.112,0-.226,0-.342.014a2.435,2.435,0,0,0-1.846.918,3.97,3.97,0,0,0-.442,3.166c1.433,7.17,2.647,13.2,3.918,19.322q1.02,4.917,2.061,9.83c1.01,4.794,2.055,9.751,3.05,14.635,0,.023.01.051.014.082a2.881,2.881,0,0,1-4.482,2.784l-.1-.069c-1.678-1.241-3.338-2.549-4.944-3.814-1.307-1.03-2.659-2.094-4-3.11A3.618,3.618,0,0,0-1517.307,582.64Z" transform="translate(-15.908 -34.753)" fill="#fff"/>
      <path id="Path_86053" data-name="Path 86053" d="M-1430.571,550.449c-.4,0-.806-.022-1.194-.043-.189-.01-.372-.02-.551-.028l-.52.01c-.377,0-.753,0-1.13.009s-.771.009-1.157.009c-.589,0-1.077-.011-1.533-.034a3,3,0,0,1-3.185-3.045,2.977,2.977,0,0,1,3.2-3.07l.7-.017c1.038-.026,2.111-.052,3.173-.052,1.449,0,2.65.048,3.779.152a1.3,1.3,0,0,1,.494.192,3.254,3.254,0,0,1,.173,5.462,1.687,1.687,0,0,1-.474.249A6.709,6.709,0,0,1-1430.571,550.449Z" transform="translate(-70.427 -41.357)" fill="#fff"/>
      <path id="Path_86054" data-name="Path 86054" d="M-1543.843,550.458c-.4,0-.8-.021-1.189-.041s-.727-.038-1.071-.038h-.781l-.345,0c-.387.006-.773.011-1.159.011-.592,0-1.081-.013-1.54-.042a3.3,3.3,0,0,1-2.562-1.234,2.492,2.492,0,0,1-.348-2.181,3.892,3.892,0,0,1,2.9-2.61c1.1-.1,2.312-.143,3.7-.143,1.2,0,2.4.034,3.573.067l.363.01a3.273,3.273,0,0,1,2.56,1.181,2.569,2.569,0,0,1,.423,2.213,4.153,4.153,0,0,1-2.764,2.608A6.962,6.962,0,0,1-1543.843,550.458Z" transform="translate(0 -41.354)" fill="#fff"/>
      <path id="Path_86055" data-name="Path 86055" d="M-1450.5,509.046a2.869,2.869,0,0,1-1.995-.857,2.981,2.981,0,0,1-1.032-2.134,3.438,3.438,0,0,1,1.114-2.448l.811-.83c1.428-1.465,2.906-2.979,4.475-4.369a3.634,3.634,0,0,1,2.356-.771,3.813,3.813,0,0,1,.815.084,2.8,2.8,0,0,1,1.6,1.363c.125.183.243.355.36.492h0a1.132,1.132,0,0,1,.12,1.292h0c-.121.213-.223.417-.318.609a5.19,5.19,0,0,1-.85,1.333c-1.242,1.3-2.534,2.581-3.783,3.822q-.637.633-1.274,1.267A3.406,3.406,0,0,1-1450.5,509.046Z" transform="translate(-61.902 -12.369)" fill="#fff"/>
      <path id="Path_86056" data-name="Path 86056" d="M-1530.3,588.422a2.19,2.19,0,0,1-1.719-.614c-.661-.748-1.348-2.839-.443-3.874a66.852,66.852,0,0,1,6.2-6.227,2.484,2.484,0,0,1,1.659-.637,3.265,3.265,0,0,1,3,3.4l.006.345-.188.29c-.04.062-.084.145-.136.238a5.918,5.918,0,0,1-.933,1.333l-.4.408c-1.578,1.6-3.209,3.245-4.97,4.724A3.477,3.477,0,0,1-1530.3,588.422Z" transform="translate(-12.482 -61.831)" fill="#fff"/>
      <path id="Path_86057" data-name="Path 86057" d="M-1524.691,509.064a2.545,2.545,0,0,1-1.707-.658,71.147,71.147,0,0,1-6.181-6.224c-.864-.981-.359-3.111.436-3.84a3.312,3.312,0,0,1,2.081-.66,2.619,2.619,0,0,1,1.71.527c1.845,1.618,3.567,3.4,5.233,5.124l.72.744a2.712,2.712,0,0,1,.626,1.27c.007.027.012.051.018.073l.078.2-.01.24A3.216,3.216,0,0,1-1524.691,509.064Z" transform="translate(-12.399 -12.397)" fill="#fff"/>
      <path id="Path_86058" data-name="Path 86058" d="M-1483.181,491.449a2.844,2.844,0,0,1-2.941-3.017c-.024-.934-.018-1.874-.012-2.784,0-.394,0-.788,0-1.182v-1.12c0-.817,0-1.635,0-2.452.018-1.868,1.069-3.124,2.614-3.124a3.032,3.032,0,0,1,.655.075,3.828,3.828,0,0,1,2.7,2.86,67.606,67.606,0,0,1,.065,7.762v.045a2.875,2.875,0,0,1-3.015,2.936Z" transform="translate(-41.597)" fill="#fff"/>
    </g>
  </g>
</svg>
