<svg xmlns="http://www.w3.org/2000/svg" width="20" height="19" viewBox="0 0 20 19">
  <g id="Group_41042" data-name="Group 41042" transform="translate(-924.913 -904)">
    <g id="Add_User" data-name="Add User" transform="translate(922.913 901.5)">
      <path id="Add_User-2" data-name="Add User" d="M2,18.247c0-2.585,3.454-3.231,7.5-3.231,4.066,0,7.5.669,7.5,3.253S13.545,21.5,9.5,21.5C5.433,21.5,2,20.83,2,18.247Zm16.1-5.658V11.411H16.9a.912.912,0,0,1,0-1.823h1.2V8.411a.9.9,0,1,1,1.8,0V9.588h1.2a.912.912,0,0,1,0,1.823H19.9v1.177a.9.9,0,1,1-1.8,0ZM4.538,7.527a4.963,4.963,0,1,1,9.925,0,4.963,4.963,0,1,1-9.925,0Z" fill="#fff"/>
    </g>
  </g>
</svg>
