<svg xmlns="http://www.w3.org/2000/svg" width="26.208" height="20.207" viewBox="0 0 26.208 20.207">
  <g id="Add_User" data-name="Add User" transform="translate(1.001 0.707)">
    <path id="Add_User-2" data-name="Add User" d="M1.679,19.5a3.1,3.1,0,0,1-.91-.2A2.808,2.808,0,0,1-.782,17.776,2.748,2.748,0,0,1-.79,15.647L6.529,2.933a2.742,2.742,0,0,1,1.1-1.08,2.848,2.848,0,0,1,3.849,1.089l7.268,12.614a2.941,2.941,0,0,1,.25,1,2.755,2.755,0,0,1-.73,2.022,2.839,2.839,0,0,1-1.949.92Zm6.439-4.854a.887.887,0,0,0,.88.871.878.878,0,0,0,.869-.883A.867.867,0,0,0,9,13.773.889.889,0,0,0,8.118,14.646Zm0-6.194v2.8a.888.888,0,0,0,.88.873.872.872,0,0,0,.869-.873v-2.8a.875.875,0,0,0-1.75,0Zm11.21-1.489V5.188h-1.81a1.374,1.374,0,0,1,0-2.748h1.81V.667a1.356,1.356,0,1,1,2.711,0V2.441h1.813a1.374,1.374,0,0,1,0,2.748H22.038V6.963a1.356,1.356,0,1,1-2.711,0Z" fill="#fff"/>
  </g>
</svg>
