<svg xmlns="http://www.w3.org/2000/svg" width="208" height="208" viewBox="0 0 208 208">
  <g id="Group_44368" data-name="Group 44368" transform="translate(-762 -406)">
    <circle id="Ellipse_52" data-name="Ellipse 52" cx="104" cy="104" r="104" transform="translate(762 406)" fill="#0d6c71"/>
    <path id="Path_78455" data-name="Path 78455" d="M137.115,49.615V38.654A3.654,3.654,0,0,1,140.769,35h73.077a3.653,3.653,0,0,1,3.654,3.654v84.038a3.653,3.653,0,0,1-3.654,3.654H202.885v7.308a3.654,3.654,0,0,1-3.654,3.654H126.154a3.654,3.654,0,0,1-3.654-3.654V53.269a3.654,3.654,0,0,1,3.654-3.654Zm73.077,69.423h-7.308V53.269a3.653,3.653,0,0,0-3.654-3.654H144.423V42.308h65.769ZM195.577,130H129.808V56.923h65.769Zm-51.154-10.962h36.538a3.654,3.654,0,0,0,3.654-3.654h0a3.654,3.654,0,0,0-3.654-3.654H144.423a3.654,3.654,0,0,0-3.654,3.654h0A3.654,3.654,0,0,0,144.423,119.038Zm19.7-19.692,17.5-22.684a3.654,3.654,0,0,0-.661-5.125h0a3.654,3.654,0,0,0-5.124.661L160.656,91.88l-7.432-6.193a3.654,3.654,0,0,0-5.147.468h0a3.654,3.654,0,0,0,.468,5.146l10.347,8.622a3.654,3.654,0,0,0,5.232-.576Z" transform="translate(696.5 423.846)" fill="#fff" fill-rule="evenodd"/>
  </g>
</svg>
