<svg xmlns="http://www.w3.org/2000/svg" width="35" height="35" viewBox="0 0 35 35">
  <path id="Arrow_-_Left_Square" data-name="Arrow - Left Square" d="M10.342,35h14.3C30.836,35,35,31.012,35,25.077V9.9C35,3.981,30.836,0,24.64,0H10.34C4.156,0,0,3.981,0,9.9V25.077C0,31.012,4.156,35,10.342,35ZM18.06,9.63a1.3,1.3,0,0,1,.927.38l6.6,6.562a1.348,1.348,0,0,1,0,1.855l-6.6,6.563a1.321,1.321,0,0,1-1.855,0,1.342,1.342,0,0,1,0-1.873l4.341-4.3H10.359A1.314,1.314,0,0,1,9.047,17.5a1.3,1.3,0,0,1,1.312-1.312H21.472l-4.341-4.322a1.345,1.345,0,0,1-.384-.928,1.385,1.385,0,0,1,.384-.928,1.3,1.3,0,0,1,.929-.38Z" fill="#34baa1"/>
</svg>
