<svg xmlns="http://www.w3.org/2000/svg" width="35" height="35" viewBox="0 0 35 35">
  <path id="Arrow_-_Left_Square" data-name="Arrow - Left Square" d="M24.658,35H10.36C4.164,35,0,31.012,0,25.077V9.905C0,3.981,4.164,0,10.36,0h14.3C30.844,0,35,3.981,35,9.905V25.077C35,31.012,30.844,35,24.658,35ZM16.94,9.63a1.3,1.3,0,0,0-.927.38l-6.6,6.562a1.348,1.348,0,0,0,0,1.855l6.6,6.563a1.321,1.321,0,0,0,1.855,0,1.342,1.342,0,0,0,0-1.873l-4.341-4.3H24.641A1.314,1.314,0,0,0,25.953,17.5a1.3,1.3,0,0,0-1.312-1.312H13.528l4.341-4.322a1.345,1.345,0,0,0,.384-.928,1.385,1.385,0,0,0-.384-.928,1.3,1.3,0,0,0-.929-.38Z" fill="#8ed1c7"/>
</svg>
