<svg xmlns="http://www.w3.org/2000/svg" width="35" height="35" viewBox="0 0 35 35">
  <path id="Arrow_-_Left_Square" data-name="Arrow - Left Square" d="M24.658,0H10.36C4.164,0,0,3.988,0,9.923V25.095C0,31.019,4.164,35,10.36,35h14.3C30.844,35,35,31.019,35,25.095V9.923C35,3.988,30.844,0,24.658,0ZM16.94,25.37a1.3,1.3,0,0,1-.927-.38l-6.6-6.562a1.348,1.348,0,0,1,0-1.855l6.6-6.563a1.321,1.321,0,0,1,1.855,0,1.342,1.342,0,0,1,0,1.873l-4.341,4.3H24.641A1.314,1.314,0,0,1,25.953,17.5a1.3,1.3,0,0,1-1.312,1.312H13.528l4.341,4.322a1.345,1.345,0,0,1,.384.928,1.385,1.385,0,0,1-.384.928A1.3,1.3,0,0,1,16.94,25.37Z" transform="translate(35 35) rotate(180)" fill="#8ed1c7"/>
</svg>
