<svg xmlns="http://www.w3.org/2000/svg" width="13.146" height="14.364" viewBox="0 0 13.146 14.364">
  <path id="Path_78454" data-name="Path 78454" d="M322.366,389.59a6.637,6.637,0,0,1,.528-.689c1.192-1.207,2.4-2.4,3.6-3.6a.923.923,0,0,1,.924-.3.873.873,0,0,1,.476,1.367,2.2,2.2,0,0,1-.2.218l-2.126,2.126c-.051.05-.1.1-.188.2h.265c3.828,0,.655,0,4.483,0a5.347,5.347,0,0,1,2.093.371,5.2,5.2,0,0,1,1.832,8.432,4.977,4.977,0,0,1-2.975,1.545c-.238.036-.48.055-.72.081H326c-.068-.018-.137-.036-.2-.055a.876.876,0,0,1-.62-.97.866.866,0,0,1,.839-.742c.472-.01.944,0,1.416,0,1.934,0,.867,0,2.8,0a3.447,3.447,0,0,0,.366-6.881c-.222-.015-.445-.023-.668-.023h-4.55c.079.083.124.134.172.181q1.1,1.1,2.209,2.21a.877.877,0,0,1-1.1,1.363,2.476,2.476,0,0,1-.217-.2c-1.182-1.18-2.368-2.357-3.542-3.545a6.834,6.834,0,0,1-.529-.688Z" transform="translate(-322.366 -384.972)" fill="#638eef"/>
</svg>
