<svg width="74" height="74" viewBox="0 0 74 74" fill="none" xmlns="http://www.w3.org/2000/svg">
<path opacity="0.3" d="M37.0006 12.334C23.4032 12.334 12.334 23.4032 12.334 37.0006C12.334 50.5981 23.4032 61.6673 37.0006 61.6673C50.5981 61.6673 61.6673 50.5981 61.6673 37.0006C61.6673 23.4032 50.5981 12.334 37.0006 12.334ZM30.834 52.4173L18.5007 40.084L22.8481 35.7365L30.834 43.6915L51.1531 23.3723L55.5006 27.7506L30.834 52.4173Z" fill="#31BE00"/>
<path d="M36.9994 6.16602C19.9794 6.16602 6.16602 19.9794 6.16602 36.9994C6.16602 54.0194 19.9794 67.8327 36.9994 67.8327C54.0194 67.8327 67.8327 54.0194 67.8327 36.9994C67.8327 19.9794 54.0194 6.16602 36.9994 6.16602ZM36.9994 61.666C23.4018 61.666 12.3327 50.5969 12.3327 36.9994C12.3327 23.4018 23.4018 12.3327 36.9994 12.3327C50.5969 12.3327 61.666 23.4018 61.666 36.9994C61.666 50.5969 50.5969 61.666 36.9994 61.666ZM51.1519 23.371L30.8327 43.6902L22.8468 35.7352L18.4993 40.0827L30.8327 52.416L55.4994 27.7493L51.1519 23.371Z" fill="#31BE00"/>
</svg>
