<svg width="24" height="24" viewBox="0 0 24 24" fill="none" xmlns="http://www.w3.org/2000/svg">
<path d="M12.0002 0.333984C5.56016 0.333984 0.333496 5.56065 0.333496 12.0007C0.333496 18.4407 5.56016 23.6673 12.0002 23.6673C18.4402 23.6673 23.6668 18.4407 23.6668 12.0007C23.6668 5.56065 18.4402 0.333984 12.0002 0.333984ZM12.0002 21.334C6.85516 21.334 2.66683 17.1457 2.66683 12.0007C2.66683 6.85565 6.85516 2.66732 12.0002 2.66732C17.1452 2.66732 21.3335 6.85565 21.3335 12.0007C21.3335 17.1457 17.1452 21.334 12.0002 21.334ZM16.5268 7.67232L9.66683 14.5323L7.4735 12.339C7.0185 11.884 6.2835 11.884 5.8285 12.339C5.3735 12.794 5.3735 13.529 5.8285 13.984L8.85016 17.0057C9.30516 17.4607 10.0402 17.4607 10.4952 17.0057L18.1835 9.31732C18.6385 8.86232 18.6385 8.12732 18.1835 7.67232C17.7285 7.21732 16.9818 7.21732 16.5268 7.67232Z" fill="#093A54"/>
</svg>
