<svg xmlns="http://www.w3.org/2000/svg" width="26.18" height="20.651" viewBox="0 0 26.18 20.651">
  <g id="_9f5bdf3a3a7660778bac6f14fb601421" data-name=" 9f5bdf3a3a7660778bac6f14fb601421" transform="translate(-204.874 -1855.835)">
    <path id="Path_45561" data-name="Path 45561" d="M211.949,1853.271h12.206a3.649,3.649,0,0,1,3.649,3.649v13.354a3.649,3.649,0,0,1-3.649,3.649H211.949a3.648,3.648,0,0,1-2.58-1.069l-6.677-6.677a3.648,3.648,0,0,1,0-5.16l6.677-6.677A3.649,3.649,0,0,1,211.949,1853.271Z" transform="translate(3.25 2.564)" fill="#E1483D"/>
    <g id="Group_40083" data-name="Group 40083" transform="translate(217.964 1863.821)">
      <line id="Line_150" data-name="Line 150" x2="5.04" y2="5.04" transform="translate(0 0)" fill="none" stroke="#fff" stroke-linecap="round" stroke-linejoin="round" stroke-width="2"/>
      <line id="Line_151" data-name="Line 151" x1="5.04" y2="5.04" transform="translate(0 0)" fill="none" stroke="#fff" stroke-linecap="round" stroke-linejoin="round" stroke-width="2"/>
    </g>
  </g>
</svg>
