<svg id="Danger" xmlns="http://www.w3.org/2000/svg" width="20" height="18" viewBox="0 0 20 18">
  <g id="Danger-2" data-name="Danger">
    <path id="Danger-3" data-name="Danger" d="M17.317,18H2.68a3.128,3.128,0,0,1-.91-.2A2.806,2.806,0,0,1,.219,16.276,2.746,2.746,0,0,1,.21,14.147L7.529,1.433a2.738,2.738,0,0,1,1.1-1.08,2.846,2.846,0,0,1,3.849,1.089l7.268,12.615a2.937,2.937,0,0,1,.25,1,2.754,2.754,0,0,1-.73,2.022A2.843,2.843,0,0,1,17.317,18ZM10,12.273a.872.872,0,1,0,0,1.744.877.877,0,0,0,.869-.883A.866.866,0,0,0,10,12.273ZM10,6.09a.872.872,0,0,0-.88.862v2.8a.888.888,0,0,0,.88.873.872.872,0,0,0,.869-.873v-2.8A.867.867,0,0,0,10,6.09Z" fill="#dbdb46"/>
  </g>
</svg>
