<svg xmlns="http://www.w3.org/2000/svg" width="208" height="208" viewBox="0 0 208 208">
  <g id="Group_44339" data-name="Group 44339" transform="translate(-971 -2330)">
    <circle id="Ellipse_52" data-name="Ellipse 52" cx="104" cy="104" r="104" transform="translate(971 2330)" fill="#0d6c71"/>
    <g id="Group_44159" data-name="Group 44159" transform="translate(-479.586 1072.93)">
      <path id="Path_45444" data-name="Path 45444" d="M1554.546,1302.108a58.961,58.961,0,1,0,58.961,58.961A58.961,58.961,0,0,0,1554.546,1302.108Zm0,110.9a51.942,51.942,0,1,1,51.942-51.942A51.942,51.942,0,0,1,1554.546,1413.011Z" fill="#fff"/>
      <g id="Group_44008" data-name="Group 44008" transform="translate(1205.424 1099.904)">
        <g id="Group_44009" data-name="Group 44009" transform="translate(314.551 227.346)">
          <path id="Path_78550" data-name="Path 78550" d="M349.327,296.985a34.826,34.826,0,0,1-15.37-66.055,35.132,35.132,0,0,1,15.425-3.584,34.82,34.82,0,0,1,34.6,31.224h2.88a2.848,2.848,0,0,1,2.223,4.627l-6.549,8.186a2.848,2.848,0,0,1-4.448,0l-6.549-8.186a2.848,2.848,0,0,1,2.224-4.627h2.979A27.626,27.626,0,0,0,327.32,245.5l-.151.2a27.383,27.383,0,0,0-5.44,16.757,27.866,27.866,0,0,0,4.957,15.506,3.7,3.7,0,0,1,.333-.165c3.15-1.353,10.238-3.621,22.336-3.621s19.186,2.268,22.335,3.621l.029.012.028.015c2.349,1.189,3.656,2.675,3.884,4.418.245,1.866-.769,3.828-3.012,5.832l-.05.044A34.767,34.767,0,0,1,349.327,296.985Zm-17.779-13.068a26.709,26.709,0,0,0,16.808,6.323c6,0,12.072-2.2,18.075-6.533a68.49,68.49,0,0,0-17.771-2.4A54.685,54.685,0,0,0,331.548,283.918Z" transform="translate(-314.551 -227.346)" fill="#fff"/>
        </g>
        <path id="Path_78552" data-name="Path 78552" d="M373.776,272.215l-5.787-5.744,5.744-5.787a3.608,3.608,0,0,0-5.122-5.083l-5.743,5.787-5.787-5.744A3.608,3.608,0,1,0,352,260.765l5.787,5.744L352.04,272.3a3.608,3.608,0,0,0,5.122,5.083l5.743-5.787,5.787,5.744a3.608,3.608,0,0,0,5.083-5.122Z" transform="translate(-13.531 -9.528)" fill="#fff"/>
      </g>
    </g>
  </g>
</svg>
