<svg id="Delete" xmlns="http://www.w3.org/2000/svg" width="16" height="18" viewBox="0 0 16 18">
  <g id="Delete-2" data-name="Delete">
    <path id="Delete-3" data-name="Delete" d="M4.562,17.965a2.607,2.607,0,0,1-2.606-2.544C1.678,12.859,1.213,6.8,1.2,6.74a.718.718,0,0,1,.169-.5.626.626,0,0,1,.466-.211H14.168a.643.643,0,0,1,.466.211.68.68,0,0,1,.161.5c0,.062-.474,6.128-.745,8.681a2.606,2.606,0,0,1-2.663,2.544C10.236,17.991,9.111,18,8,18,6.828,18,5.678,17.991,4.562,17.965ZM.635,4.582A.653.653,0,0,1,0,3.921V3.579a.647.647,0,0,1,.635-.66H3.226a1.144,1.144,0,0,0,1.1-.914l.136-.614A1.771,1.771,0,0,1,6.165,0h3.67a1.77,1.77,0,0,1,1.691,1.348L11.672,2a1.142,1.142,0,0,0,1.1.914h2.591a.647.647,0,0,1,.634.66v.342a.653.653,0,0,1-.634.661Z" fill="#E5E5E5"/>
  </g>
</svg>
