<svg id="Group_41082" data-name="Group 41082" xmlns="http://www.w3.org/2000/svg" width="42.857" height="42.857" viewBox="0 0 42.857 42.857">
  <circle id="Ellipse_94" data-name="Ellipse 94" cx="21.429" cy="21.429" r="21.429" fill="#f55e5e"/>
  <g id="Delete" transform="translate(11.428 9.935)">
    <path id="Delete-2" data-name="Delete" d="M5.7,22.179a3.24,3.24,0,0,1-3.257-3.141C2.1,15.875,1.516,8.4,1.506,8.321a.88.88,0,0,1,.211-.62.787.787,0,0,1,.582-.26H17.71a.809.809,0,0,1,.582.26.833.833,0,0,1,.2.62c0,.076-.592,7.565-.931,10.717a3.241,3.241,0,0,1-3.329,3.141c-1.438.032-2.844.043-4.228.043C8.535,22.222,7.1,22.211,5.7,22.179ZM.794,5.657A.811.811,0,0,1,0,4.841V4.419A.8.8,0,0,1,.794,3.6H4.033A1.425,1.425,0,0,0,5.412,2.476l.17-.758A2.208,2.208,0,0,1,7.706,0h4.588a2.207,2.207,0,0,1,2.114,1.664l.182.811A1.423,1.423,0,0,0,15.969,3.6h3.239A.8.8,0,0,1,20,4.419v.422a.811.811,0,0,1-.792.816Z" fill="#fff"/>
  </g>
</svg>
