<svg xmlns="http://www.w3.org/2000/svg" width="208" height="208" viewBox="0 0 208 208">
  <g id="Group_44365" data-name="Group 44365" transform="translate(-762 -406)">
    <circle id="Ellipse_52" data-name="Ellipse 52" cx="104" cy="104" r="104" transform="translate(762 406)" fill="#0d6c71"/>
    <g id="Group_44138" data-name="Group 44138" transform="translate(-688.586 -851.107)">
      <path id="Path_45441" data-name="Path 45441" d="M1560.754,1425.577c-4.034,0-8.069.019-12.1-.008-2.51-.017-4.071-1.353-4.122-3.436-.055-2.22,1.465-3.536,4.194-3.541q12.1-.024,24.208,0c2.753,0,4.24,1.268,4.222,3.506-.018,2.219-1.533,3.464-4.294,3.475C1568.824,1425.589,1564.79,1425.577,1560.754,1425.577Z" transform="translate(-26.04 -61.97)" fill="#fff"/>
      <path id="Path_45442" data-name="Path 45442" d="M1572.978,1395.5c-2.794,0-5.588.027-8.381-.009-2.532-.033-4.065-1.344-4.137-3.446-.072-2.084,1.434-3.617,3.934-3.652q8.611-.121,17.226-.009c2.594.032,3.992,1.4,4,3.566s-1.594,3.516-4.265,3.544C1578.566,1395.522,1575.771,1395.5,1572.978,1395.5Z" transform="translate(-34.516 -45.875)" fill="#fff"/>
      <path id="Path_45443" data-name="Path 45443" d="M1579.545,1448.46c2.321,0,4.644-.05,6.963.015a3.506,3.506,0,1,1,.135,7.011q-7.076.138-14.157,0a3.432,3.432,0,0,1-3.6-3.692c.082-1.965,1.474-3.269,3.7-3.326C1574.9,1448.415,1577.224,1448.46,1579.545,1448.46Z" transform="translate(-38.996 -77.858)" fill="#fff"/>
      <path id="Path_45444" data-name="Path 45444" d="M1554.546,1302.108a58.961,58.961,0,1,0,58.961,58.961A58.961,58.961,0,0,0,1554.546,1302.108Zm0,110.9a51.942,51.942,0,1,1,51.942-51.942A51.942,51.942,0,0,1,1554.546,1413.011Z" fill="#fff"/>
      <g id="Group_39918" data-name="Group 39918" transform="translate(1556.407 1326.464)">
        <path id="Path_45445" data-name="Path 45445" d="M1674.961,1367.663l-8.743-1.263a.949.949,0,0,1-.81-.883l-.18-3.348c0-.075-.011-.15-.019-.225a6.979,6.979,0,0,0-5.923-6.077h0l-11.3-1.632-.031,0a6.975,6.975,0,0,0-7.4,4.153c-.03.069-.057.139-.082.211l-1.12,3.158a.948.948,0,0,1-1.027.62l-8.746-1.263a3.51,3.51,0,1,0-1,6.947l8.747,1.264h0l27.894,4.029h0l8.744,1.263a3.51,3.51,0,0,0,1-6.947Zm-27.967-6.48,11.24,1.623.132,2.46-12.2-1.761Z" transform="translate(-1625.561 -1354.157)" fill="#fff"/>
      </g>
      <path id="Path_45446" data-name="Path 45446" d="M1685.207,1432.5c-8.016.086-21.514.068-27.339-.055-.064,0-.129,0-.194,0a2.415,2.415,0,0,1-1.776-.665,2.475,2.475,0,0,1-.786-1.745c0-.1-.008-.21-.021-.314-.841-7.6-2.293-25.618-2.307-25.8a3.509,3.509,0,1,0-7,.563c.059.739,1.458,18.1,2.312,25.872a9.5,9.5,0,0,0,9.705,9.108c3.459.073,7.029.109,10.684.109,2.7,0,11.622-.02,16.717-.06Z" transform="translate(-79.911 -52.453)" fill="#fff"/>
    </g>
  </g>
</svg>
