<svg xmlns="http://www.w3.org/2000/svg" width="16" height="18" viewBox="0 0 16 18">
  <path id="Document" d="M11.726,18H4.276C1.559,18,0,16.413,0,13.645v-9.3a4.451,4.451,0,0,1,1.125-3.2A4.293,4.293,0,0,1,4.276,0h7.45C14.442,0,16,1.585,16,4.347v9.3a4.434,4.434,0,0,1-1.108,3.224A4.253,4.253,0,0,1,11.726,18ZM4.445,12.363a.693.693,0,0,0-.6.336.726.726,0,0,0,0,.756.7.7,0,0,0,.58.33.63.63,0,0,0,.087-.006h6.969a.712.712,0,0,0,0-1.413H4.516C4.492,12.364,4.469,12.363,4.445,12.363Zm.071-4.1a.7.7,0,0,0,0,1.405h6.969a.7.7,0,0,0,0-1.405Zm0-4.076v.009h0a.7.7,0,0,0,0,1.4H7.173a.706.706,0,0,0,0-1.413Z" fill="#c8d4e2"/>
</svg>
