<svg id="Edit" xmlns="http://www.w3.org/2000/svg" width="18" height="18" viewBox="0 0 18 18">
  <g id="Edit-2" data-name="Edit">
    <path id="Edit-3" data-name="Edit" d="M11.28,18a1.023,1.023,0,0,1,0-2.047H16.99a1.023,1.023,0,0,1,0,2.047ZM.847,17.576l-.8-3.451a2.133,2.133,0,0,1,.4-1.795L6.684,4.269a.313.313,0,0,1,.425-.054L9.73,6.3a.847.847,0,0,0,.647.183.945.945,0,0,0,.817-1.043,1.05,1.05,0,0,0-.329-.634L8.318,2.763a.379.379,0,0,1-.064-.526L9.242.957A2.583,2.583,0,0,1,13.03.7l1.475,1.172a3.064,3.064,0,0,1,1.146,1.752,2.4,2.4,0,0,1-.488,2.042L6.376,17.028a2.1,2.1,0,0,1-1.634.817l-3.5.043A.4.4,0,0,1,.847,17.576Z" fill="#3e7fc1"/>
  </g>
</svg>
