<svg xmlns="http://www.w3.org/2000/svg" width="18.625" height="18.625" viewBox="0 0 18.625 18.625">
  <path id="Path_78478" data-name="Path 78478" d="M340.587,335.966v4.657a.466.466,0,0,0,.466.465h6.519a.466.466,0,0,0,.466-.465v-4.657a.466.466,0,0,1,.466-.466h1.011a.928.928,0,0,1,.658.273l3.18,3.179a.931.931,0,0,1,.273.658v13.583a.932.932,0,0,1-.931.931H335.931a.932.932,0,0,1-.931-.931V336.431a.932.932,0,0,1,.931-.931h4.191a.466.466,0,0,1,.466.466Zm4.191-.466h.931a.466.466,0,0,1,.466.466v2.794a.465.465,0,0,1-.466.466h-.931a.465.465,0,0,1-.466-.466v-2.794A.466.466,0,0,1,344.778,335.5Zm-7.916,7.916V351.8a.465.465,0,0,0,.466.466H351.3a.466.466,0,0,0,.466-.466v-8.381a.465.465,0,0,0-.466-.465H337.328a.465.465,0,0,0-.466.465Zm2.794,1.4h9.313a.931.931,0,1,1,0,1.862h-9.312a.931.931,0,1,1,0-1.862Zm0,3.726h9.313a.931.931,0,1,1,0,1.862h-9.312a.931.931,0,1,1,0-1.862Z" transform="translate(-335 -335.5)" fill="#ffffff" fill-rule="evenodd"/>
</svg>
