<svg id="Group_43917" data-name="Group 43917" xmlns="http://www.w3.org/2000/svg" width="89.99" height="90.114" viewBox="0 0 89.99 90.114">
  <path id="Path_78494" data-name="Path 78494" d="M275.688,163.676H274.9v-7.183A10.353,10.353,0,0,0,264.47,146.16H262.8a10.479,10.479,0,0,0-10.431,10.333v7.183h-.787a6.342,6.342,0,0,0-6.3,6.3v14.17a6.342,6.342,0,0,0,6.3,6.3h23.912a6.342,6.342,0,0,0,6.3-6.3V170.072a6.079,6.079,0,0,0-6.1-6.4Zm-18.3-7.085a5.4,5.4,0,0,1,5.412-5.412h1.673a5.4,5.4,0,0,1,5.412,5.412v7.183h-12.5Zm19.681,27.652a1.345,1.345,0,0,1-1.378,1.378H251.677a1.345,1.345,0,0,1-1.378-1.378v-14.17a1.345,1.345,0,0,1,1.378-1.378h23.912a1.345,1.345,0,0,1,1.378,1.378Z" transform="translate(-218.638 -124.634)" fill="#006165"/>
  <path id="Path_78495" data-name="Path 78495" d="M338.46,308.56a2.46,2.46,0,1,0,2.46,2.46A2.436,2.436,0,0,0,338.46,308.56Z" transform="translate(-293.415 -258.497)" fill="#006165"/>
  <path id="Path_78496" data-name="Path 78496" d="M323.157,76.041a2.46,2.46,0,0,0,0-4.92h-10.53a2.436,2.436,0,0,0-2.46,2.46v10.53a2.46,2.46,0,0,0,4.92,0V79.584a39.606,39.606,0,0,1,10.333,17.91,41.238,41.238,0,0,1,0,20.763,39.6,39.6,0,0,1-10.333,17.91,40.129,40.129,0,0,1-17.91,10.333,41.238,41.238,0,0,1-20.763,0,2.494,2.494,0,0,0-1.279,4.821,46.478,46.478,0,0,0,11.611,1.575,41.846,41.846,0,0,0,11.611-1.575,46.274,46.274,0,0,0,20.173-11.611,45.121,45.121,0,0,0,11.611-43.495,46.274,46.274,0,0,0-11.611-20.173Z" transform="translate(-241.702 -62.781)" fill="#006165"/>
  <path id="Path_78497" data-name="Path 78497" d="M110.363,40.365a40.126,40.126,0,0,1,17.91-10.333,41.238,41.238,0,0,1,20.763,0,2.494,2.494,0,1,0,1.279-4.821A45.059,45.059,0,0,0,95.209,80.416a46.275,46.275,0,0,0,11.611,20.173h-4.527a2.46,2.46,0,1,0,0,4.92h10.53a2.436,2.436,0,0,0,2.46-2.46V92.519a2.46,2.46,0,1,0-4.92,0v4.527a39.607,39.607,0,0,1-10.333-17.91,41.238,41.238,0,0,1,0-20.763,40.453,40.453,0,0,1,10.333-18.008Z" transform="translate(-93.659 -23.66)" fill="#006165"/>
</svg>
