<svg width="140" height="140" viewBox="0 0 140 140" fill="none" xmlns="http://www.w3.org/2000/svg">
<rect width="140" height="140" rx="8" fill="white"/>
<path d="M74.913 52H65.0852V59.8479H74.913V52Z" fill="#3373B5"/>
<path d="M77.6147 52V59.8479H87.7666C86.8486 54.898 83.1947 52.018 77.6147 52Z" fill="#3373B5"/>
<path d="M52.0002 62.5469V77.5407C52.0002 84.0927 55.9062 87.9986 62.4581 87.9986H77.5419C84.0939 87.9986 87.9998 84.0927 87.9998 77.5407V62.5469H52.0002ZM74.392 77.5227L70.648 79.6827C69.856 80.1327 69.082 80.3667 68.3621 80.3667C67.8221 80.3667 67.3361 80.2407 66.8861 79.9887C65.8421 79.3947 65.2661 78.1707 65.2661 76.5867V72.2668C65.2661 70.6828 65.8421 69.4588 66.8861 68.8648C67.9301 68.2528 69.262 68.3608 70.648 69.1708L74.392 71.3308C75.778 72.1228 76.534 73.2388 76.534 74.4448C76.534 75.6508 75.76 76.7127 74.392 77.5227Z" fill="#3373B5"/>
<path d="M62.3841 52C56.8041 52.018 53.1502 54.898 52.2322 59.8479H62.3841V52Z" fill="#3373B5"/>
</svg>
