<svg xmlns="http://www.w3.org/2000/svg" width="35" height="35" viewBox="0 0 26 26">
  <g id="Group_48645" data-name="Group 48645" transform="translate(631 1022) rotate(180)">
    <g id="Iconly_Bold_Arrow_-_Left_Square" data-name="Iconly/Bold/Arrow - Left Square" transform="translate(605 996)">
      <g id="Arrow_-_Left_Square" data-name="Arrow - Left Square" transform="translate(0 0)">
        <path id="Arrow_-_Left_Square-2" data-name="Arrow - Left Square" d="M18.317,0H7.7C3.094,0,0,2.953,0,7.358V18.629C0,23.036,3.094,26,7.7,26H18.317C22.906,26,26,23.036,26,18.629V7.358C26,2.953,22.906,0,18.317,0Z" fill="#8FDFE2"/>
      </g>
    </g>
    <g id="Group_48643" data-name="Group 48643" transform="translate(-628.225 -123.407)">
      <path id="Path_86118" data-name="Path 86118" d="M1242.572,1132.461l4.27-4.282a1.009,1.009,0,0,0,.289-.7,1.03,1.03,0,0,0-.289-.7.989.989,0,0,0-1.391,0l-4.95,4.924a1.014,1.014,0,0,0,0,1.391l4.95,4.926a.989.989,0,0,0,1.391,0,1.008,1.008,0,0,0,0-1.4Z" fill="#fff"/>
      <path id="Path_86119" data-name="Path 86119" d="M1247.441,1132.461l4.27-4.282a1.009,1.009,0,0,0,.289-.7,1.03,1.03,0,0,0-.289-.7.991.991,0,0,0-1.392,0l-4.949,4.924a1.014,1.014,0,0,0,0,1.391l4.949,4.926a.99.99,0,0,0,1.392,0,1.01,1.01,0,0,0,0-1.4Z" fill="#fff"/>
    </g>
  </g>
</svg>
