<svg xmlns="http://www.w3.org/2000/svg" width="25.234" height="20.999" viewBox="0 0 25.234 20.999">
  <path id="Path_78802" data-name="Path 78802" d="M343.672,328.121a6.486,6.486,0,0,0-5.2-1.851,8.16,8.16,0,0,0-4.328,1.723A7.062,7.062,0,0,0,329.713,326a7.219,7.219,0,0,0-7.24,7.239,7.489,7.489,0,0,0,.135,1.417h-2.05v1.993h2.755a6.9,6.9,0,0,0,1.275,1.722l.021.021,8.841,8.336a1.015,1.015,0,0,0,.684.27,1,1,0,0,0,.684-.27l8.841-8.336.021-.021a7.261,7.261,0,0,0-.007-10.25Zm-1.4,8.827-8.137,7.681-8.15-7.681c-.093-.093-.185-.221-.27-.292h2.15a.993.993,0,0,0,.89-.541l.427-.847.847,2.534a1,1,0,0,0,1.779.235l1.2-1.808h.548l1.488,3.474a1,1,0,0,0,.918.605H336a.985.985,0,0,0,.9-.684l1.566-4.684.74,1.232a1,1,0,0,0,.855.484h2.477a3.548,3.548,0,0,0-.27.292Zm1.331-2.285h-2.975l-1.566-2.6a.992.992,0,0,0-1.794.2l-1.417,4.243-.712-1.666a.987.987,0,0,0-.918-.6h-1.744a1,1,0,0,0-.833.441l-.37.555-.954-2.847a.994.994,0,0,0-1.829-.135l-1.239,2.406h-2.6a5.085,5.085,0,0,1-.192-1.417A5.225,5.225,0,0,1,329.706,328c1.039,0,2.328.712,3.73,2.05a.993.993,0,0,0,1.388-.014c1.922-1.9,5.31-2.634,7.439-.505a5.211,5.211,0,0,1,1.53,3.716,4.8,4.8,0,0,1-.192,1.417Z" transform="translate(-320.559 -326)" fill="#1e999d"/>
</svg>
