<svg xmlns="http://www.w3.org/2000/svg" width="27.969" height="24.31" viewBox="0 0 27.969 24.31">
  <path id="Path_78810" data-name="Path 78810" d="M92.17,61.128l-4.119-1.9c-.027-.014-.055-.027-.082-.043a.927.927,0,0,1-.273-.244.941.941,0,0,1-.132-.876.981.981,0,0,1,.132-.243.936.936,0,0,1,.273-.244c.027-.016.055-.028.082-.043l12.12-5.594a.9.9,0,0,1,.169-.059,1.114,1.114,0,0,1,.267-.026l.09.009a.937.937,0,0,1,.173.042c.028.01.055.022.083.034l12.12,5.594.014.006.058.031.01.006a.936.936,0,0,1,.273.244.98.98,0,0,1,.132.243l.007.021a.18.18,0,0,0,.007.021c0,.008,0,.017.007.026a.955.955,0,0,1,.033.224c0,.009,0,.016,0,.024v12.35a2.689,2.689,0,0,1,.341.147,2.8,2.8,0,1,1-2.547,0,2.692,2.692,0,0,1,.341-.147V59.837l-2.784,1.285c.042,2.217-.013,4.435-.013,6.652v.009c0,.02,0,.042,0,.063a2.679,2.679,0,0,1-.032.355,2.837,2.837,0,0,1-.094.413,4.07,4.07,0,0,1-1.586,2.037A8.729,8.729,0,0,1,104.53,71.9a13.642,13.642,0,0,1-2.567.469,15.664,15.664,0,0,1-2.8,0,14.3,14.3,0,0,1-1.872-.29,11.973,11.973,0,0,1-1.355-.39q-.392-.14-.771-.311c-.192-.087-.381-.182-.567-.283-.159-.086-.313-.179-.464-.278a4.5,4.5,0,0,1-1.683-1.814,2.952,2.952,0,0,1-.269-1.018c-.006-.075-.01-.15-.008-.226-.059-2.211-.009-4.424,0-6.635Zm20.487,11.308a.935.935,0,0,0-.879.7.952.952,0,0,0-.021.353.925.925,0,0,0,.074.263.963.963,0,0,0,.191.277.951.951,0,0,0,.277.191.941.941,0,0,0,.724.018.967.967,0,0,0,.285-.178.95.95,0,0,0,.2-.267.911.911,0,0,0,.087-.258.932.932,0,0,0-.845-1.094l-.1,0Zm-5.576-10.444-6.129,2.829a.983.983,0,0,1-.169.06.935.935,0,0,1-.444,0,.983.983,0,0,1-.169-.06L94.06,62c.016,1.924-.025,3.85-.025,5.774h0c0,.04,0,.08.008.121s.014.082.023.122a1.705,1.705,0,0,0,.444.724,4.473,4.473,0,0,0,1.308.888c.2.1.4.18.609.257a10.135,10.135,0,0,0,1.581.441,13.082,13.082,0,0,0,2.016.231,13.828,13.828,0,0,0,2.282-.1,11.4,11.4,0,0,0,1.851-.391c.226-.068.448-.144.668-.231.162-.063.323-.132.481-.208a4.557,4.557,0,0,0,1.278-.858,1.8,1.8,0,0,0,.451-.68,1.127,1.127,0,0,0,.049-.223c0-.028,0-.057,0-.086-.051-1.93-.021-3.862-.007-5.794ZM90.666,58.38l9.9,4.567,9.9-4.567-9.9-4.566-9.9,4.566Z" transform="translate(-87.51 -51.855)" fill="#1e999d" fill-rule="evenodd"/>
</svg>
