<svg xmlns="http://www.w3.org/2000/svg" width="34.851" height="17.823" viewBox="0 0 34.851 17.823">
  <g id="Group_44694" data-name="Group 44694" transform="translate(-327.491 -340.056)">
    <path id="Path_78813" data-name="Path 78813" d="M359.274,340.056a.934.934,0,0,1,.925.944.917.917,0,0,1-.022.189.133.133,0,0,0,.018-.02.5.5,0,0,0,.012-.087.29.29,0,0,0,0-.039h0V346.4c0,2.241,0,3.777.005,4.482h.326a.937.937,0,0,1,.939.933v1.307a.931.931,0,0,1-.087,1.859h-5.783a3.747,3.747,0,0,1-7.288.017h-8.585a3.754,3.754,0,0,1-7.3,0h-3.992a.931.931,0,0,1-.087-1.859l.015-5.541a.937.937,0,0,1,.922-.931l1.562-.026,5.462-6.234a.939.939,0,0,1,.707-.32l22.249-.033h0Zm-.944,1.868-20.878.031-5.458,6.227a.94.94,0,0,1-.692.32l-1.059.017-.011,4.614h2.2a3.758,3.758,0,0,1,7.314,0h8.566a3.747,3.747,0,0,1,7.294-.017h4v-.365h-.325a.937.937,0,0,1-.939-.931s0-2.707-.006-5.414v-4.483Zm-6.373,10.183a1.953,1.953,0,1,0,1.888,2.017c0-.024,0-.049,0-.072a1.9,1.9,0,0,0-1.859-1.947h-.03Zm-15.861,0a1.953,1.953,0,1,0,1.888,2.017c0-.024,0-.049,0-.072A1.917,1.917,0,0,0,336.1,352.1h-.006Z" transform="translate(0 0)" fill="#1e999d"/>
    <path id="Path_78814" data-name="Path 78814" d="M343.909,343.088a.937.937,0,0,1,.939.913l.087,3.786h0a.93.93,0,0,1-.261.669.942.942,0,0,1-.663.285l-7.93.1h0a.94.94,0,0,1-.865-.543.929.929,0,0,1,.148-1.007l3.443-3.885a.939.939,0,0,1,.7-.317Z" transform="translate(-0.982 -0.39)" fill="#1e999d"/>
  </g>
</svg>
