<svg xmlns="http://www.w3.org/2000/svg" width="28.391" height="31.785" viewBox="0 0 28.391 31.785">
  <g id="Group_44688" data-name="Group 44688" transform="translate(-3586.276 -1198.153)">
    <path id="Path_78800" data-name="Path 78800" d="M3774.263,1198.153a12.114,12.114,0,0,1,1.451.417,5.093,5.093,0,1,1-2.772-.358,1.5,1.5,0,0,0,.2-.059Zm2.692,5.1a3.239,3.239,0,1,0-3.222,3.246A3.242,3.242,0,0,0,3776.955,1203.253Z" transform="translate(-171.184)" fill="#1e999d"/>
    <path id="Path_78801" data-name="Path 78801" d="M3617.667,1399.889a11.792,11.792,0,0,1-2.579,5.592.315.315,0,0,0-.048.426,2.724,2.724,0,0,1-.3,3.162,45.433,45.433,0,0,1-3.412,3.343,8.656,8.656,0,0,1-5.589,2.079,7.931,7.931,0,0,0-4.155,1.052,11.661,11.661,0,0,0-1.705,1.331c-.781.723-1.51,1.5-2.25,2.247l-8.352-8.354,6.085-6.079a11.275,11.275,0,0,1-1.583-3.281c-.141-.495-.264-1-.4-1.518Zm-20.038,16.6c.125-.132.245-.261.366-.387a12.178,12.178,0,0,1,2.618-2.173,10.184,10.184,0,0,1,5.014-1.3,7.379,7.379,0,0,0,5.173-2.217c.651-.637,1.29-1.286,1.934-1.93.183-.183.375-.359.543-.554a.957.957,0,0,0-1.381-1.324c-.122.112-.235.233-.353.35a9.47,9.47,0,0,1-6.947,2.865l-6.365,0h-.331v-1.849c.1-.006.177-.016.257-.016,1.149,0,2.3.01,3.446-.009a1.556,1.556,0,0,0,.7-.186,1.049,1.049,0,0,0,.46-1.188,1.065,1.065,0,0,0-1.058-.8q-2.313,0-4.626.015a.593.593,0,0,0-.367.171q-2.336,2.319-4.657,4.652c-.055.056-.1.119-.143.166Zm17.565-14.737H3595.8c.393.67.753,1.278,1.107,1.891a.525.525,0,0,0,.527.279c1.407-.019,2.814-.02,4.221-.022a2.943,2.943,0,0,1,2.9,3.809,1.758,1.758,0,0,0-.03.221,7.49,7.49,0,0,0,2.293-.252,7.91,7.91,0,0,0,3.683-2.308,2.8,2.8,0,0,1,2.714-.848.35.35,0,0,0,.277-.049A9.2,9.2,0,0,0,3615.194,1401.752Z" transform="translate(-3 -189.183)" fill="#1e999d"/>
  </g>
</svg>
