<svg xmlns="http://www.w3.org/2000/svg" width="21.956" height="21.962" viewBox="0 0 21.956 21.962">
  <g id="Group_44691" data-name="Group 44691" transform="translate(-71.668 -74.476)">
    <g id="Group_44689" data-name="Group 44689" transform="translate(71.668 74.476)">
      <path id="Path_78803" data-name="Path 78803" d="M73.673,96.438a2,2,0,0,1-2-2V79.709a2,2,0,0,1,2-2.005h4.986a4.076,4.076,0,0,1,7.973,0h4.986a2,2,0,0,1,2,2.005V94.433a2,2,0,0,1-2,2Zm-.3-2a.3.3,0,0,0,.3.3H91.619a.3.3,0,0,0,.3-.3V85.165H73.377ZM91.914,83.456V79.709a.294.294,0,0,0-.087-.209.3.3,0,0,0-.209-.087h-4.99a4.073,4.073,0,0,1-.67,1.512h1.748a.855.855,0,1,1,0,1.709H77.584a.855.855,0,1,1,0-1.709h1.748a4.072,4.072,0,0,1-.67-1.512h-4.99a.3.3,0,0,0-.209.087.294.294,0,0,0-.087.209v3.747Zm-9.269-7.264a2.367,2.367,0,1,0,1.673.693A2.351,2.351,0,0,0,82.646,76.192Z" transform="translate(-71.668 -74.476)" fill="#1e999d"/>
    </g>
    <g id="Group_44690" data-name="Group 44690" transform="translate(78.34 85.526)">
      <path id="Path_78804" data-name="Path 78804" d="M245.131,362.791a1.554,1.554,0,0,1-1.078-.431l0,0c-2.137-2.081-3.221-3.666-3.221-4.709a2.961,2.961,0,0,1,.847-2.168,3.043,3.043,0,0,1,2.193-.833h.014a2.978,2.978,0,0,1,1.251.277,2.978,2.978,0,0,1,1.251-.277h.017a3.042,3.042,0,0,1,2.191.833,2.961,2.961,0,0,1,.847,2.168c0,1.051-1.087,2.636-3.231,4.71A1.556,1.556,0,0,1,245.131,362.791Zm-1.258-6.435a1.184,1.184,0,0,0-1.334,1.292c0,.322.707,1.519,2.6,3.381,1.889-1.862,2.6-3.059,2.6-3.381a1.183,1.183,0,0,0-1.331-1.292h-.011a1.258,1.258,0,0,0-.75.246.854.854,0,0,1-1.009,0,1.259,1.259,0,0,0-.75-.246Z" transform="translate(-240.83 -354.646)" fill="#1e999d"/>
    </g>
  </g>
</svg>
