<svg xmlns="http://www.w3.org/2000/svg" width="14" height="13.98" viewBox="0 0 19.5 21.5">
  <g id="Iconly_Light_Calendar" data-name="Iconly/Light/Calendar" transform="translate(0.75 0.75)">
    <g id="Calendar" transform="translate(-3 -2)">
      <path id="Line_200" d="M0,.473H17.824" transform="translate(3.093 8.931)" fill="none" stroke="#1E999D" stroke-linecap="round" stroke-linejoin="round" stroke-width="1.5"/>
      <path id="Line_201" d="M.459.473H.468" transform="translate(15.984 12.837)" fill="none" stroke="#1E999D" stroke-linecap="round" stroke-linejoin="round" stroke-width="1.5"/>
      <path id="Line_202" d="M.459.473H.468" transform="translate(11.546 12.837)" fill="none" stroke="#1E999D" stroke-linecap="round" stroke-linejoin="round" stroke-width="1.5"/>
      <path id="Line_203" d="M.459.473H.468" transform="translate(7.099 12.837)" fill="none" stroke="#1E999D" stroke-linecap="round" stroke-linejoin="round" stroke-width="1.5"/>
      <path id="Line_204" d="M.459.473H.468" transform="translate(15.984 16.723)" fill="none" stroke="#1E999D" stroke-linecap="round" stroke-linejoin="round" stroke-width="1.5"/>
      <path id="Line_205" d="M.459.473H.468" transform="translate(11.546 16.723)" fill="none" stroke="#1E999D" stroke-linecap="round" stroke-linejoin="round" stroke-width="1.5"/>
      <path id="Line_206" d="M.459.473H.468" transform="translate(7.099 16.723)" fill="none" stroke="#1E999D" stroke-linecap="round" stroke-linejoin="round" stroke-width="1.5"/>
      <path id="Line_207" d="M.463,0V3.291" transform="translate(15.581 2)" fill="none" stroke="#1E999D" stroke-linecap="round" stroke-linejoin="round" stroke-width="1.5"/>
      <path id="Line_208" d="M.463,0V3.291" transform="translate(7.502 2)" fill="none" stroke="#1E999D" stroke-linecap="round" stroke-linejoin="round" stroke-width="1.5"/>
      <path id="Path" d="M13.238,0H4.771C1.834,0,0,1.636,0,4.643v9.05c0,3.054,1.834,4.728,4.771,4.728h8.458c2.946,0,4.771-1.645,4.771-4.652V4.643C18.009,1.636,16.184,0,13.238,0Z" transform="translate(3 3.579)" fill="none" stroke="#1E999D" stroke-linecap="round" stroke-linejoin="round" stroke-width="1.5"/>
    </g>
  </g>
</svg>
