<svg xmlns="http://www.w3.org/2000/svg" width="27.743" height="24" viewBox="0 0 27.743 24">
  <g id="Group_44693" data-name="Group 44693" transform="translate(-82.006 -118.662)">
    <path id="Path_78811" data-name="Path 78811" d="M294.456,320.853a4.256,4.256,0,0,0,1.33-3.053,4.71,4.71,0,0,0-4.886-4.5h-.154a3.74,3.74,0,0,1-2.926-1.732.906.906,0,0,0-1.525-.193.921.921,0,0,0-.1.149,3.766,3.766,0,0,1-2.954,1.775h-.154a4.71,4.71,0,0,0-4.886,4.5,4.257,4.257,0,0,0,1.33,3.053,2.212,2.212,0,0,0-1.217,1.9,2.494,2.494,0,0,0,2.664,2.271h12.033a2.5,2.5,0,0,0,2.664-2.271,2.21,2.21,0,0,0-1.216-1.9Zm-11.371-5.739h.154a5.193,5.193,0,0,0,3.753-1.7,5.194,5.194,0,0,0,3.754,1.7h.154a2.9,2.9,0,0,1,3.075,2.687,2.953,2.953,0,0,1-3.156,2.686h-7.653a2.952,2.952,0,0,1-3.156-2.686,2.9,2.9,0,0,1,3.075-2.687Zm9.923,8.1H280.976c-.513,0-.853-.277-.853-.46s.34-.46.853-.46h12.033c.513,0,.853.277.853.46s-.34.46-.853.46Z" transform="translate(-186.037 -182.425)" fill="#1e999d"/>
    <path id="Path_78812" data-name="Path 78812" d="M92.779,126.39a2.578,2.578,0,0,0-.591-1.693,2.788,2.788,0,0,0,.657-1.782,3.082,3.082,0,0,0-3.184-2.961h-.089a1.765,1.765,0,0,1-1.338-.8.907.907,0,0,0-.806-.493h-.006a.907.907,0,0,0-.806.492,1.783,1.783,0,0,1-1.364.8H85.19a3.082,3.082,0,0,0-3.184,2.961,2.784,2.784,0,0,0,.657,1.782,2.577,2.577,0,0,0-.591,1.693,2.151,2.151,0,0,0,1.806,2.32v13.047a.906.906,0,0,0,1.812,0V128.715h3.472v7.347a.906.906,0,1,0,1.812,0v-7.353a2.15,2.15,0,0,0,1.807-2.319Zm-1.966-.514a.932.932,0,0,1,0,1.028H84.037a.934.934,0,0,1,0-1.028Zm-5.594-4.111h.06a3.258,3.258,0,0,0,2.146-.827,3.256,3.256,0,0,0,2.147.827h.089a1.293,1.293,0,0,1,1.372,1.15,1.306,1.306,0,0,1-1.418,1.149H85.236a1.174,1.174,0,1,1-.018-2.3Z" fill="#1e999d"/>
  </g>
</svg>
