<svg xmlns="http://www.w3.org/2000/svg" width="29.086" height="20" viewBox="0 0 29.086 20">
  <g id="Group_44687" data-name="Group 44687" transform="translate(-3818.368 -1725.375)">
    <path id="Path_78798" data-name="Path 78798" d="M3835.913,1744.615a.983.983,0,0,1-1.058.757h-12.38c-.783,0-1.106-.328-1.106-1.117q0-5.85,0-11.7a7.269,7.269,0,0,1,14.462-.959,7.442,7.442,0,0,1,.074,1.089q.009,4.447,0,8.894v.323a7.412,7.412,0,0,1,2.2-4.466,7.271,7.271,0,0,1,4.57-2.066,4.614,4.614,0,0,1-3.214-1.949,4.368,4.368,0,0,1-.685-3.709,4.575,4.575,0,0,1,4.829-3.415,4.644,4.644,0,0,1,4.064,3.778,4.463,4.463,0,0,1-.883,3.5,4.646,4.646,0,0,1-3.116,1.794,6.971,6.971,0,0,1,2.3.562,7.078,7.078,0,0,1,4.415,5.889,22.229,22.229,0,0,1,.057,2.714.886.886,0,0,1-.962.836c-.521.009-1.043,0-1.565,0q-5.466,0-10.933,0A.975.975,0,0,1,3835.913,1744.615Zm-1.831-1.073v-.394q0-3.53,0-7.06c0-1.053-.027-2.107.021-3.158a5.536,5.536,0,0,0-4.956-5.733,5.435,5.435,0,0,0-5.959,5.435c-.007,3.535,0,7.069,0,10.6,0,.1.009.191.015.3Zm14.543,0c0-.318,0-.612,0-.906a5.388,5.388,0,0,0-1.716-3.973.308.308,0,0,0-.427-.065c-1.544.8-3.086,1.607-4.647,2.373a.738.738,0,0,0-.494.825c.04.574.01,1.154.01,1.746Zm-2.722-12.7a2.726,2.726,0,1,0-2.748,2.724A2.717,2.717,0,0,0,3845.9,1730.837Zm-1.118,6.591a5.332,5.332,0,0,0-5.113,1.04,5.511,5.511,0,0,0-1.918,5.073h1.781v-.33c0-.817,0-1.634,0-2.45a.959.959,0,0,1,.585-.938c.494-.241.979-.5,1.469-.753Z" transform="translate(-3 0)" fill="#1e999d"/>
    <path id="Path_78799" data-name="Path 78799" d="M3867.313,1775.832a4.543,4.543,0,1,1,4.452,4.552A4.564,4.564,0,0,1,3867.313,1775.832Zm4.556,2.727a2.724,2.724,0,1,0-2.733-2.692A2.718,2.718,0,0,0,3871.869,1778.559Z" transform="translate(-46.23 -43.2)" fill="#1e999d"/>
  </g>
</svg>
