<svg xmlns="http://www.w3.org/2000/svg" width="26.015" height="19.953" viewBox="0 0 26.015 19.953">
  <g id="Group_44692" data-name="Group 44692" transform="translate(-89.247 -80.008)">
    <path id="Path_78805" data-name="Path 78805" d="M103.285,95.478h-10a2.473,2.473,0,0,1-2.47-2.47V84.059a2.478,2.478,0,0,1,2.47-2.479H109.6a2.477,2.477,0,0,1,2.47,2.479v3.213a.786.786,0,0,0,1.571,0V84.059a4.051,4.051,0,0,0-4.042-4.051H93.289a4.051,4.051,0,0,0-4.042,4.051v8.948a4.046,4.046,0,0,0,4.042,4.042h10a.786.786,0,1,0,0-1.571Z" transform="translate(0 0)" fill="#1e999d"/>
    <path id="Path_78806" data-name="Path 78806" d="M271.063,166.67a3.294,3.294,0,0,0-3.29,3.29v1.817a3.29,3.29,0,0,0,6.581,0V169.96a3.294,3.294,0,0,0-3.29-3.29Zm1.719,5.107a1.719,1.719,0,1,1-3.438,0v-1.817a1.719,1.719,0,1,1,3.438,0Z" transform="translate(-169.62 -82.339)" fill="#1e999d"/>
    <path id="Path_78807" data-name="Path 78807" d="M155.376,324.77a.786.786,0,0,0,0,1.571h1.087a.786.786,0,0,0,0-1.571Z" transform="translate(-62.083 -232.552)" fill="#1e999d"/>
    <path id="Path_78808" data-name="Path 78808" d="M460.356,145.43a.786.786,0,1,0,0,1.571h1.087a.786.786,0,1,0,0-1.571Z" transform="translate(-351.849 -62.158)" fill="#1e999d"/>
    <path id="Path_78809" data-name="Path 78809" d="M416.128,269.564v5.707c0,1.625,2.441,2.474,4.852,2.474s4.856-.85,4.856-2.474v-5.707c0-3.248-9.709-3.251-9.709,0Zm8.14,2.837c-.024.073-.332.426-1.317.686a8.574,8.574,0,0,1-3.936,0c-.989-.261-1.295-.611-1.316-.67v-.988a5.923,5.923,0,0,0,.91.317,9.8,9.8,0,0,0,4.739,0,5.911,5.911,0,0,0,.919-.32Zm-3.289-3.741c2.033,0,3.159.637,3.281.9-.054.1-.381.425-1.316.668a8.378,8.378,0,0,1-3.933,0,2.38,2.38,0,0,1-1.312-.647v-.005c.084-.254,1.212-.916,3.28-.916Zm0,7.514c-2.074,0-3.2-.665-3.281-.9v-.986a6.078,6.078,0,0,0,.915.322,9.967,9.967,0,0,0,4.737,0,5.968,5.968,0,0,0,.916-.322v.972c-.079.253-1.21.918-3.288.918Z" transform="translate(-310.574 -177.785)" fill="#1e999d"/>
  </g>
</svg>
