<svg id="Iconly_Bold_Calendar" data-name="Iconly/Bold/Calendar" xmlns="http://www.w3.org/2000/svg" width="18" height="20" viewBox="0 0 18 20">
  <g id="Calendar" transform="translate(-3 -2)">
    <path id="Calendar-2" data-name="Calendar" d="M8.152,22H8.142A5.153,5.153,0,0,1,4.4,20.618,5.142,5.142,0,0,1,3.011,16.88L3,8.553a5.089,5.089,0,0,1,1.219-3.5A4.939,4.939,0,0,1,7.506,3.53V2.781a.774.774,0,0,1,.22-.554.767.767,0,0,1,1.3.551v.7l5.864-.008v-.7a.772.772,0,0,1,.217-.549.765.765,0,0,1,1.3.547v.75a4.965,4.965,0,0,1,3.321,1.487A4.993,4.993,0,0,1,20.989,8.49L21,16.916a5.055,5.055,0,0,1-1.377,3.712,5.209,5.209,0,0,1-3.751,1.362Zm7.89-5.808a.832.832,0,0,0-.808.851.83.83,0,1,0,.818-.851Zm-8.125,0h0a.851.851,0,0,0-.809.86.824.824,0,0,0,.813.8h.037a.823.823,0,0,0,.779-.861.812.812,0,0,0-.818-.8Zm4.071,0h0a.853.853,0,0,0-.808.86.824.824,0,0,0,.814.8h.036a.823.823,0,0,0,.779-.861A.811.811,0,0,0,11.988,16.188ZM7.912,12.594h0a.85.85,0,0,0-.807.86.822.822,0,0,0,.813.8h.037a.823.823,0,0,0,.779-.861.813.813,0,0,0-.819-.8Zm4.069-.035h0a.851.851,0,0,0-.809.86.823.823,0,0,0,.814.8h.036a.825.825,0,0,0,.779-.86.814.814,0,0,0-.819-.8Zm4.068.005h0a.827.827,0,0,0-.809.84v.011a.814.814,0,0,0,.822.8h.019a.825.825,0,0,0-.03-1.649ZM7.508,5.059h0c-1.986.2-2.991,1.374-2.987,3.492v.311l14.948-.02v-.35c-.042-2.113-1.07-3.272-3.056-3.444v.769a.764.764,0,0,1-1.3.548.772.772,0,0,1-.217-.545v-.81l-5.864.008v.808a.764.764,0,0,1-1.3.548.772.772,0,0,1-.217-.545v-.77Z" fill="#130f26"/>
  </g>
</svg>
