<svg xmlns="http://www.w3.org/2000/svg" width="20.268" height="19.954" viewBox="0 0 20.268 19.954">
  <g id="Image_3" data-name="Image 3" transform="translate(0.75 0.75)">
    <g id="Image_2" data-name="Image 2" transform="translate(-2.75 -2.75)">
      <path id="Stroke_1" data-name="Stroke 1" d="M13.553,0H4.9C1.889,0,0,2.134,0,5.154V13.3c0,3.02,1.881,5.154,4.9,5.154h8.647c3.025,0,4.9-2.134,4.9-5.154V5.154C18.457,2.134,16.576,0,13.553,0Z" transform="translate(2.75 2.75)" fill="none" stroke="#0d6c71" stroke-linecap="round" stroke-linejoin="round" stroke-width="1.5"/>
      <path id="Stroke_3" data-name="Stroke 3" d="M3.692,1.846A1.846,1.846,0,1,1,1.846,0,1.845,1.845,0,0,1,3.692,1.846Z" transform="translate(7.011 6.939)" fill="none" stroke="#0d6c71" stroke-linecap="round" stroke-linejoin="round" stroke-width="1.5"/>
      <path id="Stroke_5" data-name="Stroke 5" d="M17.457,2.869C16.534,1.919,14.759,0,12.829,0s-3.044,4.233-4.9,4.233S4.384,2.319,2.9,3.546A16.072,16.072,0,0,0,0,7.279" transform="translate(3.75 12.082)" fill="none" stroke="#0d6c71" stroke-linecap="round" stroke-linejoin="round" stroke-width="1.5"/>
    </g>
  </g>
</svg>
