<svg id="Paper_Download" data-name="Paper Download" xmlns="http://www.w3.org/2000/svg" width="24" height="24" viewBox="0 0 24 24">
  <g id="Paper_Download-2" data-name="Paper Download">
    <path id="Paper_Download-3" data-name="Paper Download" d="M8.173,22A4.7,4.7,0,0,1,3.5,17.29V6.51A4.492,4.492,0,0,1,7.965,2h5.288a.464.464,0,0,1,.455.46V5.68a3.34,3.34,0,0,0,3.307,3.34q.628,0,1.12.006c.257,0,.48,0,.673,0,.141,0,.323,0,.521,0,.229,0,.486-.005.716-.005a.448.448,0,0,1,.455.45V17.51A4.478,4.478,0,0,1,16.044,22Zm.109-9.29a.765.765,0,0,0,0,1.06l2.832,2.87a.775.775,0,0,0,.238.16.713.713,0,0,0,.287.059.659.659,0,0,0,.277-.059.775.775,0,0,0,.238-.16l2.841-2.87a.747.747,0,0,0-.01-1.06.731.731,0,0,0-1.04,0l-1.574,1.6V9.49a.734.734,0,0,0-.733-.75.747.747,0,0,0-.743.75v4.82l-1.574-1.6a.732.732,0,0,0-1.04,0Zm8.86-5.151a2.017,2.017,0,0,1-2-2.017V2.906a.472.472,0,0,1,.813-.334l3.987,4.187a.477.477,0,0,1-.34.807H18.96C18.319,7.567,17.656,7.564,17.142,7.559Z" fill="#f88930"/>
  </g>
</svg>
