<svg xmlns="http://www.w3.org/2000/svg" width="208" height="208" viewBox="0 0 208 208">
  <g id="Group_48673" data-name="Group 48673" transform="translate(-762 -406)">
    <circle id="Ellipse_52" data-name="Ellipse 52" cx="104" cy="104" r="104" transform="translate(762 406)" fill="#0d6c71"/>
    <g id="Group_48411" data-name="Group 48411" transform="translate(296.625 -273.873)">
      <path id="Path_86062" data-name="Path 86062" d="M570.81,831.127q-3.457,0-6.914,0c-2.846,0-4.013-1.177-4.026-4.049,0-.343-.005-.685-.009-1.028-.01-.956-.021-1.946.016-2.927a7.132,7.132,0,0,0-3.425-6.609,41.855,41.855,0,0,1,16.662-75.825,44.8,44.8,0,0,1,6.867-.535,41.354,41.354,0,0,1,41.475,36.15c2.156,16.285-3.57,29.6-17.016,39.572-3.336,2.475-4.566,4.879-4.243,8.3a20.5,20.5,0,0,1,.033,2.544c-.007.239-.014.478-.018.717-.046,2.442-1.313,3.683-3.768,3.69q-3.637.01-7.274.009Zm22.932-6.638c-.005-.235-.012-.467-.019-.7a21.521,21.521,0,0,1,.07-3.348c.594-4.783,3.768-7.66,6.466-9.632,11.632-8.5,16.563-19.918,14.656-33.927-2.378-17.473-17.1-30.155-35-30.155-1.246,0-2.51.064-3.76.19A35.321,35.321,0,0,0,546.6,793.252a35.12,35.12,0,0,0,13.79,18,13.156,13.156,0,0,1,6.063,11.723c-.007.5-.005,1,0,1.516Z" transform="translate(-10.187 -10.242)" fill="#fff"/>
      <path id="Path_86063" data-name="Path 86063" d="M598.979,936.173a15.43,15.43,0,0,1-15.122-12.523l-.044-.267c-.017-.106-.034-.212-.054-.318-.274-1.473-.423-3.135.544-4.3a4.4,4.4,0,0,1,3.6-1.28c.165,0,.337,0,.516.012,1.214.054,2.516.08,4.1.08h0c1.09,0,2.18-.012,3.27-.024s2.193-.024,3.289-.024l6.647,0q2.328,0,4.655.006a3.948,3.948,0,0,1,2.983,1.012,3.989,3.989,0,0,1,.89,3.052,15.378,15.378,0,0,1-14.214,14.537C599.68,936.161,599.328,936.173,598.979,936.173Zm-8.082-12a8.6,8.6,0,0,0,8.063,5.417l.2,0a8.668,8.668,0,0,0,7.79-5.414Z" transform="translate(-29.063 -83.925)" fill="#fff"/>
      <rect id="Rectangle_18214" data-name="Rectangle 18214" width="35.328" height="6.397" rx="3.198" transform="translate(552.205 824.018)" fill="#fff"/>
      <path id="Path_86064" data-name="Path 86064" d="M546.734,751.7a3.007,3.007,0,0,1-2.137-.883l-3.485-3.474a3.041,3.041,0,0,1-.039-4.25l.083-.086a3.03,3.03,0,0,1,4.32-.034l3.477,3.482a3.043,3.043,0,0,1,.036,4.242l-.074.076A3.006,3.006,0,0,1,546.734,751.7Z" transform="translate(-11.061 -11.044)" fill="#fff"/>
      <path id="Path_86065" data-name="Path 86065" d="M665.848,751.843a3,3,0,0,1-2.173-.919,3.051,3.051,0,0,1,0-4.28l3.556-3.564a3.029,3.029,0,0,1,4.406.126,3.044,3.044,0,0,1-.088,4.19l-3.556,3.558A3.013,3.013,0,0,1,665.848,751.843Z" transform="translate(-61.989 -11.09)" fill="#fff"/>
      <rect id="Rectangle_18215" data-name="Rectangle 18215" width="6.406" height="11.215" rx="3.203" transform="translate(566.64 715.5)" fill="#fff"/>
      <rect id="Rectangle_18216" data-name="Rectangle 18216" width="11.217" height="6.394" rx="3.197" transform="translate(513.605 768.532)" fill="#fff"/>
      <rect id="Rectangle_18217" data-name="Rectangle 18217" width="11.213" height="6.392" rx="3.196" transform="translate(614.933 768.571)" fill="#fff"/>
      <path id="Path_86066" data-name="Path 86066" d="M585.428,814.038q-2.064,0-4.128-.026a3.208,3.208,0,0,1-2.472-1.033,2.572,2.572,0,0,1-.549-2.12c.306-1.981-.34-2.91-2.305-3.317a1.657,1.657,0,0,1-.254-.074l-.319.306c-.534.512-1.085,1.04-1.669,1.537a3.116,3.116,0,0,1-2.012.809,2.953,2.953,0,0,1-2.063-.9c-2.025-1.966-4.05-3.99-6.019-6.017a3.155,3.155,0,0,1-.964-2.46,2.482,2.482,0,0,1,1.089-1.81c1.668-1.16,1.823-2.29.587-4.311-.123,0-.953.007-1.249.007-.359,0-.722,0-1.085-.014a2.949,2.949,0,0,1-3.2-3.176c-.027-2.578-.027-5.228,0-8.1a2.952,2.952,0,0,1,3.153-3.219c.2-.007.395-.009.592-.009l.9,0h.866l1.032-2.5-.279-.29c-.484-.5-.985-1.027-1.466-1.572a2.932,2.932,0,0,1,.085-4.294c2.08-2.13,4.019-4.066,5.926-5.918a3.288,3.288,0,0,1,2.233-.984,2.4,2.4,0,0,1,2.042,1.115c.825,1.238,1.545,1.381,2.015,1.381a5.19,5.19,0,0,0,2.29-.8v-.326c0-.6-.007-1.232.006-1.859.044-2.208,1.157-3.336,3.308-3.352q2.008-.015,4.016-.016,1.973,0,3.946.017a3.4,3.4,0,0,1,2.622,1.041,2.557,2.557,0,0,1,.544,2.1c-.3,1.984.346,2.916,2.3,3.325a1.771,1.771,0,0,1,.261.078l.283-.27c.509-.486,1.035-.989,1.58-1.473a3.2,3.2,0,0,1,2.131-.907,3.078,3.078,0,0,1,2.165.983c2.073,2.022,4.063,4.016,5.917,5.929a2.9,2.9,0,0,1,.057,4.188,8.993,8.993,0,0,1-.873.829c-.308.267-.881.764-.9.964a4.532,4.532,0,0,0,.687,1.946c.11.216.222.436.33.663.117,0,.939-.006,1.235-.006.36,0,.722,0,1.084.013a2.947,2.947,0,0,1,3.206,3.171c.031,2.927.03,5.622,0,8.239-.023,1.8-1.125,3.064-2.679,3.064a3.1,3.1,0,0,1-.471-.037,5.534,5.534,0,0,0-.842-.07c-1.407,0-2.125.688-2.476,2.375a1.725,1.725,0,0,1-.075.253l.278.291c.486.509.989,1.036,1.471,1.584a2.939,2.939,0,0,1-.087,4.3c-1.866,1.915-3.825,3.876-5.824,5.828a3.407,3.407,0,0,1-2.333,1.062,2.447,2.447,0,0,1-2.037-1.1c-.879-1.252-1.624-1.4-2.108-1.4a4.462,4.462,0,0,0-2.207.808q0,.181,0,.365c0,.639.01,1.3-.009,1.967a2.948,2.948,0,0,1-3.175,3.2Q587.483,814.037,585.428,814.038Zm1.3-5.973c.049-.179.1-.355.141-.53a9.763,9.763,0,0,1,.823-2.33c.995-1.79,5.569-3.782,7.918-3.782a3.121,3.121,0,0,1,.864.109,9.408,9.408,0,0,1,2.283,1.129c.119.073.237.146.355.217L601,801.084c-.088-.148-.176-.294-.263-.437a9.589,9.589,0,0,1-1.1-2.227c-.636-2.171,1.748-7.816,3.751-8.883a9.644,9.644,0,0,1,2.326-.775c.145-.035.29-.07.435-.106v-2.647L606.1,786a8.654,8.654,0,0,1-1.593-.284c-1.529-.473-3.04-2.169-4.042-4.536-.994-2.351-1.158-4.6-.438-6.017a7.715,7.715,0,0,1,.927-1.349l-1.862-2.016a8.4,8.4,0,0,1-1.311.932,4.759,4.759,0,0,1-2.266.5c-3.191,0-7.674-2.265-8.457-5.078a8.536,8.536,0,0,1-.239-1.471H584.1a4.989,4.989,0,0,1-3.522,4.929,13.489,13.489,0,0,0-1.534.668,7.989,7.989,0,0,1-3.5,1.062,4.659,4.659,0,0,1-1.285-.182,6.34,6.34,0,0,1-1.709-.879c-.154-.1-.306-.2-.46-.293l-.063-.04-2.059,1.893c1.822,2.228,1.9,3.729.556,6.681-.039.086-.081.171-.123.257a3.147,3.147,0,0,0-.208.49c-.851,3.079-2.679,4.674-5.434,4.743v2.7c2.707.1,4.547,1.648,5.33,4.494a2.435,2.435,0,0,0,.221.567c1.63,2.841,1.493,5.276-.4,7.249l1.947,1.909a5.826,5.826,0,0,1,3.534-1.564,7.55,7.55,0,0,1,3.019.854l.253.118a4.423,4.423,0,0,0,.632.261c3.141.9,4.765,2.735,4.838,5.469Z" transform="translate(-15.61 -15.609)" fill="#fff"/>
      <path id="Path_86067" data-name="Path 86067" d="M594.874,808.136a11.346,11.346,0,1,1,.032,0Zm.041-17.8a6.463,6.463,0,0,0-4.6,11.009,6.391,6.391,0,0,0,4.538,1.935h.05a6.466,6.466,0,0,0,4.593-11.034,6.413,6.413,0,0,0-4.569-1.91l-.009-.647Z" transform="translate(-25.057 -25.056)" fill="#fff"/>
    </g>
  </g>
</svg>
