<svg xmlns="http://www.w3.org/2000/svg" width="66" height="65" viewBox="0 0 81 80">
  <g id="Group_40901" data-name="Group 40901" transform="translate(-0.306 -0.404)">
    <ellipse id="Ellipse_48" data-name="Ellipse 48" cx="40.5" cy="40" rx="40.5" ry="40" transform="translate(0.306 0.404)" fill="#f5f8f8"/>
    <path id="Path_67397" data-name="Path 67397" d="M136.8,111.8a.82.82,0,0,0-1.16-.058l-6.054,5.445a.812.812,0,0,0-.263.5,8.413,8.413,0,0,1-1.67,4.154l-6.77-6.054a4.224,4.224,0,0,0,.757-.337.821.821,0,1,0-.806-1.431c-1.678.954-5.133.494-8.02-1.917a.838.838,0,0,0-1.333.485c-.584,3.274-1.423,5.231-2.484,5.816a2.283,2.283,0,0,1-1.744.09,12.174,12.174,0,0,0,.239-6.671,31.3,31.3,0,0,1,5.569-5.083c1.843-1.094,6.934.008,8.744.527a.845.845,0,0,0,.634-.074l3.883-2.213a.821.821,0,0,0-.806-1.431l-3.586,2.04c-1.555-.411-7.173-1.768-9.7-.271-.115.066-.23.148-.354.222a25.706,25.706,0,0,0-8.629,1.439l-4.557-2.821a.824.824,0,1,0-.872,1.4l4.9,3.035a.922.922,0,0,0,.732.066,25.76,25.76,0,0,1,6.252-1.423,44.691,44.691,0,0,0-3.743,3.825.817.817,0,0,0-.173.757,10.657,10.657,0,0,1-.362,6.876.823.823,0,0,0,.452,1.061,4.583,4.583,0,0,0,3.907.082c1.382-.757,2.361-2.542,3.052-5.668a10.772,10.772,0,0,0,5.939,1.925l7.9,7.074a1.863,1.863,0,0,1,.617,1.316,2.219,2.219,0,0,1-1.851,2.1l-3.5-2.172a.824.824,0,1,0-.872,1.4l3.438,2.139A3,3,0,0,1,123.2,129.6c-.329.222-1.143.691-1.768.312l-4.2-2.6a.824.824,0,0,0-.872,1.4l4.179,2.591s.222.222.214.28c-.008.362-.527,1.02-1.349,1.464a2.13,2.13,0,0,1-1.982.2l-3.5-2.163a.824.824,0,0,0-.872,1.4l2.361,1.464a5.817,5.817,0,0,1-2.1.329,3.177,3.177,0,0,0-.633-.675,4.582,4.582,0,0,0-1.629-.856c.017-2.649-2.131-3.479-2.879-3.3a3.374,3.374,0,0,0-1.489-2.7,2.6,2.6,0,0,0-2.55-.058,3.14,3.14,0,0,0-1.275-1.662,2.778,2.778,0,0,0-3.191.321.826.826,0,0,0-.189.189l-.46.642c-2.681-2.073-4.2-3.718-4.475-4.894a.806.806,0,0,0-.37-.51L89.29,117.74a.824.824,0,1,0-.872,1.4L93.05,122c.518,1.522,2.106,3.257,5.018,5.5l-.214.3a1.651,1.651,0,0,0-.132,1.694c.8,1.62,1.892,2.443,3.274,2.443h.09a4.52,4.52,0,0,0,1.719,2,3.388,3.388,0,0,0,1.637.395c1.481,2.961,3.66,2.361,3.776,2.336a4.219,4.219,0,0,0,2.681,1.045,2.063,2.063,0,0,0,1.645-.691l.634-1.11c.074,0,.148.008.222.008a6.631,6.631,0,0,0,3.7-1c1.6.543,4.993-.707,5.281-3.225a5.094,5.094,0,0,0,3.266-2.3,2.911,2.911,0,0,0,.469-1.267,3.847,3.847,0,0,0,2.789-3.668,3.463,3.463,0,0,0-.28-1.226,10.159,10.159,0,0,0,2.254-5.01l5.832-5.248a.82.82,0,0,0,.058-1.16ZM99.209,128.762l1.546-2.172a1.121,1.121,0,0,1,1.258-.173,1.852,1.852,0,0,1,.707,1.662l-1.579,2.213c-.543.041-1.242-.123-1.933-1.53Zm3.348,2.394,2.032-2.846a1.121,1.121,0,0,1,1.258-.173,1.852,1.852,0,0,1,.707,1.662l-.345.477-.017.017-1.7,2.385c-.543.033-1.242-.123-1.933-1.53Zm3.348,2.385,1.546-2.172a1.133,1.133,0,0,1,1.267-.173,1.879,1.879,0,0,1,.707,1.67l-1.571,2.2v.008c-.584.041-1.242-.131-1.933-1.538Zm5.33,2.484a2.133,2.133,0,0,1-1.242-.148,1.793,1.793,0,0,1-.5-.288l.938-1.316a2.9,2.9,0,0,1,1.382.732l-.576,1.02Z" transform="translate(-71.701 -78.832)" fill="#15414a" stroke="#15414a" stroke-width="0.5"/>
  </g>
</svg>
