<svg xmlns="http://www.w3.org/2000/svg" width="66" height="65" viewBox="0 0 81 80">
  <g id="Group_40901" data-name="Group 40901" transform="translate(0.292 -0.404)">
    <ellipse id="Ellipse_48" data-name="Ellipse 48" cx="40.5" cy="40" rx="40.5" ry="40" transform="translate(-0.292 0.404)" fill="#f5f8f8"/>
    <g id="Group_40938" data-name="Group 40938" transform="translate(-62.89 -35.791)">
      <path id="Path_67393" data-name="Path 67393" d="M111.586,128.33a6.584,6.584,0,1,0,6.584,6.584,6.588,6.588,0,0,0-6.584-6.584Zm0,1.881a4.7,4.7,0,1,1-4.7,4.7,4.7,4.7,0,0,1,4.7-4.7Z" transform="translate(-21.452 -64.355)" fill="#15414a" fill-rule="evenodd"/>
      <path id="Path_67394" data-name="Path 67394" d="M274.916,58.332a6.584,6.584,0,1,0,6.584,6.584A6.588,6.588,0,0,0,274.916,58.332Zm0,1.881a4.7,4.7,0,1,1-4.7,4.7A4.7,4.7,0,0,1,274.916,60.213Z" transform="translate(-171.614)" fill="#15414a" fill-rule="evenodd"/>
      <path id="Path_67395" data-name="Path 67395" d="M438.25,128.33a6.584,6.584,0,1,0,6.584,6.584,6.588,6.588,0,0,0-6.584-6.584Zm0,1.881a4.7,4.7,0,1,1-4.7,4.7,4.7,4.7,0,0,1,4.7-4.7Z" transform="translate(-321.78 -64.355)" fill="#15414a" fill-rule="evenodd"/>
      <path id="Path_67396" data-name="Path 67396" d="M93.387,250.791A8.469,8.469,0,0,1,101.42,245h3.762a8.469,8.469,0,0,1,8.033,5.788,6.548,6.548,0,0,1,1.372-.145h3.762a6.583,6.583,0,0,1,6.584,6.584v5.643a2.821,2.821,0,0,1-2.822,2.822H84.491a2.821,2.821,0,0,1-2.822-2.822V257.23a6.583,6.583,0,0,1,6.584-6.584h3.762a6.547,6.547,0,0,1,1.372.145Zm18.38,2.677v9.406a.941.941,0,0,1-.941.94H95.778a.941.941,0,0,1-.941-.94v-9.406a6.584,6.584,0,0,1,6.584-6.584h3.762a6.584,6.584,0,0,1,6.584,6.584ZM93,252.631a4.675,4.675,0,0,0-.981-.1H88.253a4.7,4.7,0,0,0-4.7,4.7v5.643a.941.941,0,0,0,.941.94h8.626a2.812,2.812,0,0,1-.162-.94v-9.406q0-.423.04-.837Zm20.49,11.183h8.626a.941.941,0,0,0,.941-.94V257.23a4.7,4.7,0,0,0-4.7-4.7h-3.762a4.679,4.679,0,0,0-.981.1q.04.413.04.837v9.406a2.809,2.809,0,0,1-.162.94Z" transform="translate(0 -171.622)" fill="#15414a" fill-rule="evenodd"/>
    </g>
  </g>
</svg>
