<svg xmlns="http://www.w3.org/2000/svg" width="56" height="56" viewBox="0 0 56 56">
  <g id="Group_39574" data-name="Group 39574" transform="translate(-213 -268)">
    <circle id="Ellipse_63" data-name="Ellipse 63" cx="28" cy="28" r="28" transform="translate(213 268)" fill="#fff"/>
    <g id="Paper_Upload" data-name="Paper Upload" transform="translate(228.751 283.987)">
      <path id="Stroke_1" data-name="Stroke 1" d="M10.487,0H3.835A3.82,3.82,0,0,0,0,3.729V14.466a3.807,3.807,0,0,0,3.724,3.887h8.1a3.867,3.867,0,0,0,3.73-3.887V5.276Z" transform="translate(4.25 2.762)" fill="none" stroke="#3373b5" stroke-linecap="round" stroke-linejoin="round" stroke-width="1.5"/>
      <path id="Stroke_3" data-name="Stroke 3" d="M0,0V2.909A2.575,2.575,0,0,0,2.569,5.484H5.323" transform="translate(14.475 2.75)" fill="none" stroke="#3373b5" stroke-linecap="round" stroke-linejoin="round" stroke-width="1.5"/>
      <path id="Stroke_5" data-name="Stroke 5" d="M.5,0V6.041" transform="translate(11.141 9.909)" fill="none" stroke="#3373b5" stroke-linecap="round" stroke-linejoin="round" stroke-width="1.5"/>
      <path id="Stroke_7" data-name="Stroke 7" d="M4.69,2.355,2.345,0,0,2.355" transform="translate(9.297 9.909)" fill="none" stroke="#3373b5" stroke-linecap="round" stroke-linejoin="round" stroke-width="1.5"/>
    </g>
  </g>
</svg>
