<svg id="_3_User" data-name="3 User" xmlns="http://www.w3.org/2000/svg" width="24" height="24" viewBox="0 0 24 24">
  <g id="_3_User-2" data-name="3 User">
    <path id="_3_Friends" data-name="3 Friends" d="M5.588,17.28c0-2.176,2.911-2.741,6.361-2.741,3.431,0,6.36.545,6.36,2.721S15.4,20,11.949,20C8.518,20,5.588,19.456,5.588,17.28Zm-1.876.609c-.576-.083-2.06-.4-2.52-1.4a1.915,1.915,0,0,1,0-1.67,2.761,2.761,0,0,1,2.13-1.3,15.651,15.651,0,0,1,3.244-.283.037.037,0,0,1,.031.025.046.046,0,0,1-.028.048,4.45,4.45,0,0,0-2.656,4.38.183.183,0,0,1-.176.209Zm16.375-.206A4.451,4.451,0,0,0,17.431,13.3a.046.046,0,0,1-.029-.047.038.038,0,0,1,.032-.026,15.566,15.566,0,0,1,3.244.283,2.757,2.757,0,0,1,2.131,1.3,1.926,1.926,0,0,1,0,1.67c-.461,1-1.944,1.319-2.521,1.4l-.027,0A.183.183,0,0,1,20.086,17.683ZM7.74,8.233a4.209,4.209,0,1,1,4.209,4.234A4.206,4.206,0,0,1,7.74,8.233Zm9.824,3.608a3.408,3.408,0,0,1-.484-.047.158.158,0,0,1-.106-.244,5.843,5.843,0,0,0-.085-6.612.1.1,0,0,1-.015-.11.126.126,0,0,1,.082-.049,3.507,3.507,0,0,1,.708-.073A3.575,3.575,0,0,1,21.088,9.22a3.509,3.509,0,0,1-3.428,2.623ZM2.911,9.22A3.575,3.575,0,0,1,6.336,4.706a3.523,3.523,0,0,1,.709.073.132.132,0,0,1,.082.049.1.1,0,0,1-.016.11,5.845,5.845,0,0,0-.084,6.612.158.158,0,0,1-.106.244,3.305,3.305,0,0,1-.484.047h-.1A3.512,3.512,0,0,1,2.911,9.22Z" fill="#3e7fc1"/>
  </g>
</svg>
