<svg xmlns="http://www.w3.org/2000/svg" width="141" height="141" viewBox="0 0 141 141">
  <g id="Group_44146" data-name="Group 44146" transform="translate(-762.5 -406.5)">
    <circle id="Ellipse_52" data-name="Ellipse 52" cx="70.5" cy="70.5" r="70.5" transform="translate(762.5 406.5)" fill="#d05345"/>
    <g id="Group_44145" data-name="Group 44145" transform="translate(792.505 437.183)">
      <path id="Path_78575" data-name="Path 78575" d="M1018.44,349.906c-9.115,0-18.231-.015-27.346,0A12.458,12.458,0,0,1,978.6,337.177a11.6,11.6,0,0,1,1.6-5.586q13.678-23.862,27.351-47.727a12.754,12.754,0,0,1,8.253-6.492,12.06,12.06,0,0,1,13.073,5.828c3.92,6.979,7.94,13.9,11.919,20.848,5.271,9.2,10.57,18.382,15.8,27.6a11.471,11.471,0,0,1,.016,11.708,11.665,11.665,0,0,1-5.786,5.564,12.474,12.474,0,0,1-4.927.981Q1032.171,349.909,1018.44,349.906Zm.253-4.767q13.646,0,27.291,0c2.867,0,5.017-1.058,6.313-3.774a7.03,7.03,0,0,0-.1-6.942Q1038.5,310.5,1024.779,286.6a8.547,8.547,0,0,0-1.455-1.873c-3.351-3.233-9.337-2.309-10.792,1.723a2.386,2.386,0,0,1-.2.354c-9.066,15.828-18.095,31.678-27.22,47.472-3.09,5.348,1.454,11.013,6.291,10.919C1000.5,345.014,1009.6,345.14,1018.692,345.139Z" transform="translate(-978.597 -277.065)" fill="#fff"/>
      <path id="Path_78576" data-name="Path 78576" d="M1303.226,497.412c0,3.159.011,6.319,0,9.478a2.551,2.551,0,0,1-3.367,2.6,2.3,2.3,0,0,1-1.8-1.914,3.907,3.907,0,0,1-.063-.751q0-9.421,0-18.841a2.581,2.581,0,0,1,3.589-2.589,2.289,2.289,0,0,1,1.58,1.844,4.939,4.939,0,0,1,.064.926Q1303.23,492.789,1303.226,497.412Z" transform="translate(-1260.815 -460.987)" fill="#fff"/>
      <path id="Path_78577" data-name="Path 78577" d="M1301.886,722.1a2.825,2.825,0,1,1-2.8-2.823A2.841,2.841,0,0,1,1301.886,722.1Z" transform="translate(-1259.27 -667.813)" fill="#fff"/>
    </g>
  </g>
</svg>
