<svg xmlns="http://www.w3.org/2000/svg" width="19.34" height="24.479" viewBox="0 0 19.34 24.479">
  <path id="Path_78547" data-name="Path 78547" d="M339.639,258.482a5.015,5.015,0,1,0,5.014,5.014A5.026,5.026,0,0,0,339.639,258.482Zm.03,11.324A6.687,6.687,0,0,0,333,276.476v2.815a.79.79,0,0,0,.734.735h8.528a5.325,5.325,0,1,0,4.748-7.725,5.27,5.27,0,0,0-1.915.363,6.575,6.575,0,0,0-5.423-2.858Zm7.339,4.025a3.8,3.8,0,1,1-3.7,4.636,4.031,4.031,0,0,1-.088-.828,3.945,3.945,0,0,1,.118-.941,3.841,3.841,0,0,1,.119-.386c.028-.078.055-.157.088-.233a3.787,3.787,0,0,1,.275-.51c.03-.047.063-.091.094-.136a3.837,3.837,0,0,1,.338-.41c.034-.035.063-.074.1-.107a3.894,3.894,0,0,1,.393-.323,3.349,3.349,0,0,1,.436-.26c.017-.012.027-.028.043-.04a3.77,3.77,0,0,1,1.788-.464Zm.176,1.263a.765.765,0,0,0-.752.779l-.009,1.973-.576.37a.765.765,0,1,0,.768,1.322l.954-.592a.765.765,0,0,0,.384-.66l.008-2.413a.765.765,0,0,0-.778-.779Z" transform="translate(-332.998 -258.482)" fill="#f88930"/>
</svg>
