<svg width="20" height="21" viewBox="0 0 20 21" fill="none" xmlns="http://www.w3.org/2000/svg">
<path fill-rule="evenodd" clip-rule="evenodd" d="M18.4023 11.7025C18.76 11.8942 19.036 12.1969 19.2301 12.4996C19.6083 13.1252 19.5776 13.8921 19.2097 14.5682L18.4943 15.7791C18.1162 16.4249 17.411 16.8285 16.6855 16.8285C16.3278 16.8285 15.9292 16.7276 15.6022 16.5258C15.3365 16.3542 15.0299 16.2937 14.7029 16.2937C13.6911 16.2937 12.8429 17.1312 12.8122 18.1302C12.8122 19.2906 11.872 20.1987 10.6968 20.1987H9.30692C8.12145 20.1987 7.18125 19.2906 7.18125 18.1302C7.16081 17.1312 6.31259 16.2937 5.30085 16.2937C4.96361 16.2937 4.65702 16.3542 4.40153 16.5258C4.0745 16.7276 3.66572 16.8285 3.31825 16.8285C2.58245 16.8285 1.87729 16.4249 1.49917 15.7791L0.79402 14.5682C0.415896 13.9123 0.395456 13.1252 0.773581 12.4996C0.937094 12.1969 1.24368 11.8942 1.59115 11.7025C1.87729 11.5612 2.06125 11.3291 2.23498 11.0567C2.74596 10.1889 2.43937 9.04865 1.57071 8.53403C0.55897 7.95886 0.231943 6.67736 0.814459 5.67839L1.49917 4.4877C2.09191 3.48874 3.35913 3.13557 4.38109 3.72082C5.27019 4.20517 6.425 3.88227 6.9462 3.02457C7.10972 2.74203 7.20169 2.43932 7.18125 2.1366C7.16081 1.74307 7.27323 1.36972 7.4674 1.067C7.84553 0.441382 8.53024 0.0377593 9.27627 0.0175781H10.7172C11.4735 0.0175781 12.1582 0.441382 12.5363 1.067C12.7203 1.36972 12.8429 1.74307 12.8122 2.1366C12.7918 2.43932 12.8838 2.74203 13.0473 3.02457C13.5685 3.88227 14.7233 4.20517 15.6226 3.72082C16.6344 3.13557 17.9118 3.48874 18.4943 4.4877L19.179 5.67839C19.7718 6.67736 19.4447 7.95886 18.4228 8.53403C17.5541 9.04865 17.2475 10.1889 17.7687 11.0567C17.9322 11.3291 18.1162 11.5612 18.4023 11.7025ZM7.10972 10.1182C7.10972 11.7025 8.4076 12.9638 10.0121 12.9638C11.6165 12.9638 12.8838 11.7025 12.8838 10.1182C12.8838 8.53403 11.6165 7.26261 10.0121 7.26261C8.4076 7.26261 7.10972 8.53403 7.10972 10.1182Z" fill="#1E999D"/>
</svg>
