<svg xmlns="http://www.w3.org/2000/svg" width="32" height="32" viewBox="0 0 32 32">
  <g id="Group_39515" data-name="Group 39515" transform="translate(-140.959 -0.248)">
    <circle id="Ellipse_67" data-name="Ellipse 67" cx="16" cy="16" r="16" transform="translate(140.959 0.248)" fill="#004a58"/>
    <g id="Group_39609" data-name="Group 39609" transform="translate(150.192 8.075)">
      <g id="Group_39220" data-name="Group 39220" transform="translate(0.766)">
        <path id="Fill_1" data-name="Fill 1" d="M0,2.692C0,4.845,2.869,5.4,6.267,5.4c3.38,0,6.267-.538,6.267-2.692S9.665,0,6.267,0C2.887,0,0,.538,0,2.692Z" transform="translate(0 10.428)" fill="#fff"/>
        <path id="Fill_4" data-name="Fill 4" d="M4.147,8.377A4.153,4.153,0,0,0,8.294,4.188,4.147,4.147,0,1,0,0,4.188,4.154,4.154,0,0,0,4.147,8.377Z" transform="translate(2.12)" fill="#fff"/>
      </g>
    </g>
  </g>
</svg>
